<svg id="Calque_1" data-name="Calque 1" xmlns="http://www.w3.org/2000/svg" viewBox="0 0 126.37 75.58"><defs><style>.cls-1{fill:#517bbd;}</style></defs><g id="Groupe_41577" data-name="Groupe 41577"><path id="Tracé_2272" data-name="Tracé 2272" class="cls-1" d="M23.74,16.65a35.1,35.1,0,0,0-4.46-.34c-4.33,0-7.73,1.1-10.3,3.28a11.87,11.87,0,0,0-.71,16.73,11.52,11.52,0,0,0,8.4,3A15.57,15.57,0,0,0,29,33.55c.47,1,.89,1.76,1.3,2.48a13.1,13.1,0,0,0,1.52,2,1.89,1.89,0,0,0,1.26.59,2,2,0,0,0,1.09-.38l2.65-1.76a1.69,1.69,0,0,0,.8-1.26,1.85,1.85,0,0,0-.3-1,22.69,22.69,0,0,1-1.34-3,12.71,12.71,0,0,1-.47-3.74h-.08V13.83c0-4.62-1.18-8.06-3.49-10.34S26,.09,21,.09a25.82,25.82,0,0,0-6.55.8,24.1,24.1,0,0,0-5.3,1.9,3.1,3.1,0,0,0-1.18.88,2.67,2.67,0,0,0-.3,1.47V7.2c0,.88.3,1.3.89,1.3a2.56,2.56,0,0,0,.67-.13,12.94,12.94,0,0,0,1.47-.54A31.46,31.46,0,0,1,15.2,6.4a18.8,18.8,0,0,1,4.54-.55c3.24,0,5.51.63,6.85,1.93s2,3.54,2,6.73v3.07C26.89,17.19,25.29,16.86,23.74,16.65Zm4.92,5.63v1.77a16,16,0,0,1-.42,3.65,6.79,6.79,0,0,1-1.43,2.69,9.34,9.34,0,0,1-4,2.69,13.55,13.55,0,0,1-4.33.76A6.22,6.22,0,0,1,14.58,23C16,21.86,18,21.32,20.84,21.32a30.69,30.69,0,0,1,3.95.25,34.17,34.17,0,0,1,3.87.71Z"/><path id="Tracé_2273" data-name="Tracé 2273" class="cls-1" d="M49.76,36.32A3.38,3.38,0,0,0,50.64,38a2.33,2.33,0,0,0,1.6.42h3.61A2.56,2.56,0,0,0,57.53,38a3.18,3.18,0,0,0,.8-1.68L64.81,9.21l6.51,27.11a3,3,0,0,0,.8,1.68,2.56,2.56,0,0,0,1.68.42h3.62A2.68,2.68,0,0,0,79,38a3.25,3.25,0,0,0,.88-1.64L90,3.87a5.45,5.45,0,0,0,.29-1.05,3.73,3.73,0,0,0,.09-.67.93.93,0,0,0-.8-1,1,1,0,0,0-.25,0H85.45a2.71,2.71,0,0,0-1.64.42A3.64,3.64,0,0,0,83,3.16L75.69,31.32,69.05,3.16a2.86,2.86,0,0,0-.8-1.64,2.57,2.57,0,0,0-1.68-.42H63.2a2.93,2.93,0,0,0-1.68.42,3,3,0,0,0-.8,1.64L54.17,31,47.11,3.16a3.53,3.53,0,0,0-.84-1.64,2.34,2.34,0,0,0-1.64-.42H40.51a.94.94,0,0,0-1,.82,1.69,1.69,0,0,0,0,.23,7.52,7.52,0,0,0,.38,1.69Z"/><path id="Tracé_2274" data-name="Tracé 2274" class="cls-1" d="M94.94,37.08a19.23,19.23,0,0,0,4.83,1.68,28.27,28.27,0,0,0,6.48.76,20.12,20.12,0,0,0,6-.89,13.48,13.48,0,0,0,4.66-2.35,11.31,11.31,0,0,0,3.07-3.7,10.85,10.85,0,0,0,1.09-4.88,9.52,9.52,0,0,0-1.93-5.88c-1.3-1.73-3.49-3.07-6.52-4l-6-1.89A12.61,12.61,0,0,1,102,13.58a4,4,0,0,1-1.26-3,4.06,4.06,0,0,1,2-3.74,10.82,10.82,0,0,1,5.59-1.18,19.34,19.34,0,0,1,8.07,1.64,4.27,4.27,0,0,0,1.6.5c.63,0,1-.46,1-1.35v-2a2.28,2.28,0,0,0-.37-1.39,3.75,3.75,0,0,0-1.26-1,9.79,9.79,0,0,0-1.77-.75c-.76-.26-1.56-.47-2.4-.68S111.41.3,110.45.17A20.53,20.53,0,0,0,107.63,0a18.27,18.27,0,0,0-5.3.72A13.28,13.28,0,0,0,98,2.9a10.9,10.9,0,0,0-3,3.45A9.37,9.37,0,0,0,93.8,11a10,10,0,0,0,2.1,6.1,12.82,12.82,0,0,0,6.72,4.29l6.1,1.89A10.43,10.43,0,0,1,113,25.48a4.06,4.06,0,0,1,1.14,2.94,4.52,4.52,0,0,1-2.19,4,11.39,11.39,0,0,1-6.13,1.39,25.39,25.39,0,0,1-5-.5,22.91,22.91,0,0,1-4.63-1.48c-.42-.16-.8-.33-1.05-.41a2.15,2.15,0,0,0-.75-.13c-.63,0-1,.42-1,1.3v2.14a3,3,0,0,0,.25,1.18A3.11,3.11,0,0,0,94.94,37.08Z"/><path id="Tracé_2275" data-name="Tracé 2275" class="cls-1" d="M112.19,57a125,125,0,0,1-47.76,9.48A126.15,126.15,0,0,1,2,49.54C.44,48.61-.74,50.2.55,51.38a92.63,92.63,0,0,0,62.37,24.2c17.27.1,37.4-5.21,51.28-15.34C116.47,58.57,114.51,56,112.19,57Z"/><path id="Tracé_2276" data-name="Tracé 2276" class="cls-1" d="M125.9,49.21c-1.5-1.86-14.48-3.53-22.41,2-1.23.88-1,2,.32,1.89,4.5-.52,14.43-1.64,16.18.64s-2,11.59-3.75,15.74c-.51,1.26.58,1.77,1.72.81C125.4,64.08,127.4,51.11,125.9,49.21Z"/></g></svg>