<svg id="Calque_1" data-name="Calque 1" xmlns="http://www.w3.org/2000/svg" viewBox="0 0 189.82 54.68"><defs><style>.cls-1{fill:#517bbd;}</style></defs><g id="Groupe_41579" data-name="Groupe 41579"><path id="Tracé_2277" data-name="Tracé 2277" class="cls-1" d="M32.66,51.77l16.66-3,.15,0L40.9,38.6c-4.7-5.6-8.56-10.21-8.56-10.24S41.19,4,41.24,3.87s6,10.36,14.59,25.19L70.5,54.49l.11.19H16.17Z"/><g id="Groupe_725" data-name="Groupe 725"><g id="Groupe_724" data-name="Groupe 724"><path id="Tracé_2278" data-name="Tracé 2278" class="cls-1" d="M144.85,33.32v7.2l-.11.48a7.49,7.49,0,0,1-1.88,3.61,5.47,5.47,0,0,1-2.79,1.51,10.21,10.21,0,0,1-2.47,0A4.6,4.6,0,0,1,135,44.77a6.81,6.81,0,0,1-1.59-3.94c-.06-.47-.08-1.2-.08-7.64V26.05h-3.67v7.38a63.51,63.51,0,0,0,.19,8.83,7.24,7.24,0,0,0,7.18,7l0,0a8,8,0,0,0,4.71-.92,7.61,7.61,0,0,0,2.87-2.87,1.48,1.48,0,0,1,.21-.32,13.33,13.33,0,0,1,0,1.79v1.79h3.71V26.12h-3.74Z"/><path id="Tracé_2279" data-name="Tracé 2279" class="cls-1" d="M189.81,35.53a11.41,11.41,0,0,0-2.34-7.1,8.65,8.65,0,0,0-5.82-3,13.45,13.45,0,0,0-3.29.19,10,10,0,0,0-4,1.93,11.65,11.65,0,0,0-4.21,8.15,19.47,19.47,0,0,0,0,4.11,10.42,10.42,0,0,0,4.69,8.08,9.83,9.83,0,0,0,4.27,1.39l0,0a32.14,32.14,0,0,0,3.4,0,13.46,13.46,0,0,0,5.38-1.87l.38-.23v-1.7a7.27,7.27,0,0,0-.05-1.68l-.36.26a11.29,11.29,0,0,1-5,2.07,15.78,15.78,0,0,1-2.66.1,7.16,7.16,0,0,1-4.07-1.72,7.41,7.41,0,0,1-1.63-2.39,8.76,8.76,0,0,1-.72-3.38v-.36h16l0-1C189.84,36.81,189.81,36,189.81,35.53Zm-3.73-.3H173.79l0-.19a9.45,9.45,0,0,1,.38-1.57,8.24,8.24,0,0,1,2-3.17,5.62,5.62,0,0,1,3-1.6,8.18,8.18,0,0,1,2.21-.06A5.12,5.12,0,0,1,184.23,30a7.25,7.25,0,0,1,1.86,4.9Z"/><path id="Tracé_2280" data-name="Tracé 2280" class="cls-1" d="M93.21,17H89.33L83.27,32.81l-6,15.91h0a11.71,11.71,0,0,0,2,.05h2.06l1.53-4.3c.84-2.37,1.56-4.37,1.59-4.45l.06-.15H98l1.67,4.45,1.67,4.45h2.07c1.13,0,2.06,0,2.06,0S93.86,18.63,93.37,17.37Zm3.53,19.52H91.23c-3,0-5.5,0-5.5,0s1.09-3,2.44-6.71,2.5-6.85,2.58-7.06a11.31,11.31,0,0,0,.35-1.53c.06-.48.1-.47.2.06a57.89,57.89,0,0,0,2.92,8.49C95.62,33.41,96.74,36.47,96.74,36.47Z"/><path id="Tracé_2281" data-name="Tracé 2281" class="cls-1" d="M108,27.59v1.54l6,0,6.07,0-6.7,9.21-6.71,9.23v1.15h18.66v-3.1h-13.2s3-4.19,6.71-9.29l6.7-9.27v-1H108Z"/><path id="Tracé_2282" data-name="Tracé 2282" class="cls-1" d="M165.92,25.62a6,6,0,0,0-1.2.05,5.28,5.28,0,0,0-2.91,1.43,8.09,8.09,0,0,0-2,3.15,2.46,2.46,0,0,1-.2.47s0-1,0-2.33V26.05h-3.67V37.38c0,6.23,0,11.36,0,11.36h0s.84,0,1.87,0h1.8v-6.4c0-4.32,0-6.52.05-6.79a11,11,0,0,1,1.53-4.4,4.57,4.57,0,0,1,2.31-1.89,4.19,4.19,0,0,1,1.44-.28,4.51,4.51,0,0,1,2.42.48l.44.22v-3.8l-.15-.05A5.34,5.34,0,0,0,165.92,25.62Z"/></g></g><path id="Tracé_2283" data-name="Tracé 2283" class="cls-1" d="M0,48.66s4-7,9-15.56l9-15.55L28.39,8.78C34.13,4,38.85,0,38.87,0a1.54,1.54,0,0,1-.17.42L27.36,24.75,16.21,48.66H8.11C3.65,48.68,0,48.67,0,48.66Z"/></g></svg>