<svg id="Calque_1" data-name="Calque 1" xmlns="http://www.w3.org/2000/svg" viewBox="0 0 130.11 68.58"><defs><style>.cls-1{fill:#517bbd;}</style></defs><g id="Groupe_41575" data-name="Groupe 41575"><rect id="Rectangle_599" data-name="Rectangle 599" class="cls-1" x="36.8" y="45.56" width="5.7" height="22.61"/><path id="Tracé_2377" data-name="Tracé 2377" class="cls-1" d="M88.5,52.05a10,10,0,0,0-4.79-1.22,5.94,5.94,0,0,0-6.25,5.6c0,.14,0,.29,0,.43a5.94,5.94,0,0,0,5.81,6h.45a10.13,10.13,0,0,0,4.79-1.2v6.06a18.33,18.33,0,0,1-5.2.81c-6.42,0-12-4.43-12-11.71,0-6.76,5.1-11.7,12-11.7a17.31,17.31,0,0,1,5.2.8Z"/><path id="Tracé_2378" data-name="Tracé 2378" class="cls-1" d="M29,52.05a10,10,0,0,0-4.79-1.22,5.93,5.93,0,0,0-6.25,5.59c0,.15,0,.3,0,.44a5.92,5.92,0,0,0,5.79,6h.46A10.13,10.13,0,0,0,29,61.7v6.06a18,18,0,0,1-5.21.81c-6.4,0-12-4.43-12-11.71,0-6.76,5.09-11.7,12-11.7A17.38,17.38,0,0,1,29,46Z"/><path id="Tracé_2379" data-name="Tracé 2379" class="cls-1" d="M118.39,56.87a11.6,11.6,0,0,1-11.5,11.71h-.44A11.6,11.6,0,0,1,94.52,57.32c0-.15,0-.3,0-.45A11.6,11.6,0,0,1,106,45.16h.44a11.6,11.6,0,0,1,11.94,11.25v.45m-11.94-5.95a5.84,5.84,0,0,0-5.9,5.79v.16a5.85,5.85,0,0,0,5.74,6h.16a5.85,5.85,0,0,0,5.9-5.8v-.15a5.85,5.85,0,0,0-5.75-5.95h-.15"/><path id="Tracé_2380" data-name="Tracé 2380" class="cls-1" d="M64.14,50.71a19.2,19.2,0,0,0-4.46-.7c-2.29,0-3.53.77-3.53,1.86,0,1.37,1.68,1.85,2.62,2.15l1.57.5c3.7,1.17,5.39,3.71,5.39,6.46,0,5.69-5,7.59-9.36,7.59A34.39,34.39,0,0,1,50.21,68V62.75a21.34,21.34,0,0,0,5.39.84c2.84,0,4.14-.83,4.14-2.12s-1.13-1.8-2.53-2.24L56,58.83c-3.17-1-5.83-2.86-5.83-6.61,0-4.22,3.17-7.07,8.43-7.07a24.23,24.23,0,0,1,5.56.73Z"/><path id="Tracé_2381" data-name="Tracé 2381" class="cls-1" d="M5.67,21.27a2.84,2.84,0,0,0-5.67,0V27.2A2.83,2.83,0,0,0,2.83,30h0a2.84,2.84,0,0,0,2.83-2.81V21.27Z"/><path id="Tracé_2382" data-name="Tracé 2382" class="cls-1" d="M21.23,13.48a2.84,2.84,0,0,0-5.67,0V27.2A2.83,2.83,0,0,0,18.38,30h0a2.83,2.83,0,0,0,2.83-2.82h0Z"/><path id="Tracé_2383" data-name="Tracé 2383" class="cls-1" d="M36.78,2.82a2.83,2.83,0,0,0-5.66,0v30a2.83,2.83,0,1,0,5.66,0Z"/><path id="Tracé_2384" data-name="Tracé 2384" class="cls-1" d="M52.34,13.48a2.83,2.83,0,0,0-5.66,0V27.2A2.83,2.83,0,0,0,49.5,30h0a2.82,2.82,0,0,0,2.83-2.81V13.48Z"/><path id="Tracé_2385" data-name="Tracé 2385" class="cls-1" d="M67.88,21.27a2.83,2.83,0,0,0-5.65,0V27.2A2.83,2.83,0,0,0,65.06,30h0a2.82,2.82,0,0,0,2.81-2.82h0Z"/><path id="Tracé_2386" data-name="Tracé 2386" class="cls-1" d="M83.45,13.48a2.83,2.83,0,1,0-5.65,0V27.2A2.81,2.81,0,0,0,80.6,30h0a2.83,2.83,0,0,0,2.83-2.82h0Z"/><path id="Tracé_2387" data-name="Tracé 2387" class="cls-1" d="M99,2.82A2.82,2.82,0,0,0,96.19,0h0a2.83,2.83,0,0,0-2.83,2.82v30a2.83,2.83,0,1,0,5.65,0h0Z"/><path id="Tracé_2388" data-name="Tracé 2388" class="cls-1" d="M114.57,13.48a2.84,2.84,0,0,0-2.85-2.83h0a2.83,2.83,0,0,0-2.82,2.83V27.2A2.82,2.82,0,0,0,111.7,30h0a2.83,2.83,0,0,0,2.86-2.79V13.48Z"/><path id="Tracé_2389" data-name="Tracé 2389" class="cls-1" d="M130.11,21.27a2.83,2.83,0,0,0-5.65,0h0V27.2a2.82,2.82,0,0,0,2.8,2.83h0a2.83,2.83,0,0,0,2.83-2.83h0Z"/><path id="Tracé_2390" data-name="Tracé 2390" class="cls-1" d="M126.84,65.19v.36h-1v2.62h-.42V65.55h-1v-.36Z"/><path id="Tracé_2391" data-name="Tracé 2391" class="cls-1" d="M127.05,65.19h.65l.89,2.44h0l.86-2.44h.64v3h-.43V65.73h0l-.91,2.44h-.4l-.88-2.44h0v2.44h-.42Z"/></g></svg>