<svg id="Calque_1" data-name="Calque 1" xmlns="http://www.w3.org/2000/svg" viewBox="0 0 244.89 34.79"><defs><style>.cls-1{fill:#517bbd;}</style></defs><g id="Groupe_41576" data-name="Groupe 41576"><path id="Tracé_2392" data-name="Tracé 2392" class="cls-1" d="M60.76,5H48.65L44.71,25.73H57c10.7,0,15.52-5.3,16.46-10.27A7.84,7.84,0,0,0,72,8.77C70,6.28,66.16,5,60.76,5ZM66.32,15.3c-.62,3.25-3.48,4.83-8.74,4.83H52.35l1.8-9.48h5.39c3.21,0,5.31.58,6.25,1.72a3.38,3.38,0,0,1,.53,2.92Z"/><path id="Tracé_2393" data-name="Tracé 2393" class="cls-1" d="M77.93,5,74,25.73h6.58L84.51,5Z"/><path id="Tracé_2394" data-name="Tracé 2394" class="cls-1" d="M96.7,5,81.49,25.73H89l3.24-4.43h11.09l1.53,4.43h7.61L105.15,5ZM95.6,16.43l4.12-5.81H100l1.83,5.81Z"/><path id="Tracé_2395" data-name="Tracé 2395" class="cls-1" d="M140.57,5l-9.34,11.65L126.31,5h-8.85l-3.94,20.71H120l2.39-12.58,5.3,12.58h3.45l10.06-12.45-2.37,12.45h6.52L149.3,5Z"/><path id="Tracé_2396" data-name="Tracé 2396" class="cls-1" d="M161.59,5,146.37,25.73h7.51l3.25-4.43h11.09l1.53,4.43h7.6L170,5Zm-1.1,11.44,4.12-5.81h.27l1.83,5.81Z"/><path id="Tracé_2397" data-name="Tracé 2397" class="cls-1" d="M199.6,17.31,190.27,5h-7.93L178.4,25.73H185l2.49-13.11,10,13.11h7.06L208.46,5h-6.52Z"/><path id="Tracé_2398" data-name="Tracé 2398" class="cls-1" d="M236.41,5h-26l-1.07,5.63H219l-2.87,15.08h6.6l2.87-15.08h9.71Z"/><path id="Tracé_2399" data-name="Tracé 2399" class="cls-1" d="M238.31,5l-3.94,20.71H241L244.89,5Z"/><path id="Tracé_2400" data-name="Tracé 2400" class="cls-1" d="M27.42,0l7.26,9.06L20.76,26.31,6.85,9.06,9.76,5.45H22.58l2.64,3.4-8,9.9L20.65,23,32.23,8.69,25.14,0H7.31L0,9.06,20.76,34.79,41.52,9.06,34.21,0Z"/></g></svg>