<svg id="Calque_1" data-name="Calque 1" xmlns="http://www.w3.org/2000/svg" viewBox="0 0 203.29 62.42"><defs><style>.cls-1{fill:#517bbd;}</style></defs><g id="Groupe_758" data-name="Groupe 758"><path id="Tracé_2410" data-name="Tracé 2410" class="cls-1" d="M77,25.81H96.53v5.13H82.66V36.4H94.89v5.13H82.66v9.94H77Zm32.4,14.66V25.81h5.64V40.32c0,4.18,2.09,6.34,5.53,6.34s5.53-2.09,5.53-6.16V25.8h5.64V40.29c0,7.77-4.36,11.58-11.26,11.58S109.41,48,109.41,40.47Zm36.87-14.66H158a10.07,10.07,0,0,1,7.44,2.6,8,8,0,0,1,2.2,5.85v.08a8,8,0,0,1-5.49,8l6.26,9.17h-6.59l-5.5-8.22h-4.42v8.22h-5.64Zm11.35,12.46c2.74,0,4.32-1.47,4.32-3.63v-.06c0-2.41-1.68-3.66-4.43-3.66h-5.6v7.36Zm30.2,3.08L178,25.81h6.59l6.11,10.3,6.23-10.3h6.38l-9.85,15.43V51.46h-5.63ZM64.07,0a22.82,22.82,0,0,1-13,8.09c-8.7,1.92-20.26,3.36-27.4,5.18S-2.85,21.45.36,44A17.77,17.77,0,0,1,8.73,34c6.1-2.75,30.55-6.66,34.05-7.28S67,19.9,64.09,0Z"/><path id="Tracé_2411" data-name="Tracé 2411" class="cls-1" d="M53.35,26.66A34.93,34.93,0,0,1,38.21,33C22.5,35.55,2.25,36.8,3,47.73S19,62.77,24.87,62.4a23.63,23.63,0,0,0,16.5-9.09,39.48,39.48,0,0,1-11.93,3.5c-5.27.32-6.86-.15-7-2.66s2.88-3.91,7.38-4.2S54.48,44.23,53.35,26.66Z"/></g></svg>