<svg id="Calque_1" data-name="Calque 1" xmlns="http://www.w3.org/2000/svg" viewBox="0 0 288.67 45.21"><defs><style>.cls-1{fill:#517bbd;}</style></defs><g id="Groupe_41578" data-name="Groupe 41578"><g id="g710"><g id="Groupe_722" data-name="Groupe 722"><path id="path702" class="cls-1" d="M34,11.85h1.63L40.24,7.2l.22-2a20.92,20.92,0,0,0-34,10.2,2.6,2.6,0,0,1,1.63-.1l9.3-1.53s.47-.79.72-.74A11.61,11.61,0,0,1,34,11.84Z"/><path id="path704" class="cls-1" d="M46.87,15.43A21,21,0,0,0,40.55,5.24L34,11.77A11.65,11.65,0,0,1,38.29,21v1.16a5.81,5.81,0,1,1,0,11.62H26.66L25.5,34.94v7l1.16,1.16H38.29a15.11,15.11,0,0,0,8.58-27.63Z"/><path id="path706" class="cls-1" d="M15,43H26.65v-9.3H15a5.82,5.82,0,0,1-2.4-.52L11,33.68,6.31,38.33,5.9,40A15,15,0,0,0,15,43Z"/><path id="path708" class="cls-1" d="M15,12.82A15.11,15.11,0,0,0,5.9,39.91l6.74-6.74a5.81,5.81,0,1,1,7.69-7.69l6.74-6.74a15.11,15.11,0,0,0-12-5.93Z"/></g></g><g id="g728"><path class="cls-1" d="M84.51,20.07v4.18H94.3a8.67,8.67,0,0,1-2.24,5.07A10.91,10.91,0,0,1,76.79,13.73a10.74,10.74,0,0,1,15.09-.32l2.9-3A14.42,14.42,0,0,0,84.45,6.29a14.86,14.86,0,0,0-10.77,4.5l-.37.37A15.07,15.07,0,0,0,84.45,36.49,13.89,13.89,0,0,0,95,32.25a13.08,13.08,0,0,0,3.58-9.63,13.61,13.61,0,0,0-.17-2.55Z"/><path class="cls-1" d="M124.09,19.85a9.79,9.79,0,0,0,13.83,13.87h0a10,10,0,0,0,0-13.87A9.8,9.8,0,0,0,124.09,19.85ZM134.86,31l-.24.24h0a5.28,5.28,0,0,1-7.47-.24h0a6.25,6.25,0,0,1,0-8.44l.16-.16h0a5.37,5.37,0,0,1,7.59.16A6.26,6.26,0,0,1,134.86,31Z"/><path class="cls-1" d="M103.09,19.47a9.79,9.79,0,0,0,13.83,13.87h0a10,10,0,0,0,0-13.87A9.8,9.8,0,0,0,103.09,19.47Zm10.77,11.15c-.07.08-.16.16-.24.24h0a5.28,5.28,0,0,1-7.47-.25h0a6.25,6.25,0,0,1,0-8.44c0-.06.11-.11.16-.16h0a5.37,5.37,0,0,1,7.59.16A6.26,6.26,0,0,1,113.86,30.62Z"/><path class="cls-1" d="M161.12,17.71h-4.05v1.55h-.15a6.06,6.06,0,0,0-2.12-1.56,7.09,7.09,0,0,0-3-.66,8.85,8.85,0,0,0-6.53,2.85,9.84,9.84,0,0,0,0,13.73,8.84,8.84,0,0,0,6.53,2.84,6.23,6.23,0,0,0,5.1-2.2h.15v1.4a5.93,5.93,0,0,1-1.35,4.24,4.92,4.92,0,0,1-3.8,1.47,4.62,4.62,0,0,1-3.05-1A6.12,6.12,0,0,1,147,37.91l-3.72,1.55a10,10,0,0,0,3.16,4,8.58,8.58,0,0,0,5.44,1.73h0a9.17,9.17,0,0,0,6.63-2.53,10.17,10.17,0,0,0,2.6-7.59Zm-5.24,13.34a4.78,4.78,0,0,1-3.69,1.63h0A5.05,5.05,0,0,1,148.37,31a5.79,5.79,0,0,1-1.63-4.17,5.93,5.93,0,0,1,1.63-4.23A5,5,0,0,1,152.19,21a4.74,4.74,0,0,1,3.69,1.63,6.18,6.18,0,0,1,1.48,4.26A6.1,6.1,0,0,1,155.88,31.05Z"/><rect class="cls-1" x="164.07" y="7.38" width="4.26" height="28.53"/><path class="cls-1" d="M180,32.64a4.91,4.91,0,0,1-4.7-2.94l13.06-5.37-.44-1.11a11.43,11.43,0,0,0-1-1.91,11,11,0,0,0-1.63-2,7.62,7.62,0,0,0-2.5-1.63,8.27,8.27,0,0,0-3.26-.63A8.79,8.79,0,0,0,173,19.79a9.65,9.65,0,0,0-2.66,7,9.5,9.5,0,0,0,2.76,6.92A9.25,9.25,0,0,0,180,36.49h0a9,9,0,0,0,4.91-1.37,10.81,10.81,0,0,0,3.13-3L184.8,30A5.6,5.6,0,0,1,180,32.64Zm-3.86-10.26a5,5,0,0,1,3.5-1.55,4.47,4.47,0,0,1,2.24.57,3,3,0,0,1,1.36,1.48l-8.69,3.61h0A5.16,5.16,0,0,1,176.15,22.38Z"/><g id="g726"><path id="path716" class="cls-1" d="M210.68,36.49A13.44,13.44,0,0,1,197,23.28h0v-.54A13.45,13.45,0,0,1,210.13,9h.54a12.19,12.19,0,0,1,9.68,4.31L218,15.57a8.88,8.88,0,0,0-7.31-3.34,10,10,0,0,0-7.26,2.9,11.26,11.26,0,0,0,0,15.21,10,10,0,0,0,7.26,2.9,10.39,10.39,0,0,0,8.16-3.81l2.35,2.35a12.72,12.72,0,0,1-4.52,3.44A13.66,13.66,0,0,1,210.68,36.49Z"/><path id="path718" class="cls-1" d="M227.52,35.91h-3.38V9.55h3.38Z"/><path id="path720" class="cls-1" d="M233,20a9.46,9.46,0,0,1,13.31,0,10.29,10.29,0,0,1,0,13.71,9.44,9.44,0,0,1-13.31,0A10.29,10.29,0,0,1,233,20Zm2.51,11.59a5.69,5.69,0,0,0,8,.23l.22-.23a7.28,7.28,0,0,0,0-9.46,5.7,5.7,0,0,0-8-.22c-.08.07-.15.15-.22.22a7.23,7.23,0,0,0,0,9.45Z"/><path id="path722" class="cls-1" d="M267.68,35.91h-3.26v-2.5h-.1a6.27,6.27,0,0,1-2.38,2.25,6.68,6.68,0,0,1-3.35.9,6.35,6.35,0,0,1-5.12-2.06A8.13,8.13,0,0,1,251.72,29V17.89h3.38V28.37q0,5,4.45,5A4.17,4.17,0,0,0,263,31.78a6.14,6.14,0,0,0,1.33-3.9v-10h3.38v18Z"/><path id="path724" class="cls-1" d="M279.16,36.49a7.94,7.94,0,0,1-6-2.75,10.5,10.5,0,0,1,0-13.68,7.92,7.92,0,0,1,6-2.76,7.6,7.6,0,0,1,3.68.88,6.19,6.19,0,0,1,2.45,2.2h.15l-.15-2.5V9.54h3.38V35.91h-3.26v-2.5h-.15a6.19,6.19,0,0,1-2.45,2.2A7.6,7.6,0,0,1,279.16,36.49Zm.55-3.08a5.41,5.41,0,0,0,4.07-1.76,7.75,7.75,0,0,0,0-9.5,5.51,5.51,0,0,0-7.79-.37h0c-.13.11-.25.24-.37.36a7.7,7.7,0,0,0,0,9.47,5.4,5.4,0,0,0,4.09,1.8Z"/></g></g></g></svg>