<svg id="Calque_1" data-name="Calque 1" xmlns="http://www.w3.org/2000/svg" viewBox="0 0 261.53 53.6"><defs><style>.cls-1{fill:#517bbd;}</style></defs><g id="Groupe_41581" data-name="Groupe 41581"><path id="Tracé_2320" data-name="Tracé 2320" class="cls-1" d="M256,33.49V27.72c0-1.84-1.48-2.89-3.59-2.89s-3.6,1.62-3.6,4.08V32.3c0,2.46,1.48,4.08,3.6,4.08S256,35.25,256,33.49Zm0,3.6h-.14a5.41,5.41,0,0,1-5.28,3.73c-4.94,0-7.55-3.59-7.55-10.21s2.61-10.22,7.55-10.22a5.33,5.33,0,0,1,5.28,3.67H256V12.79h5.57V40.4H256Zm-22.62,0h-.22c-.63,2-2.25,3.73-5.5,3.73-4,0-6.06-2.82-6.06-7.75V20.82h5.5V32.65c0,2.32.77,3.73,2.82,3.73,1.69,0,3.45-1,3.45-2.89V20.82h5.5V40.4h-5.5Zm-21.22-4.51v-4c0-2.39-1.26-3.88-3.45-3.88s-3.45,1.49-3.45,3.88v4c0,2.46,1.27,3.87,3.45,3.87S212.12,35,212.12,32.58Zm-12.61-2c0-6.34,3.45-10.22,9.16-10.22s9.16,3.88,9.16,10.22-3.38,10.21-9.16,10.21-9.17-4-9.17-10.21Zm-4.58,9.79c-3.81,0-5.5-1.9-5.5-5.43V12.79h5.49V36.1h2.47v4.3ZM164.48,27.58c0-8.8,4.51-13.66,11.48-13.66,4.8,0,7.83,2,9.73,6.12l-4.86,2.54c-.71-2.18-2-3.67-4.86-3.67-3.31,0-5.5,2.26-5.5,6.34v4.23c0,4.08,2.19,6.34,5.5,6.34a5.36,5.36,0,0,0,5.21-3.88l4.58,2.68a10.1,10.1,0,0,1-9.8,6.2C169,40.82,164.48,36.38,164.48,27.58Zm-15.72-9.09h-.21l-2.19,4.3-6.2,11.34L134,22.79l-2.18-4.3h-.21v21.9h-3v-26h4.08l7.47,14h.14l7.47-14h4.09V40.4h-3ZM107.32,37.65H115c2.68,0,4.37-1.48,4.37-4.09V32.3c0-2.61-1.69-4-4.37-4h-7.68Zm0-12h7.19c2.46,0,3.95-1.26,3.95-3.59V20.75c0-2.33-1.49-3.6-3.95-3.6h-7.19Zm-3.17-11.26h10.71c4.3,0,6.91,2.67,6.91,6.76,0,3.87-2.47,5.21-4.16,5.49v.21a5.68,5.68,0,0,1,5.07,6.06c0,4.3-2.89,7.54-6.69,7.54H104.15ZM88,40.39v-2.6h3.66V16.94H88v-2.6H98.44v2.6H94.78V37.79h3.66v2.6Z"/><path id="Shape" class="cls-1" d="M8,21.4a1.21,1.21,0,0,1-.55-.16L2.07,18.12a1.22,1.22,0,0,1-.56-1.42A1.14,1.14,0,0,1,3,16H3a.66.66,0,0,1,.19.09L8.5,19.23A1.21,1.21,0,0,1,9,20.76,1.16,1.16,0,0,1,8,21.4ZM17.2,12a1.15,1.15,0,0,1-1-.56L13.13,6a1.19,1.19,0,0,1,.21-1.5,1.1,1.1,0,0,1,1.55.08h0l0,0,.13.17,3.08,5.39a1.19,1.19,0,0,1-.3,1.57,1.11,1.11,0,0,1-.64.21ZM28.68,7.36V1.22A1.2,1.2,0,0,1,29.78,0a1.13,1.13,0,0,1,.82.3,1.09,1.09,0,0,1,.36.81V7.43a1.13,1.13,0,0,1-1.13,1.15h0a1.2,1.2,0,0,1-1.1-1.22ZM42.43,12a1.13,1.13,0,0,1-.64-.2,1.2,1.2,0,0,1-.29-1.58l3.08-5.41a1.14,1.14,0,0,1,1.55-.43h0l.16.12A1.2,1.2,0,0,1,46.51,6l-3.08,5.42a1.16,1.16,0,0,1-1,.58Zm9.24,9.39a1.15,1.15,0,0,1-1-.61,1.2,1.2,0,0,1,.49-1.56l5.3-3.1a1.14,1.14,0,0,1,1.37,1.81h0l0,0a.61.61,0,0,1-.16.12l-5.4,3.17a1.13,1.13,0,0,1-.57.15ZM15.45,47.56a20.76,20.76,0,0,1-5.09-20.69A20.41,20.41,0,0,1,26.1,12.72a20.2,20.2,0,0,1,19.68,7.57c.34.45.67.92,1,1.39l-1.89,1.26q-.4-.63-.87-1.23a18,18,0,0,0-31.54,5.8A18.45,18.45,0,0,0,17,45.93Zm28.85,6H13a13,13,0,0,1-9.26-4A13.38,13.38,0,0,1,0,40.18H2.26A11.09,11.09,0,0,0,5.37,48,10.76,10.76,0,0,0,13,51.29H44.28a13.22,13.22,0,0,0,12.15-7.91,13.55,13.55,0,0,0-2.25-14.46l1.65-1.52a15.89,15.89,0,0,1,2.59,16.9,15.52,15.52,0,0,1-14.17,9.3Zm-42-13.37H0a13.22,13.22,0,0,1,10.94-13l.37,2.24a11,11,0,0,0-9,10.79ZM31,37.76H28.76a15.71,15.71,0,0,1,10-14.59,15.38,15.38,0,0,1,17.05,4.21L54.19,28.9a13.12,13.12,0,0,0-14.6-3.67A13.4,13.4,0,0,0,31,37.76Z"/></g></svg>