<svg id="Calque_1" data-name="Calque 1" xmlns="http://www.w3.org/2000/svg" viewBox="0 0 163.86 63.5"><defs><style>.cls-1{fill:#517bbd;}</style></defs><g id="Groupe_41573" data-name="Groupe 41573"><path id="Tracé_2333" data-name="Tracé 2333" class="cls-1" d="M93.41,17.35h7.12v8.07c0,.9-.12,2.21-.21,3.2h.17a23.34,23.34,0,0,1,1.8-2.69l7-8.58H117l-9.39,11.31,9.9,17.49h-8.19l-6.66-12.07-2.13,2.6v9.47H93.41Zm31.06,19.76c-.76,2.77.81,4.52,3.2,4.52,2.69,0,4.06-2.13,4.06-5.16,0-3.25-1.63-4.48-3.8-4.48a5.15,5.15,0,0,0-3.54,1.36L121.31,30l8.92-7.38H119.65V17.35h17.71v5.59l-6.83,5.63c4.35-.42,8.49,2.43,8.49,8,0,6-4.91,10.11-11.09,10.11-5.85,0-10.75-3.62-9.48-8.7Zm23.39-.43c-.52,2.3.38,5,4.9,5,3,0,4-1.2,4-2.78,0-2.38-2.39-3-5.2-4-4.22-1.46-9.43-3.5-9.43-9.52,0-5.38,4.14-8.66,11.18-8.49,8.62.17,11.05,5.25,10.11,9.64l-6.53.6c.43-3.33-.76-5.2-4.13-5.2-2.26,0-3.55.85-3.55,2.64,0,2.39,2.3,3.12,5.12,4.1,4.36,1.45,9.52,3.2,9.52,9.17,0,5.17-3.84,8.88-11.35,8.88-7,0-11.86-3.24-10.88-9.39Z"/><path id="Tracé_2334" data-name="Tracé 2334" class="cls-1" d="M69.33,0H8.21A8.23,8.23,0,0,0,0,8.21V55.29A8.23,8.23,0,0,0,8.21,63.5H69.33a8.22,8.22,0,0,0,8.2-8.21V8.21A8.22,8.22,0,0,0,69.33,0ZM32.76,46.17,17.84,54.84a4,4,0,0,1-4-6.9l14.92-8.67a4,4,0,0,1,5.46,1.45h0a4,4,0,0,1-1.44,5.45ZM38.63,33h0a4,4,0,0,1-4-4h0l.07-17.19a4,4,0,0,1,4-4h0a4,4,0,0,1,4,4L42.62,29a4,4,0,0,1-4,4ZM65,53.39a4,4,0,0,1-5.45,1.46h0L44.63,46.22a4,4,0,0,1-1.46-5.45h0a4,4,0,0,1,5.45-1.46h0l14.93,8.62A4,4,0,0,1,65,53.38h0Z"/></g></svg>