<svg id="Calque_1" data-name="Calque 1" xmlns="http://www.w3.org/2000/svg" viewBox="0 0 142.72 72.96"><defs><style>.cls-1{fill:#517bbd;}</style></defs><g id="Groupe_41582" data-name="Groupe 41582"><path id="Tracé_2340" data-name="Tracé 2340" class="cls-1" d="M86,31H55.07V0H86ZM57.77,28.24H83.31V2.71H57.77Z"/><path id="Tracé_2341" data-name="Tracé 2341" class="cls-1" d="M75.67,20.94l6.22-.1L82,27.05l-6.21.1ZM68.3,21,74.51,21l.1,6.22-6.22.09Zm7.27-7.3,6.22-.09.09,6.22L75.67,20ZM.46,73,0,42.08,7.48,42l3.6,20.54,3.24-20.64,7.22-.11L22,72.64l-4.6.07L16.94,51q-.47,3.36-1.64,10.89T13.66,72.76L9,72.83,4.88,51l.19,21.86Zm24.37-.37-.46-30.87,12.88-.19.07,4.29-6.64.1.12,8.4,4.71-.07.06,4.39-4.7.07.14,9.5,6.64-.1.06,4.29Zm19.45-.28L43.89,46.1l-4.53.06L39.3,41.5l15.21-.23.07,4.67L50.14,46l.39,26.21Zm9-.14,6.22-31L65,41.11l7.11,30.78L66,72,64.62,65.4l-4,.06-1.1,6.62ZM61,61.61l3.19,0L62.42,50.13ZM74.1,71.86,73.64,41l6.24-.1.4,26.59,6.14-.09.07,4.29Zm14.51-.21-.46-30.88,6.25-.09.17,11.71L99.23,40.6l7-.1-6.11,12.74,7,18.13-6.49.1-4.87-14-1.09,2.93.17,11.2ZM110,55a9.07,9.07,0,0,1-2.36-6.57,9.15,9.15,0,0,1,1.92-6.29,7.41,7.41,0,0,1,5.88-2.38A7.31,7.31,0,0,1,121.37,42a9.2,9.2,0,0,1,2.09,6.22q.06,4.34-2.15,6.64a6.48,6.48,0,0,1,2.24,3.27A10.84,10.84,0,0,1,124,60a18,18,0,0,1,.14,2.08,15.51,15.51,0,0,1-.38,3.9,9,9,0,0,1-1.34,3,5.86,5.86,0,0,1-2.55,2,10.15,10.15,0,0,1-3.89.74q-8.3.14-8.45-9.46a15.13,15.13,0,0,1,.47-4.24A6.2,6.2,0,0,1,110,55ZM115,66.78a2.59,2.59,0,0,0,1.82,0,2.13,2.13,0,0,0,.65-.42,1.89,1.89,0,0,0,.43-.65,5.56,5.56,0,0,0,.26-.75,5.08,5.08,0,0,0,.12-.86c0-.36,0-.63,0-.81v-.77q-.08-5.09-2.55-5c-1.65,0-2.46,1.73-2.41,5.11,0,.32,0,.58,0,.78s0,.47.07.82a6.17,6.17,0,0,0,.15.84,4.38,4.38,0,0,0,.29.74,2,2,0,0,0,.45.65,2.21,2.21,0,0,0,.66.39Zm.7-14a1.38,1.38,0,0,0,.71-.22,1.9,1.9,0,0,0,.51-.51,2.29,2.29,0,0,0,.33-.79,8,8,0,0,0,.19-.89,7.93,7.93,0,0,0,.09-1c0-.39,0-.68,0-.88v-.79q0-3.33-2-3.3a1.69,1.69,0,0,0-1,.35,2,2,0,0,0-.6.91,6.5,6.5,0,0,0-.24,1.06,7.18,7.18,0,0,0-.05,1c0,.36,0,.68,0,.94s0,.62.08,1.05a7.23,7.23,0,0,0,.2,1.13,8.8,8.8,0,0,0,.35.93,1.72,1.72,0,0,0,.57.71,1.4,1.4,0,0,0,.82.23ZM126,62.25l6.32-1.31c0,.63,0,1.18.05,1.66s.11,1,.2,1.57a5.51,5.51,0,0,0,.42,1.38,2.27,2.27,0,0,0,.72.9,1.6,1.6,0,0,0,1.07.36c1.24,0,1.84-.82,1.82-2.4q0-3.24-3.75-6.4l-2-1.62c-.63-.5-1.12-.92-1.5-1.26a17,17,0,0,1-1.31-1.37,8.9,8.9,0,0,1-1.19-1.67,9.12,9.12,0,0,1-.75-2,9.44,9.44,0,0,1-.34-2.43,7.7,7.7,0,0,1,2.3-6,9,9,0,0,1,6.3-2.28A7.55,7.55,0,0,1,140,41.69a7.68,7.68,0,0,1,2.38,5.6V48L136,49c0-.12,0-.32,0-.59s0-.49,0-.66a6.83,6.83,0,0,0-.1-1.19,5.45,5.45,0,0,0-.3-1.12,1.92,1.92,0,0,0-.62-.89,1.46,1.46,0,0,0-1-.32,1.7,1.7,0,0,0-1.53.82A3.43,3.43,0,0,0,132,47a5.56,5.56,0,0,0,.33,1.8,5,5,0,0,0,.93,1.55,16.16,16.16,0,0,0,1.14,1.2c.35.31.81.7,1.39,1.15l1.24,1a27,27,0,0,1,2.26,2.15A16.91,16.91,0,0,1,141,58.12a10.27,10.27,0,0,1,1.25,2.76,12.51,12.51,0,0,1,.45,3.22,6.78,6.78,0,0,1-2.24,5.34,8.14,8.14,0,0,1-5.6,2.15,8.68,8.68,0,0,1-3.82-.73,7.15,7.15,0,0,1-2.71-2.1,10.65,10.65,0,0,1-1.62-3,12.84,12.84,0,0,1-.68-3.52Z"/></g></svg>