<svg id="Calque_1" data-name="Calque 1" xmlns="http://www.w3.org/2000/svg" viewBox="0 0 164.17 30.6"><defs><style>.cls-1{fill:#517bbd;}</style></defs><path id="Tracé_2346" data-name="Tracé 2346" class="cls-1" d="M13.45,26.09q-.52-1.24-1.08-2.49l-1.45-3.21c-.51-1.15-1.07-2.36-1.6-3.6s-1.15-2.41-1.61-3.51-1-2.09-1.44-3-.83-1.6-1.08-2c-.3,3.21-.55,6.69-.74,10.42S4.1,26.24,4,30H0c.11-2.44.22-4.91.37-7.4s.28-4.93.46-7.34.37-4.81.58-7,.42-4.45.68-6.43H5.55C6.28,3,7.06,4.41,7.91,6s1.61,3.34,2.52,5.11,1.6,3.57,2.46,5.35L15,21.31c.65-1.47,1.38-3.08,2.17-4.82s1.6-3.56,2.44-5.35S21.33,7.66,22.18,6s1.61-3,2.37-4.24H28Q29.41,15.46,30.1,30H26.21q-.2-5.71-.48-11.24Q25.48,13.58,25,8.38c-.28.45-.63,1.12-1.08,2s-.93,1.86-1.44,3-1.08,2.27-1.61,3.51-1.14,2.44-1.6,3.6l-1.45,3.22c-.37.82-.74,1.65-1.09,2.48ZM37.52,5a2.42,2.42,0,0,1-1.73-.68,2.66,2.66,0,0,1,0-3.62,2.54,2.54,0,0,1,3.46,0,2.66,2.66,0,0,1,0,3.62A2.39,2.39,0,0,1,37.52,5Zm1.91,25H35.64V8.8h3.79Zm15.34.48a11.56,11.56,0,0,1-4.51-.82A9.17,9.17,0,0,1,47,27.39a9.33,9.33,0,0,1-2-3.48,14.52,14.52,0,0,1-.71-4.48,13.26,13.26,0,0,1,.72-4.5,10.3,10.3,0,0,1,2-3.53,8.94,8.94,0,0,1,3.2-2.31,10.28,10.28,0,0,1,4.23-.84,17.32,17.32,0,0,1,2.78.26,13.05,13.05,0,0,1,2.73.77l-.85,3.21a9.27,9.27,0,0,0-1.88-.64,10.57,10.57,0,0,0-2.38-.24,6.05,6.05,0,0,0-4.82,2,8.86,8.86,0,0,0-1.8,5.83,11.62,11.62,0,0,0,.39,3.21,6.39,6.39,0,0,0,1.22,2.46,5.54,5.54,0,0,0,2.14,1.6,7.91,7.91,0,0,0,3.22.56A12.53,12.53,0,0,0,58,27a11.79,11.79,0,0,0,1.91-.61l.53,3.21a4.66,4.66,0,0,1-.93.38,11.37,11.37,0,0,1-1.4.33l-1.61.26a15,15,0,0,1-1.77-.05ZM71.93,8.36a10.65,10.65,0,0,1,1.13,0,10.42,10.42,0,0,1,1.25.16l1.13.19a6.37,6.37,0,0,1,.75.2l-.66,3.3a11.94,11.94,0,0,0-4.16-.62,10.62,10.62,0,0,0-2.1.22l-1.36.31V29.94h-3.8V9.7a24.33,24.33,0,0,1,3.34-.93,22.51,22.51,0,0,1,4.48-.42ZM98.17,19.44a13.47,13.47,0,0,1-.7,4.54,10.3,10.3,0,0,1-2.09,3.48,9.08,9.08,0,0,1-3.21,2.27,10.54,10.54,0,0,1-8,0,9,9,0,0,1-3.21-2.27A10.41,10.41,0,0,1,78.87,24a14.37,14.37,0,0,1,0-9.12,10.13,10.13,0,0,1,2.18-3.43,9,9,0,0,1,3.22-2.27,10.54,10.54,0,0,1,8,0,9,9,0,0,1,3.21,2.27,10.37,10.37,0,0,1,2,3.45,13.58,13.58,0,0,1,.7,4.56Zm-3.91,0a9.16,9.16,0,0,0-1.61-5.69,5.62,5.62,0,0,0-7.9-.87h0a6,6,0,0,0-.87.87,9.07,9.07,0,0,0-1.6,5.69,9,9,0,0,0,1.6,5.68,5.62,5.62,0,0,0,7.9.87,6,6,0,0,0,.87-.87,9.15,9.15,0,0,0,1.6-5.69Zm30-17.67c-.84.93-1.78,2-2.86,3.08s-2.17,2.28-3.32,3.47l-3.44,3.45L111.44,15a36.53,36.53,0,0,1,3.7,3c1.32,1.2,2.58,2.48,3.83,3.84s2.43,2.75,3.53,4.16a38.17,38.17,0,0,1,2.75,4h-4.64a42.8,42.8,0,0,0-2.83-3.85q-1.59-1.93-3.35-3.71a35.38,35.38,0,0,0-3.6-3.22,31.7,31.7,0,0,0-3.52-2.57V30.06h-4V1.76h4V14.24c1-.89,2-1.91,3.21-3s2.28-2.27,3.39-3.4l3.21-3.22c.86-.9,1.7-1.82,2.51-2.76Zm21.58,20.88a8.2,8.2,0,0,1-.59,3.21,7.1,7.1,0,0,1-1.75,2.54,8.27,8.27,0,0,1-2.92,1.6,12.86,12.86,0,0,1-4,.59,11.41,11.41,0,0,1-4.44-.75,8.34,8.34,0,0,1-2.82-1.91,6.56,6.56,0,0,1-1.51-2.5,8.15,8.15,0,0,1-.45-2.59,6.92,6.92,0,0,1,.38-2.26,9.42,9.42,0,0,1,1-2,9.37,9.37,0,0,1,1.48-1.6A12.86,12.86,0,0,1,132,15.61a7.28,7.28,0,0,1-4-6.78,7.17,7.17,0,0,1,.61-3,7.26,7.26,0,0,1,1.75-2.5,8.29,8.29,0,0,1,2.7-1.6,9.57,9.57,0,0,1,3.55-.63,9.93,9.93,0,0,1,3.92.63,8.1,8.1,0,0,1,2.68,1.76,7.17,7.17,0,0,1,1.51,2.4,7.75,7.75,0,0,1,.46,2.53,6.8,6.8,0,0,1-.35,2.23,8.45,8.45,0,0,1-2.28,3.51,12,12,0,0,1-1.6,1.24,7.68,7.68,0,0,1,4.93,7.21Zm-14.66.25a4.65,4.65,0,0,0,.26,1.61,3.83,3.83,0,0,0,.91,1.46A5.51,5.51,0,0,0,134,27.1a6.6,6.6,0,0,0,2.57.45,7,7,0,0,0,2.44-.4,5.07,5.07,0,0,0,1.68-1,4.31,4.31,0,0,0,1-1.44,5,5,0,0,0,.32-1.61,4.77,4.77,0,0,0-1.9-4,8.13,8.13,0,0,0-2.2-1.25,21.36,21.36,0,0,0-2.92-.89,8,8,0,0,0-2.83,2.54,6.25,6.25,0,0,0-.93,3.44Zm10.2-14.45a4.29,4.29,0,0,0-1.11-2.71,4.8,4.8,0,0,0-1.46-1.06,5.08,5.08,0,0,0-2.21-.44,5.62,5.62,0,0,0-2.22.42,4.67,4.67,0,0,0-1.5,1,4.06,4.06,0,0,0-.83,1.4,4.44,4.44,0,0,0-.26,1.48,5.21,5.21,0,0,0,.32,1.8,5.12,5.12,0,0,0,1,1.61,7.26,7.26,0,0,0,1.81,1.4,12.12,12.12,0,0,0,2.68,1A9.37,9.37,0,0,0,140.35,12a6,6,0,0,0,1-3.52Zm14.5,18.82a7.3,7.3,0,0,0,3.45-.61,2.06,2.06,0,0,0,1.11-2,2.65,2.65,0,0,0-1.09-2.2,17.41,17.41,0,0,0-3.63-1.83c-.82-.34-1.6-.66-2.34-1a8.61,8.61,0,0,1-1.94-1.2,5.12,5.12,0,0,1-1.81-4.08,5.38,5.38,0,0,1,2.09-4.46,8.82,8.82,0,0,1,5.67-1.61c.6,0,1.2,0,1.8.1a8,8,0,0,1,1.61.24c.45.1,1,.2,1.36.3l.92.29-.7,3.21a10,10,0,0,0-1.92-.68,12.39,12.39,0,0,0-3.21-.34,5.88,5.88,0,0,0-2.79.63,2.08,2.08,0,0,0-1.17,2,2.55,2.55,0,0,0,1.08,2.18,7.54,7.54,0,0,0,1.37.8c.55.24,1.19.49,1.95.77s1.9.76,2.69,1.12a8.26,8.26,0,0,1,2,1.29A4.74,4.74,0,0,1,163.7,22a6.35,6.35,0,0,1,.44,2.55,5,5,0,0,1-2,4.53,10.85,10.85,0,0,1-6.22,1.51,16.72,16.72,0,0,1-4.4-.47c-1.07-.32-1.79-.56-2.17-.72l.69-3.21,2.09.73a12,12,0,0,0,3.78.35Z"/></svg>