<svg id="Calque_1" data-name="Calque 1" xmlns="http://www.w3.org/2000/svg" viewBox="0 0 208.2 69.89"><defs><style>.cls-1{fill:#517bbd;}</style></defs><g id="Groupe_41580" data-name="Groupe 41580"><path id="Tracé_2304" data-name="Tracé 2304" class="cls-1" d="M76.42,63.93A10.92,10.92,0,0,1,65.35,53.17V53A10.93,10.93,0,0,1,76.21,42h.21A11,11,0,0,1,87.53,52.76V53a11,11,0,0,1-10.92,11Zm0-19a7.78,7.78,0,0,0-7.82,7.75,2.62,2.62,0,0,0,0,.28,7.78,7.78,0,0,0,7.54,8h.27a7.83,7.83,0,0,0,7.85-7.82,1.27,1.27,0,0,0,0-.2,7.82,7.82,0,0,0-7.6-8Z"/><path id="Tracé_2305" data-name="Tracé 2305" class="cls-1" d="M90.56,48.12h3v1.49a7,7,0,0,1,4.75-1.73,7.8,7.8,0,0,1,7.81,7.8v.16a7.85,7.85,0,0,1-7.71,8h-.17a7.73,7.73,0,0,1-4.65-1.52v7.57h-3Zm3,4.26v7a5.68,5.68,0,0,0,4.32,1.82,5.15,5.15,0,0,0,5.23-5.07v-.25a5.2,5.2,0,0,0-5.05-5.34h-.18a5.55,5.55,0,0,0-4.32,1.86Z"/><path id="Tracé_2306" data-name="Tracé 2306" class="cls-1" d="M116.5,63.87a8,8,0,0,1-8.12-7.82v-.21a7.77,7.77,0,0,1,7.58-8h.17c4.26,0,7.48,3.52,7.48,8.08v.88H111.39a5.21,5.21,0,0,0,5.23,4.44,6,6,0,0,0,3.92-1.35l1.95,1.92A9.24,9.24,0,0,1,116.5,63.87Zm-5.08-9.3h9.18a4.61,4.61,0,0,0-9.18,0Z"/><path id="Tracé_2307" data-name="Tracé 2307" class="cls-1" d="M126.5,48.12h3v1.55a6.39,6.39,0,0,1,4.66-1.86,5.79,5.79,0,0,1,6.05,5.5V63.6h-3V54.38a3.62,3.62,0,0,0-3.83-3.93,4.39,4.39,0,0,0-3.84,2V63.59h-3Z"/><path id="Tracé_2308" data-name="Tracé 2308" class="cls-1" d="M144.14,57.82a10.25,10.25,0,0,0,7.33,3.35c3.07,0,5.17-1.47,5.17-3.56,0-1.89-1.22-2.83-4.32-3.35l-3.56-.58C144.87,53,143,51.21,143,48.14c0-3.71,3.1-6.11,7.85-6.11a14.27,14.27,0,0,1,8.57,2.89l-1.75,2.43a11.36,11.36,0,0,0-7-2.61c-2.77,0-4.62,1.27-4.62,3.16,0,1.73,1.06,2.55,3.8,3l3.42.54c4.5.73,6.53,2.59,6.53,5.9,0,3.93-3.4,6.54-8.47,6.54a12.88,12.88,0,0,1-9.13-3.83Z"/><path id="Tracé_2309" data-name="Tracé 2309" class="cls-1" d="M162.38,42.31l3-.67v8a6.37,6.37,0,0,1,4.65-1.86,5.78,5.78,0,0,1,6.05,5.5,5.23,5.23,0,0,1,0,.56V63.6h-3V54.38a3.59,3.59,0,0,0-3.25-3.92,3.75,3.75,0,0,0-.58,0,4.37,4.37,0,0,0-3.83,2V63.59h-3Z"/><path id="Tracé_2310" data-name="Tracé 2310" class="cls-1" d="M179.28,43.74a1.86,1.86,0,0,1,1.86-1.88h0a1.88,1.88,0,1,1,.15,3.76h-.15a1.86,1.86,0,0,1-1.86-1.88Zm3.38,19.86h-3V48.12h3Z"/><path id="Tracé_2311" data-name="Tracé 2311" class="cls-1" d="M188.55,48.12V45.78c0-3.22,1.86-5,5.27-5a7.75,7.75,0,0,1,2.19.28v2.64a6.23,6.23,0,0,0-1.92-.27c-1.67,0-2.49.76-2.49,2.4v2.28H196v2.55H191.6V63.6h-3V50.67H185V48.12Z"/><path id="Tracé_2312" data-name="Tracé 2312" class="cls-1" d="M200.63,50.67h-3.28V48.12h3.28V44.17l3-.73v4.67h4.56v2.56h-4.56v8.38c0,1.59.64,2.16,2.28,2.16a6,6,0,0,0,2.22-.36V63.4a10.09,10.09,0,0,1-2.89.46c-3,0-4.62-1.43-4.62-4.09Z"/><g id="Groupe_731" data-name="Groupe 731"><path id="Tracé_2313" data-name="Tracé 2313" class="cls-1" d="M36.49,30.25a37.79,37.79,0,0,1-12-2,37.81,37.81,0,0,0,12,2c6,0,10.65-2.27,10.65-6.37a14.2,14.2,0,0,0-.5-3h0a14.19,14.19,0,0,1,.5,3C47.14,28,42.54,30.25,36.49,30.25Z"/><path id="Tracé_2314" data-name="Tracé 2314" class="cls-1" d="M46.65,20.92a14.2,14.2,0,0,1,.5,3c0,4.1-4.6,6.37-10.65,6.37a37.81,37.81,0,0,1-12-2C18,26,13,22.31,11.38,19A4.87,4.87,0,0,1,10.84,17a5.43,5.43,0,0,1,.44-2.14C6.37,15.06,0,15.94,0,21.55c0,9.2,21.81,20.54,39.08,20.54,13.23,0,16.57-6,16.57-10.71C55.65,27.66,52.44,23.44,46.65,20.92Z"/><path id="Tracé_2315" data-name="Tracé 2315" class="cls-1" d="M12.28,12.73c0,2.7,10.62,11.53,24.85,11.53,3.66,0,8.95-.75,8.95-5.1a4.23,4.23,0,0,0-.09-1L43.81,8.7c-.5-2.08-.94-3-4.6-4.85C36.37,2.4,30.19,0,28.36,0s-2.21,2.2-4.23,2.2S20.73.56,18.9.56,16,1.76,15.12,4.22c0,0-2.46,6.93-2.77,7.94v0A1.78,1.78,0,0,0,12.28,12.73Z"/><path id="Tracé_2317" data-name="Tracé 2317" class="cls-1" d="M12.35,12.16v0a1.67,1.67,0,0,0-.07.54A1.76,1.76,0,0,1,12.35,12.16Z"/><path id="Tracé_2318" data-name="Tracé 2318" class="cls-1" d="M11.38,19C13,22.31,18,26,24.48,28.23,18,26,13,22.31,11.38,19Z"/></g><path id="Tracé_2319" data-name="Tracé 2319" class="cls-1" d="M169.36,27c0,3.48,2.09,5.17,5.9,5.17a15.06,15.06,0,0,0,3.47-.5v-4a7.07,7.07,0,0,1-2.24.33c-1.57,0-2.15-.49-2.15-2V19.82h4.55V15.66h-4.55V10.4l-5,1.08v4.18h-3.31v4.15h3.3Zm-15.5.09c0-1.07,1.07-1.6,2.7-1.6a12.83,12.83,0,0,1,3,.37v2.09a6.23,6.23,0,0,1-3.1.77c-1.6,0-2.56-.61-2.56-1.63m1.52,5.14A7.58,7.58,0,0,0,159.87,31v1h4.92V21.51c0-4-2.67-6.14-7.13-6.14a18.06,18.06,0,0,0-7.6,1.78l1.78,3.66a13.44,13.44,0,0,1,4.93-1.29c2,0,3.1.8,3.1,2.43v.8a14.41,14.41,0,0,0-3.69-.46c-4.19,0-6.7,1.75-6.7,4.89,0,2.86,2.27,5,5.9,5m-27-.28h5.29V23.51h8.85v8.42h5.29V10.41h-5.27v8.27h-8.85V10.41h-5.29Zm-20.14-8.15a4.12,4.12,0,0,1,4.12-4.13h.15a5.08,5.08,0,0,1,3.45,1.27V26.6a4.78,4.78,0,0,1-3.45,1.29,4.14,4.14,0,0,1-4.27-4v-.12M116,31.92h4.92V9.33l-5,1.08v6.12a8.47,8.47,0,0,0-12.6,7.08,1.09,1.09,0,0,0,0,.18,8.27,8.27,0,0,0,8.15,8.37h.15A7.38,7.38,0,0,0,116,30.74ZM93.42,19.44A3.61,3.61,0,0,1,96.84,22H90.05a3.38,3.38,0,0,1,3.38-2.58M85,23.81a8.55,8.55,0,0,0,8.65,8.44h.21a9.78,9.78,0,0,0,6.8-2.46l-3.3-2.92a4.42,4.42,0,0,1-3.25,1.23,4.2,4.2,0,0,1-4-2.59h11.59V24.28c0-5.17-3.48-8.89-8.21-8.89A8.35,8.35,0,0,0,85,23.62v.2m-8.58-8.89a2.47,2.47,0,0,1,2.72,2.18,2.09,2.09,0,0,1,0,.25,2.47,2.47,0,0,1-2.48,2.45l-.25,0H71.23V14.93Zm-10.53,17h5.29V24.09h4l4.06,7.84h5.9l-4.74-8.61a6.52,6.52,0,0,0,4.06-6.06c0-3.87-3-6.86-7.6-6.86h-11Z"/></g></svg>