<svg id="Calque_1" data-name="Calque 1" xmlns="http://www.w3.org/2000/svg" viewBox="0 0 176.39 22.11"><defs><style>.cls-1{fill:#517bbd;}</style></defs><path id="Oracle_Cloud_Platform-Logo.wine" data-name="Oracle Cloud Platform-Logo.wine" class="cls-1" d="M73.41,14.38H84.65L78.71,4.82,67.81,22.11h-5L76.11,1.35A3.13,3.13,0,0,1,78.71,0a3.08,3.08,0,0,1,2.55,1.31l13.32,20.8h-5l-2.34-3.86H75.89ZM125,18.25V.21h-4.21V20a2.08,2.08,0,0,0,.61,1.47,2.16,2.16,0,0,0,1.54.63h19.2l2.48-3.87ZM55.29,15a7.4,7.4,0,0,0,7.45-7.35h0A7.41,7.41,0,0,0,55.38.21H36.86v21.9h4.21v-18H55a3.55,3.55,0,0,1,3.55,3.55h0A3.56,3.56,0,0,1,55,11.17l-11.87,0,12.57,11h6.11L53.37,15ZM11,22.11a11,11,0,0,1,0-21.9H23.67a11,11,0,0,1,0,21.9H11Zm12.44-3.86a7.09,7.09,0,1,0,.09-14.17H11.23a7.09,7.09,0,1,0-.09,14.17H23.39Zm80,3.86a10.95,10.95,0,1,1,0-21.89h15.11L116,4.08H103.64a7.09,7.09,0,1,0-.08,14.17h15.27l-2.48,3.86Zm51.5-3.86a7.08,7.08,0,0,1-6.82-5.16h18l2.48-3.86H148.05a7.1,7.1,0,0,1,6.82-5.15h12.35l2.5-3.86H154.59a10.95,10.95,0,1,0,0,21.89h13l2.48-3.86H154.87M172,2.54A2,2,0,0,1,173.92.61h0a1.93,1.93,0,0,1,1.92,1.94h0a1.93,1.93,0,0,1-1.94,1.93h0A1.93,1.93,0,0,1,172,2.56ZM173.9,5a2.48,2.48,0,0,0,2.49-2.45h0A2.47,2.47,0,0,0,173.94.09h0a2.46,2.46,0,0,0-2.48,2.45h0A2.46,2.46,0,0,0,173.9,5Zm-.22-3.93a1.56,1.56,0,0,1,.71.08.76.76,0,0,1,.54.77.61.61,0,0,1,0,.23.7.7,0,0,1-.33.47,1,1,0,0,1-.12.07l.63,1.14h-.62L173.9,2.8h-.38V3.85H173V1.09Zm.19,1.25c.17,0,.35,0,.45-.17a.32.32,0,0,0,.07-.25.37.37,0,0,0-.21-.33,1.2,1.2,0,0,0-.5-.05h-.16v.8h.35"/></svg>