<svg id="Calque_1" data-name="Calque 1" xmlns="http://www.w3.org/2000/svg" viewBox="0 0 130.89 66.9"><defs><style>.cls-1{fill:#517bbd;}</style></defs><g id="Groupe_41572" data-name="Groupe 41572"><path id="Tracé_2321" data-name="Tracé 2321" class="cls-1" d="M103.13,8.11,102.29,3c-.26-1.63-.92-3-1.42-3s-.92,1.37-.92,3V4.4a3,3,0,0,1-3,3H95.28v3.66h5.32a2.5,2.5,0,0,0,2.58-2.4,2.24,2.24,0,0,0-.05-.58"/><path id="Tracé_2322" data-name="Tracé 2322" class="cls-1" d="M91.1,3.79H74.37l-.29,0V3c0-1.66-.42-3-.92-3S72,1.34,71.74,3l-.84,5.1A2.49,2.49,0,0,0,72.85,11a2.2,2.2,0,0,0,.57.05h5a4.9,4.9,0,0,0,1.43-.21,1.84,1.84,0,0,1-1.82,1.5H71a1.85,1.85,0,0,1-1.84-1.86c0-.1,0-.2,0-.3L69.9,5.9a1.87,1.87,0,0,0-1.53-2.14l-.29,0H33a1.85,1.85,0,0,0-1.68,1.08L24.75,14.93a.47.47,0,0,0,0,.55L26.07,17a.46.46,0,0,0,.63.06l4.48-3.53V35A1.82,1.82,0,0,0,33,36.84H43A1.82,1.82,0,0,0,44.82,35v-7.5a1.83,1.83,0,0,1,1.82-1.84H71.53a1.83,1.83,0,0,1,1.84,1.82V35a1.82,1.82,0,0,0,1.82,1.84h10A1.82,1.82,0,0,0,87,35V27H81.72a3,3,0,0,1-3-3V18.78a3.05,3.05,0,0,1,1.21-2.43v6.17a3,3,0,0,0,3,3h8.14a3,3,0,0,0,3-3V6.82a3,3,0,0,0-3-3"/><g id="Groupe_734" data-name="Groupe 734"><path id="Tracé_2323" data-name="Tracé 2323" class="cls-1" d="M17.48,62.53a2.42,2.42,0,0,1-.76.12c-1.9,0-2.53-2-3.42-3.9a6.27,6.27,0,0,0-1.53-2.08,6.13,6.13,0,0,0,4.4-5.92c0-4-2.9-6.09-7.16-6.09H0V66.52H5.4V57.89H6.64c1.21,0,2.11,2.71,2.76,4.26,1.53,3.48,3,4.48,5.61,4.48a9.87,9.87,0,0,0,1.22-.1h-.08ZM7.35,54H5.4V48.59H8c1.48,0,2.72.63,2.72,2.55C10.72,53.49,8.9,54,7.34,54Z"/><path id="Tracé_2324" data-name="Tracé 2324" class="cls-1" d="M23.49,44.66l-6,17.87.11,0-.42,3.85s-.41.1-1,.18h4.66l1.32-4.13h7.29l1.37,4.13h5.48L29,44.66Zm0,13.7L25,53.7A26.13,26.13,0,0,0,25.81,50h.13a20.17,20.17,0,0,0,.74,3.76l1.5,4.61Z"/><path id="Tracé_2325" data-name="Tracé 2325" class="cls-1" d="M17.59,62.5l-.11,0-1.34,4h.08c.54-.09,1-.19,1-.19Z"/><path id="Tracé_2326" data-name="Tracé 2326" class="cls-1" d="M49.64,55.15c0,1.26.16,3,.24,4.24h-.13c-.53-1.29-1.16-3-1.66-3.9L42.35,44.64h-5.8V66.52H41V56c0-1.19-.16-2.66-.26-3.9h.13a30.44,30.44,0,0,0,1.58,3.55l6,10.83H54.1V44.64H49.64Z"/><path id="Tracé_2327" data-name="Tracé 2327" class="cls-1" d="M69,58.7a3.42,3.42,0,0,1-3.66,4.24c-2.37,0-4.46-1.52-4.46-7.48,0-5.63,1.93-7.37,4.27-7.37s3.82,1.4,3.27,4.87l5-.45c.72-4.74-1.84-8.21-8.21-8.21-6,0-10,3.24-10,11.14h0c0,8,3.82,11.46,9.75,11.46s9-3.27,8.69-7.72Z"/><path id="Tracé_2328" data-name="Tracé 2328" class="cls-1" d="M86.83,52.94H80.19V44.67h-5.4V66.53h5.4V57.25h6.64v9.28h5.4V44.66h-5.4Z"/><path id="Tracé_2329" data-name="Tracé 2329" class="cls-1" d="M99.81,57.39h7.61v-4H99.81V48.67h9.06v-4H94.39V66.52h14.83v-4h-9.4Z"/><path id="Tracé_2330" data-name="Tracé 2330" class="cls-1" d="M123.57,58.76A6.27,6.27,0,0,0,122,56.68a6.13,6.13,0,0,0,4.4-5.93c0-4-2.9-6.08-7.16-6.08h-9V66.53h5.4V57.89h1.24c1.21,0,2.11,2.71,2.77,4.26,1.52,3.48,3,4.48,5.61,4.48a10.4,10.4,0,0,0,2.15-.29l.43-3.84a2.61,2.61,0,0,1-.87.15C125.1,62.65,124.47,60.6,123.57,58.76ZM117.62,54h-2V48.59h2.61c1.47,0,2.71.63,2.71,2.55,0,2.35-1.82,2.82-3.37,2.82Z"/><path id="Tracé_2331" data-name="Tracé 2331" class="cls-1" d="M129.42,44.27a1.41,1.41,0,0,0-1.48,1.33v.15a1.41,1.41,0,0,0,1.35,1.45h.13a1.39,1.39,0,0,0,1.47-1.32v-.12a1.41,1.41,0,0,0-1.33-1.48Zm0,2.63a1.08,1.08,0,0,1-1.13-1v-.12a1.07,1.07,0,0,1,1-1.16.75.75,0,0,1,.15,0,1,1,0,0,1,1.11,1,.54.54,0,0,1,0,.18,1.06,1.06,0,0,1-1,1.15Z"/><path id="Tracé_2332" data-name="Tracé 2332" class="cls-1" d="M130,45.46c0-.37-.27-.45-.53-.45h-.53v1.45h.29v-.58h.13l.32.58H130l-.35-.6A.43.43,0,0,0,130,45.46Zm-.53.21h-.26v-.4h.26c.1,0,.24,0,.24.19a.22.22,0,0,1-.22.21Z"/></g></g></svg>