<svg id="Calque_1" data-name="Calque 1" xmlns="http://www.w3.org/2000/svg" viewBox="0 0 157.43 39.88"><defs><style>.cls-1{fill:#517bbd;}</style></defs><g id="Groupe_746" data-name="Groupe 746"><path id="Tracé_2373" data-name="Tracé 2373" class="cls-1" d="M1.94,39.38A1.88,1.88,0,0,1,0,37.44v-35A1.87,1.87,0,0,1,1.94.5h9.31A13.57,13.57,0,0,1,17.72,2a11.3,11.3,0,0,1,4.46,4.24,11.87,11.87,0,0,1,1.61,6.24,11.09,11.09,0,0,1-2.08,6.75,11.25,11.25,0,0,1-5.58,4.06L24.3,36.39a2,2,0,0,1,.27,2.09,1.86,1.86,0,0,1-1.82.9,1.83,1.83,0,0,1-1-.24,2.41,2.41,0,0,1-.67-.75L12.11,24.1a8.08,8.08,0,0,1-.85,0H3.88V37.44a1.87,1.87,0,0,1-1.8,1.94Zm1.94-19h7.37a9.68,9.68,0,0,0,4.51-1,7.94,7.94,0,0,0,3.11-2.81A7.37,7.37,0,0,0,20,12.5a7.89,7.89,0,0,0-4.25-7.22,9.44,9.44,0,0,0-4.51-1H3.88ZM48.24,39.88a20.93,20.93,0,0,1-8-1.49A18.8,18.8,0,0,1,29.84,27.88a21.1,21.1,0,0,1-1.47-8A21.19,21.19,0,0,1,29.84,12,18.81,18.81,0,0,1,40.27,1.5a21.89,21.89,0,0,1,15.89,0,19.09,19.09,0,0,1,6.32,4.18A18.84,18.84,0,0,1,66.64,12a21.22,21.22,0,0,1,1.47,7.91,21.1,21.1,0,0,1-1.47,8,18.84,18.84,0,0,1-4.16,6.32,19.12,19.12,0,0,1-6.32,4.19,20.87,20.87,0,0,1-7.92,1.49Zm0-3.68A16.52,16.52,0,0,0,54.61,35a15.27,15.27,0,0,0,5.1-3.44,15.71,15.71,0,0,0,3.37-5.18,17.13,17.13,0,0,0,1.2-6.45,17.31,17.31,0,0,0-1.2-6.4,15.57,15.57,0,0,0-3.37-5.17,15.27,15.27,0,0,0-5.1-3.44,17.37,17.37,0,0,0-12.79,0,15.17,15.17,0,0,0-5.1,3.44,15.7,15.7,0,0,0-3.36,5.17,16.92,16.92,0,0,0-1.2,6.4,16.94,16.94,0,0,0,1.2,6.45,15.68,15.68,0,0,0,3.36,5.18A15.27,15.27,0,0,0,41.82,35,16.81,16.81,0,0,0,48.24,36.2Z"/><path id="Tracé_2374" data-name="Tracé 2374" class="cls-1" d="M72.68,39.88a20.88,20.88,0,0,1-8-1.49A18.8,18.8,0,0,1,54.29,27.88a21.1,21.1,0,0,1-1.47-8A20.76,20.76,0,0,1,54.29,12,18.72,18.72,0,0,1,64.72,1.5a21.87,21.87,0,0,1,15.88,0,19.19,19.19,0,0,1,6.33,4.18A18.66,18.66,0,0,1,91.08,12a20.83,20.83,0,0,1,1.47,7.91,21.1,21.1,0,0,1-1.47,8,18.84,18.84,0,0,1-4.16,6.32,19.12,19.12,0,0,1-6.32,4.19A20.87,20.87,0,0,1,72.68,39.88Zm0-3.68A16.57,16.57,0,0,0,79.06,35a15.17,15.17,0,0,0,5.1-3.44,15.68,15.68,0,0,0,3.36-5.18,16.94,16.94,0,0,0,1.2-6.45,16.91,16.91,0,0,0-1.19-6.4,15.84,15.84,0,0,0-3.36-5.18,15.34,15.34,0,0,0-5.1-3.43,17.36,17.36,0,0,0-12.8,0,15.09,15.09,0,0,0-5.1,3.43,15.71,15.71,0,0,0-3.37,5.18,16.92,16.92,0,0,0-1.2,6.4,17.13,17.13,0,0,0,1.2,6.45,15.84,15.84,0,0,0,3.36,5.18A15.19,15.19,0,0,0,66.26,35a16.62,16.62,0,0,0,6.42,1.22ZM112,39.88a17,17,0,0,1-8.44-2.05,11.72,11.72,0,0,1-5.2-5.42,1.48,1.48,0,0,1,0-1.47A2,2,0,0,1,99.62,30a1.82,1.82,0,0,1,1.37.15,2.33,2.33,0,0,1,1,1,8.63,8.63,0,0,0,3.78,3.59A13.31,13.31,0,0,0,112,36.19a10.57,10.57,0,0,0,6.5-1.92,6.5,6.5,0,0,0,2.56-5.55,7,7,0,0,0-2.24-5.22,12,12,0,0,0-7-2.79,16.26,16.26,0,0,1-9.11-3.61A9.16,9.16,0,0,1,99.42,10,8.81,8.81,0,0,1,101,4.69a10.41,10.41,0,0,1,4.46-3.46A16.15,16.15,0,0,1,112,0a12.86,12.86,0,0,1,7.07,1.86,14.24,14.24,0,0,1,4.53,4.41,2,2,0,0,1,.32,1.54A1.75,1.75,0,0,1,123.07,9a2.08,2.08,0,0,1-2.69-.85,11,11,0,0,0-3.11-3.07A9.69,9.69,0,0,0,112,3.68a10.85,10.85,0,0,0-6.32,1.67,5.56,5.56,0,0,0-2.39,4.86,5.85,5.85,0,0,0,2.07,4.43c1.37,1.26,3.82,2.13,7.34,2.63q6.22.9,9.24,3.81a10.08,10.08,0,0,1,3,7.59,10.63,10.63,0,0,1-1.72,6.1,10.79,10.79,0,0,1-4.65,3.8,15.94,15.94,0,0,1-6.53,1.3Zm29.82-.5a2,2,0,0,1-1.94-1.94V4H128.1a1.73,1.73,0,0,1-1.3-.5,1.66,1.66,0,0,1-.49-1.24A1.69,1.69,0,0,1,126.8,1a1.73,1.73,0,0,1,1.3-.5h27.53a1.76,1.76,0,0,1,1.3.5,1.73,1.73,0,0,1,.5,1.3,1.71,1.71,0,0,1-.5,1.24,1.76,1.76,0,0,1-1.3.5H143.78V37.44a1.89,1.89,0,0,1-.55,1.37,1.83,1.83,0,0,1-1.39.57Z"/></g></svg>