<svg id="Calque_1" data-name="Calque 1" xmlns="http://www.w3.org/2000/svg" viewBox="0 0 346.13 77.3"><defs><style>.cls-1{fill:#517bbd;}</style></defs><g id="Groupe_41571" data-name="Groupe 41571"><g id="Groupe_728" data-name="Groupe 728"><g id="Groupe_727" data-name="Groupe 727"><path id="Tracé_2284" data-name="Tracé 2284" class="cls-1" d="M17.28,20.39a4.16,4.16,0,0,0-2.35,2.93q-2.71,11-5.49,22.06a4.44,4.44,0,0,0,.94,4.13q7.17,8.85,14.2,17.8a4.24,4.24,0,0,0,3.66,1.78c3.77-.06,7.54,0,11.31,0s7.31-.08,11,0a4.79,4.79,0,0,0,4.25-2Q61.83,58.17,69,49.34a4.11,4.11,0,0,0,.86-3.82c-1.77-7.31-3.53-14.61-5.21-21.94A4.51,4.51,0,0,0,62,20.28q-10.14-5-20.22-10a4.4,4.4,0,0,0-4.36,0Q27.4,15.39,17.28,20.39Zm23.47-6.92Q50.3,18.26,59.9,23a2.83,2.83,0,0,1,1.72,2.1c1.57,6.88,3.22,13.74,4.88,20.61a2.12,2.12,0,0,1-.46,2q-7,8.58-13.84,17.21a2.14,2.14,0,0,1-1.9.87c-3.6,0-7.19,0-10.79,0s-7.08,0-10.62,0a2.27,2.27,0,0,1-2-1q-6.74-8.53-13.56-17a2.42,2.42,0,0,1-.47-2.35Q15.42,35.21,18,24.92A2.57,2.57,0,0,1,19.45,23q9.57-4.72,19.1-9.57a2.12,2.12,0,0,1,2.2,0Z"/><path id="Tracé_2285" data-name="Tracé 2285" class="cls-1" d="M52.17,73.87c-8.34,0-16.68,0-25-.05a2.67,2.67,0,0,0-2.92,1.9c-.5,1.15-.52,1.54.93,1.52,4.79-.06,9.59,0,14.38,0s9.59,0,14.39,0c.43,0,1.3.46,1.22-.59A3,3,0,0,0,52.17,73.87Z"/><path id="Tracé_2286" data-name="Tracé 2286" class="cls-1" d="M43.85,4.94l21.3,10.54c2.3,1.14,3.1.9,4.6-1.45L41.38,0C41,3.51,41,3.5,43.85,4.94Z"/><path id="Tracé_2287" data-name="Tracé 2287" class="cls-1" d="M74.27,50.65Q65.72,61.23,57.2,71.82A1.19,1.19,0,0,0,57,73.34c.42.73.77,1.5,1.25,2.46L65,67.46q6.33-7.86,12.63-15.74c.25-.32,1-.59.49-1.21S74.86,49.91,74.27,50.65Z"/><path id="Tracé_2288" data-name="Tracé 2288" class="cls-1" d="M5.88,51.74c-1.77-2.23-2.25-2.33-5-1L20.7,75.69c1.87-3,1.87-3-.1-5.48Q13.25,61,5.88,51.74Z"/><path id="Tracé_2289" data-name="Tracé 2289" class="cls-1" d="M15,15.23C22,11.7,29,8.1,36.12,4.68a3,3,0,0,0,2-3.4C38,.35,38.06-.11,36.92.46c-9,4.56-18,9.07-27.17,13.65C12.12,16.66,12.12,16.66,15,15.23Z"/><path id="Tracé_2290" data-name="Tracé 2290" class="cls-1" d="M69.72,21.59c1.74,7.36,3.6,14.7,5.16,22.11.52,2.45,1.54,3.7,4,3.71l.34-.1C76.83,37.1,74.43,27,72,16.83,69.09,18.48,69,18.6,69.72,21.59Z"/><path id="Tracé_2291" data-name="Tracé 2291" class="cls-1" d="M3.89,45.66Q7,32.89,10.25,20.17a1.56,1.56,0,0,0-.64-1.91c-.64-.46-1.22-1-1.94-1.6C5.1,27,2.57,37.15,0,47.5c1.05-.23,1.81-.46,2.59-.56S3.7,46.45,3.89,45.66Z"/></g></g><g id="Groupe_729" data-name="Groupe 729"><path id="Tracé_2292" data-name="Tracé 2292" class="cls-1" d="M156.11,27.32c0-2.54,0-2.49-2.55-2.45A1.56,1.56,0,0,0,152,25.92c-1,2-2.12,4-3.2,6l-4.42,8.17c-.26-.41-.41-.64-.54-.88-2.4-4.46-4.83-8.9-7.16-13.39-.88-1.7-2.31-.85-3.46-.87s-.58,1.15-.59,1.75c0,6.79,0,13.58-.07,20.37,0,1.46.59,1.57,1.7,1.47.95-.07,2,.37,1.94-1.4-.16-3-.05-6-.05-9.08v-5.5l.32,0,7.89,14.65,7.91-14.67.34.15c0,4.85.08,9.7,0,14.56,0,1.67.92,1.28,1.82,1.31s1.78.21,1.75-1.38C156.05,40.56,156.11,33.94,156.11,27.32Z"/><path id="Tracé_2293" data-name="Tracé 2293" class="cls-1" d="M182.47,33.62c-1,3.25-2,6.5-3.17,10.11-1.32-4-2.53-7.67-3.73-11.32-.32-1-.52-1.81-2-1.76s-1.76.6-2.13,1.75c-1.15,3.67-2.43,7.3-3.79,11.32-1.13-3.69-2.14-7-3.16-10.26-.9-2.88-.9-2.88-3.91-2.72a2.32,2.32,0,0,0-.44.16c1.85,5.48,3.76,11,5.5,16.47.46,1.47,1.4,1.08,2.36,1.21s1.46-.41,1.75-1.33c1.17-3.78,2.4-7.53,3.62-11.32.57.31.54.83.68,1.24,1,3.25,2.13,6.49,3.1,9.77.35,1.2.83,1.74,2.21,1.67,1.13,0,1.77-.27,2-1.44s.68-2.05,1-3.08q2.22-6.62,4.45-13.26C183.42,30.55,183.42,30.55,182.47,33.62Z"/><path id="Tracé_2294" data-name="Tracé 2294" class="cls-1" d="M126.3,24.88c-1.51-.27-2.16.43-2.72,1.78-2.1,5.15-4.33,10.26-6.54,15.37-.23.55-.28,1.22-.92,1.57l-6.68-15.53c-1.41-3.29-1.4-3.29-5.13-3.1a2.47,2.47,0,0,0,.08.6c3.17,7.36,6.37,14.7,9.5,22.08.68,1.62,1.94.66,2.93.88a1.4,1.4,0,0,0,1.79-.87l0-.11c1.46-3.58,3-7.12,4.56-10.67,1.7-4,3.4-7.9,5.14-12A12.63,12.63,0,0,1,126.3,24.88Z"/><path id="Tracé_2295" data-name="Tracé 2295" class="cls-1" d="M204.28,37.34c0-3.49-1.81-5.92-4.94-6.73s-5.87-.06-8.63,1.18c-.31.14-.51.27-.4.74.38,1.63,1.12,2,2.66,1.46a15,15,0,0,1,2.29-.66c3.52-.69,5.52,1,5.6,4.77l-1.63-.38c-2.54-.54-5.07-.79-7.51.46a5.6,5.6,0,0,0-3.28,5.35,5.4,5.4,0,0,0,4.16,5A8.29,8.29,0,0,0,201,46.4a6.91,6.91,0,0,1,0,.91c-.29,1.75,1,1.16,1.84,1.24s1.57,0,1.52-1.28C204.22,44,204.33,40.65,204.28,37.34Zm-3.45,5.76c-.92,2.93-6.05,4.16-8.21,2a2.73,2.73,0,0,1,0-3.85,3,3,0,0,1,.56-.43,5.93,5.93,0,0,1,3.76-.89c.74.09,1.48.14,2.2.27,1.92.36,2.32,1,1.72,2.92Z"/><path id="Tracé_2296" data-name="Tracé 2296" class="cls-1" d="M287.72,36.17a6.22,6.22,0,0,0-5.31-5.7,13,13,0,0,0-8,1.25c-.34.16-.74.24-.63.82a1.78,1.78,0,0,0,1.89,1.68,1.68,1.68,0,0,0,.79-.23,10.44,10.44,0,0,1,3.3-.81c2.5-.07,4.18,1.21,4.58,3.43.21,1.17.06,1.64-1.32,1.23-2.68-.78-5.4-1-8,.42a5.47,5.47,0,0,0-3,5.65,5.3,5.3,0,0,0,4,4.63,8,8,0,0,0,8.17-1.9c.65.61-.49,1.85,1,1.9a19.22,19.22,0,0,0,2.4,0c.33,0,.28-.43.28-.71C287.83,43.93,288,40,287.72,36.17ZM283.93,44a5.9,5.9,0,0,1-7.23,1.44,2.71,2.71,0,0,1-1-3.7,2.76,2.76,0,0,1,.82-.88,5.66,5.66,0,0,1,3.87-1c.68.08,1.36.12,2,.24,2,.37,2.67,2.15,1.48,3.9Z"/><path id="Tracé_2297" data-name="Tracé 2297" class="cls-1" d="M233.79,30.71A9,9,0,0,0,223,35.12a9.72,9.72,0,0,0,2.39,11.78c3.48,2.72,9.3,2.66,12.39-.13.26-.24.66-.38.36-1a2,2,0,0,0-2.66-1.11,2.21,2.21,0,0,0-.34.18,10.15,10.15,0,0,1-1.39.62c-3.7,1.35-7.14-.24-8.09-3.64-.26-.95-.07-1.19.89-1.16,2,.06,4,0,6,0s4,0,6,0c.37,0,.9.27,1-.48C240.3,36.78,237.29,31.81,233.79,30.71Zm1,7.53c-3.06-.09-6.14,0-9.22,0a5.48,5.48,0,0,1,5.06-5,5,5,0,0,1,5.23,3.57c.35,1.05.25,1.52-1.07,1.48Z"/><path id="Tracé_2298" data-name="Tracé 2298" class="cls-1" d="M346.13,31.9c0-1.64-1-1.15-1.78-1.15s-1.83-.46-1.77,1.16c.11,3.13.05,6.27,0,9.41a4.45,4.45,0,0,1-4.38,4.55c-.12,0-.23,0-.35,0-2.49,0-4.09-1.68-4.11-4.42s0-5.59,0-8.39c0-2.48,0-2.44-2.46-2.35-.71,0-1,.15-1,.94.05,3.76-.08,7.53.06,11.29a6.25,6.25,0,0,0,6.3,6,7.35,7.35,0,0,0,5.84-2.51,3.66,3.66,0,0,1,.1.73c-.33,2.1,1.25,1.25,2.18,1.43,1.22.23,1.34-.42,1.33-1.43C346.07,42.05,346,37,346.13,31.9Z"/><path id="Tracé_2299" data-name="Tracé 2299" class="cls-1" d="M302.25,30.31c-2.26-.07-4.05.85-6,2.75.7-2.54-.65-2.36-2-2.36-1,0-1.39.11-1.37,1.26.07,5.14.09,10.29,0,15.43,0,1.64,1,1.14,1.79,1.15s1.83.44,1.77-1.18c-.12-3.13,0-6.28-.05-9.42a4.06,4.06,0,0,1,1.83-3.65,4.67,4.67,0,0,1,4.86-.51,4,4,0,0,1,2.22,3.94c0,3.25.07,6.51,0,9.76,0,1.2.67,1.24,1.38,1s2,.89,2-.87c0-3.77.11-7.55-.05-11.31C308.52,32.78,305.82,30.42,302.25,30.31Z"/><path id="Tracé_2300" data-name="Tracé 2300" class="cls-1" d="M268.85,24.86c-5.54.1-11.09.09-16.63,0-1.26,0-1.28.59-1.16,1.44s-.59,2,1.1,1.88,3.43,0,5.14-.05c1.1-.05,1.45.25,1.43,1.4-.06,5.54,0,11.08,0,16.62,0,2.47,0,2.42,2.43,2.43.95,0,1.27-.23,1.25-1.23-.06-3,0-5.94,0-8.91s0-6,0-9.08c0-1,.3-1.26,1.26-1.22,1.71.07,3.44-.09,5.14.06s1.29-.85,1.28-1.73S270.34,24.84,268.85,24.86Z"/><path id="Tracé_2301" data-name="Tracé 2301" class="cls-1" d="M325.39,45.37c-2.75.14-5.52,0-8.55,0,.56-.71.9-1.15,1.26-1.59,2.67-3.26,5.32-6.55,8-9.78a3,3,0,0,0,.49-2.9c-.24-.88-1.29-.38-2-.39-3.71-.05-7.43,0-11.14-.05-1.52-.05-1.06.92-1.1,1.67s-.2,1.53,1.13,1.48c2.73-.12,5.46,0,8.53,0l-2.29,2.8c-2.31,2.82-4.59,5.68-7,8.46a3.13,3.13,0,0,0-.56,3c.27,1,1.38.4,2.09.41,3.66.07,7.32,0,11,.06,1.18,0,1.6-.25,1.53-1.48C326.81,46,326.9,45.29,325.39,45.37Z"/><path id="Tracé_2302" data-name="Tracé 2302" class="cls-1" d="M219.45,31c.09-1.1-.88-.63-1.38-.58a7,7,0,0,0-4.91,3,1.14,1.14,0,0,1-.27-1.2c.33-1.86-1-1.4-2-1.52-1.21-.14-1.51.32-1.5,1.5.07,4.92.09,9.83,0,14.74,0,1.41.44,1.71,1.72,1.65,1.13-.06,1.92,0,1.8-1.58-.16-2.27,0-4.56,0-6.85,0-4.26,1.42-5.95,5.66-6.73C220.25,33.11,219.39,31.82,219.45,31Z"/></g></g></svg>