<svg id="Calque_1" data-name="Calque 1" xmlns="http://www.w3.org/2000/svg" viewBox="0 0 136.49 109.79"><defs><style>.cls-1{fill:#517bbd;}</style></defs><g id="Groupe_41583" data-name="Groupe 41583"><path id="Tracé_2342" data-name="Tracé 2342" class="cls-1" d="M14,105.9l2.5-9.43H19.9l-3.77,13.12h-4L10,100.75l-2.22,8.84h-4L0,96.47H3.37l2.54,9.43,2.5-9.43H11.5Z"/><path id="Tracé_2343" data-name="Tracé 2343" class="cls-1" d="M32.34,105.31c-.4,2.61-2.38,4.47-5.83,4.47-3.64,0-6.38-2.21-6.38-6.65s2.82-6.82,6.38-6.82c4,0,6,2.89,6,6.78v.71H23.46c0,1.47.6,3.29,3,3.29a2.44,2.44,0,0,0,2.61-1.86l3.29.08Zm-3.25-3.85A2.43,2.43,0,0,0,26.74,99h-.27a2.76,2.76,0,0,0-2.89,2.5Zm13.12-.35v-.44c0-1-.44-1.7-2.38-1.7-2.42,0-2.5,1.35-2.5,1.78H34.2c0-1.94.83-4.44,5.71-4.44,4.67,0,5.5,2.34,5.5,4.2v7.22c0,.44,0,.87.08,1.31l.08.55H42.28v-1.31a5.39,5.39,0,0,1-4.08,1.47c-2.57,0-4.56-1.51-4.56-4.13,0-3,2.86-3.64,4-3.84l4.56-.68Zm0,2.45-1.27.2-2,.32a2.53,2.53,0,0,0-1.39.52,1.38,1.38,0,0,0-.51,1.07c0,.4.15,1.58,1.94,1.58a3.79,3.79,0,0,0,2.5-.87,2.9,2.9,0,0,0,.75-2.1Zm12.52,6h-4.4L46,96.47h3.57l3,10,3-10h3.45Zm16.69-4.28c-.4,2.61-2.38,4.47-5.83,4.47-3.64,0-6.38-2.21-6.38-6.65s2.81-6.82,6.38-6.82c4,0,6,2.89,6,6.78v.71h-9c0,1.47.59,3.29,3,3.29a2.45,2.45,0,0,0,2.62-1.86Zm-3.25-3.85A2.43,2.43,0,0,0,65.82,99h-.27a2.75,2.75,0,0,0-2.89,2.5Zm8.08,8.13-3.8-12.76h2.06l3,10.81,3-10.81h2.22l3,10.81,3-10.81h2l-3.84,12.76H84.5L81.57,99l-2.94,10.59Zm21.09.2c-3.49,0-5.87-2.22-5.87-6.58s2.38-6.58,5.87-6.58,5.82,2.22,5.82,6.58-2.37,6.58-5.82,6.58m0-1.67c2.22,0,3.84-1.35,3.84-4.91s-1.62-4.91-3.84-4.91-3.85,1.34-3.85,4.91,1.59,4.91,3.85,4.91m13.83-9.31c-2.3,0-3.89.79-3.89,3.8v7h-2V96.79h1.94V99a4.31,4.31,0,0,1,3.89-2.21H112v2Zm13.83-2-4.64,4.71,4.88,8h-2.3l-4-6.66-3,3.21v3.45H114V91.87h1.94v11.77l6.66-6.81Zm9.12,3.48c-.12-1.54-1.35-2-2.94-2-1.35,0-3.05.44-3.05,1.95,0,3.25,8.36.27,8.36,5.47,0,1.74-1,4-5.47,4-3.4,0-5.07-1.75-5.11-4.08h2.14c0,1.42.95,2.41,3.21,2.41,2.62,0,3.25-1.11,3.25-2.25,0-2.42-4.44-1.39-6.86-2.74a2.9,2.9,0,0,1-1.5-2.73c0-2.1,2-3.73,5.07-3.73,3.8,0,4.92,2.22,5,3.65h-2.1ZM52.55,42.37,91,8.05A36.39,36.39,0,0,0,80.81,2.34L52.55,27.59Zm-11-4.95L31.07,46.73a38,38,0,0,0,4.52,10.78l5.91-5.27Z"/><path id="Tracé_2344" data-name="Tracé 2344" class="cls-1" d="M73.08,9.2V.4A40.36,40.36,0,0,0,67.69,0a36.5,36.5,0,0,0-5.62.44V19.11Zm0,51.88V24L62,33.89V75a37.79,37.79,0,0,0,5.62.44,36.28,36.28,0,0,0,6.58-.6l29.57-26.4a38,38,0,0,0,1.54-10.7,37,37,0,0,0-.35-5.15l-31.9,28.5Z"/><path id="Tracé_2345" data-name="Tracé 2345" class="cls-1" d="M73.08,50.18,102.69,23.7A37.52,37.52,0,0,0,97,14L73,35.36V50.18Zm-11-4.92-9.51,8.48V3.18a38,38,0,0,0-11,7.41V64.8A38.21,38.21,0,0,0,49.86,71L62,60.09V45.27Z"/></g></svg>