<svg id="Calque_1" data-name="Calque 1" xmlns="http://www.w3.org/2000/svg" viewBox="0 0 201.33 25.38"><defs><style>.cls-1{fill:#70a6fe;}</style></defs><g id="Groupe_41541" data-name="Groupe 41541"><g id="Groupe_22928" data-name="Groupe 22928"><g id="Groupe_22927" data-name="Groupe 22927"><g id="Groupe_22925" data-name="Groupe 22925"><g id="Groupe_22924" data-name="Groupe 22924"><path id="Tracé_24187" data-name="Tracé 24187" class="cls-1" d="M199,15a2.37,2.37,0,0,0-2.37,2.37h0A2.37,2.37,0,1,0,199,15Zm0,4.38a2,2,0,1,1,2-2h0a2,2,0,0,1-2,2Z"/></g><path id="Tracé_24188" data-name="Tracé 24188" class="cls-1" d="M198.72,17.52v.82h-.56V16.16H199a1.07,1.07,0,0,1,.63.14.52.52,0,0,1,.2.46.56.56,0,0,1-.1.36.58.58,0,0,1-.31.2.41.41,0,0,1,.2.12,1.07,1.07,0,0,1,.19.28l.31.62h-.6l-.27-.54a.62.62,0,0,0-.17-.22.29.29,0,0,0-.22-.06Zm.24-.39a.37.37,0,0,0,.25-.07.32.32,0,0,0,0-.43.36.36,0,0,0-.25-.06h-.24v.56Z"/><path id="Tracé_24189" data-name="Tracé 24189" class="cls-1" d="M75.71,0h7.5c4.13,0,6.06,2.2,6.06,4.94a4.34,4.34,0,0,1-2.81,4.31A4.86,4.86,0,0,1,89.91,14c0,3.73-2.81,5.8-6.52,5.8H75.71Zm7,8.22c2.83,0,3.93-1.12,3.93-3.05,0-1.75-1.24-3-3.53-3H78.25V8.22Zm-4.47,9.39h4.83c2.46,0,4.16-1.17,4.16-3.63,0-2.15-1.36-3.59-4.65-3.59H78.25Z"/><path id="Tracé_24190" data-name="Tracé 24190" class="cls-1" d="M94.93,13c0,2.93,1.49,5,3.92,5a3.31,3.31,0,0,0,3.46-2.24h2.49a5.83,5.83,0,0,1-6,4.32c-4.51,0-6.34-3.69-6.34-7.4,0-4.29,2.15-7.71,6.5-7.71,4.62,0,6.13,3.73,6.13,6.81,0,.44,0,.81,0,1.2Zm7.63-1.76c0-2.37-1.21-4.28-3.66-4.28S95.27,8.74,95,11.25Z"/><path id="Tracé_24191" data-name="Tracé 24191" class="cls-1" d="M141.43,13c0,2.93,1.48,5,3.92,5a3.31,3.31,0,0,0,3.46-2.24h2.49a5.83,5.83,0,0,1-6,4.32c-4.51,0-6.34-3.69-6.34-7.4,0-4.29,2.15-7.71,6.5-7.71,4.62,0,6.13,3.73,6.13,6.81,0,.44,0,.81,0,1.2Zm7.63-1.76C149,8.88,147.84,7,145.39,7s-3.62,1.77-3.88,4.28Z"/><path id="Tracé_24192" data-name="Tracé 24192" class="cls-1" d="M120.55,12.54c0,4.15-2.36,7.57-6.73,7.57-4.1,0-6.58-3.2-6.58-7.52S109.67,5,114,5c4,0,6.56,3,6.56,7.51m-10.76,0c0,3.15,1.57,5.46,4.14,5.46S118,15.84,118,12.58s-1.46-5.48-4.14-5.48-4.08,2.18-4.08,5.46"/><path id="Tracé_24193" data-name="Tracé 24193" class="cls-1" d="M126.22,18v7.42h-2.45V8.88c0-1.18,0-2.39,0-3.5h2.4a21.35,21.35,0,0,1,.09,2.25A4.91,4.91,0,0,1,130.89,5c3.3,0,5.7,2.79,5.7,7.15,0,5.13-2.76,7.89-6.21,7.89A4.35,4.35,0,0,1,126.23,18m7.82-5.68c0-3-1.38-5.13-3.81-5.13-3,0-4.12,1.89-4.12,5.38s.95,5.45,3.93,5.45c2.61,0,4-2.16,4-5.7"/><path id="Tracé_24194" data-name="Tracé 24194" class="cls-1" d="M154.67,9c0-1.25,0-2.51,0-3.63H157c.07.43.1,1.94.1,2.37A4.53,4.53,0,0,1,161.64,5c2.68,0,4.78,1.65,4.78,5.48v9.26H164V10.84c0-2.17-.84-3.64-3-3.64-2.7,0-3.78,2.07-3.78,5v7.62h-2.48Z"/><path id="Tracé_24195" data-name="Tracé 24195" class="cls-1" d="M183.79,0V2.26h6.31V19.78h2.6V2.26H199V0Z"/><rect id="Rectangle_8281" data-name="Rectangle 8281" class="cls-1" x="178.19" width="2.6" height="19.78"/></g><g id="Groupe_22926" data-name="Groupe 22926"><path id="Tracé_24196" data-name="Tracé 24196" class="cls-1" d="M199,15a2.37,2.37,0,0,0-2.37,2.37h0A2.37,2.37,0,1,0,199,15Zm0,4.38a2,2,0,1,1,2-2h0a2,2,0,0,1-2,2Z"/></g><path id="Tracé_24197" data-name="Tracé 24197" class="cls-1" d="M198.72,17.52v.82h-.56V16.16H199a1.07,1.07,0,0,1,.63.14.52.52,0,0,1,.2.46.56.56,0,0,1-.1.36.58.58,0,0,1-.31.2.41.41,0,0,1,.2.12,1.07,1.07,0,0,1,.19.28l.31.62h-.6l-.27-.54a.62.62,0,0,0-.17-.22.29.29,0,0,0-.22-.06Zm.24-.39a.37.37,0,0,0,.25-.07.32.32,0,0,0,0-.43.36.36,0,0,0-.25-.06h-.24v.56Z"/><path id="Tracé_24198" data-name="Tracé 24198" class="cls-1" d="M75.71,0h7.5c4.13,0,6.06,2.2,6.06,4.94a4.34,4.34,0,0,1-2.81,4.31A4.86,4.86,0,0,1,89.91,14c0,3.73-2.81,5.8-6.52,5.8H75.71Zm7,8.22c2.83,0,3.93-1.12,3.93-3.05,0-1.75-1.24-3-3.53-3H78.25V8.22Zm-4.47,9.39h4.83c2.46,0,4.16-1.17,4.16-3.63,0-2.15-1.36-3.59-4.65-3.59H78.25Z"/><path id="Tracé_24199" data-name="Tracé 24199" class="cls-1" d="M94.93,13c0,2.93,1.49,5,3.92,5a3.31,3.31,0,0,0,3.46-2.24h2.49a5.83,5.83,0,0,1-6,4.32c-4.51,0-6.34-3.69-6.34-7.4,0-4.29,2.15-7.71,6.5-7.71,4.62,0,6.13,3.73,6.13,6.81,0,.44,0,.81,0,1.2Zm7.63-1.76c0-2.37-1.21-4.28-3.66-4.28S95.27,8.74,95,11.25Z"/><path id="Tracé_24200" data-name="Tracé 24200" class="cls-1" d="M141.43,13c0,2.93,1.48,5,3.92,5a3.31,3.31,0,0,0,3.46-2.24h2.49a5.83,5.83,0,0,1-6,4.32c-4.51,0-6.34-3.69-6.34-7.4,0-4.29,2.15-7.71,6.5-7.71,4.62,0,6.13,3.73,6.13,6.81,0,.44,0,.81,0,1.2Zm7.63-1.76C149,8.88,147.84,7,145.39,7s-3.62,1.77-3.88,4.28Z"/><path id="Tracé_24201" data-name="Tracé 24201" class="cls-1" d="M120.55,12.54c0,4.15-2.36,7.57-6.73,7.57-4.1,0-6.58-3.2-6.58-7.52S109.67,5,114,5c4,0,6.56,3,6.56,7.51m-10.76,0c0,3.15,1.57,5.46,4.14,5.46S118,15.84,118,12.58s-1.46-5.48-4.14-5.48-4.08,2.18-4.08,5.46"/><path id="Tracé_24202" data-name="Tracé 24202" class="cls-1" d="M126.22,18v7.42h-2.45V8.88c0-1.18,0-2.39,0-3.5h2.4a21.35,21.35,0,0,1,.09,2.25A4.91,4.91,0,0,1,130.89,5c3.3,0,5.7,2.79,5.7,7.15,0,5.13-2.76,7.89-6.21,7.89A4.35,4.35,0,0,1,126.23,18m7.82-5.68c0-3-1.38-5.13-3.81-5.13-3,0-4.12,1.89-4.12,5.38s.95,5.45,3.93,5.45c2.61,0,4-2.16,4-5.7"/><path id="Tracé_24203" data-name="Tracé 24203" class="cls-1" d="M154.67,9c0-1.25,0-2.51,0-3.63H157c.07.43.1,1.94.1,2.37A4.53,4.53,0,0,1,161.64,5c2.68,0,4.78,1.65,4.78,5.48v9.26H164V10.84c0-2.17-.84-3.64-3-3.64-2.7,0-3.78,2.07-3.78,5v7.62h-2.48Z"/><path id="Tracé_24204" data-name="Tracé 24204" class="cls-1" d="M183.79,0V2.26h6.31V19.78h2.6V2.26H199V0Z"/><rect id="Rectangle_8282" data-name="Rectangle 8282" class="cls-1" x="178.19" width="2.6" height="19.78"/></g></g><g id="Groupe_35301" data-name="Groupe 35301"><path id="Tracé_36911" data-name="Tracé 36911" class="cls-1" d="M5.56,16.19a10.34,10.34,0,0,1-2.15.17c-1.59,0-3.41-.85-3.41-4v-1.8c0-3.17,1.82-4,3.41-4a13.08,13.08,0,0,1,2.17.21c.12,0,.21.05.21.16v.66c0,.08,0,.15-.15.15h0c-.47,0-1.42-.12-2.17-.12-1.27,0-2.25.74-2.25,2.93v1.8c0,2.18,1,2.94,2.25,2.94.73,0,1.66-.06,2.13-.1h.05c.14,0,.21.06.21.21v.53A.26.26,0,0,1,5.56,16.19Z"/><path id="Tracé_36912" data-name="Tracé 36912" class="cls-1" d="M10.07,10.05a3.41,3.41,0,0,0-1.78.54V16a.27.27,0,0,1-.26.26H7.4A.26.26,0,0,1,7.15,16V9.42a.25.25,0,0,1,.24-.26H8a.25.25,0,0,1,.24.25h0v.27a3,3,0,0,1,1.82-.62c.19,0,.28.07.28.23v.53C10.35,10,10.25,10.05,10.07,10.05Z"/><path id="Tracé_36913" data-name="Tracé 36913" class="cls-1" d="M16.5,13.08H12.17v.18c0,1.53.61,2.1,1.8,2.1a16.05,16.05,0,0,0,2.3-.14h.07a.18.18,0,0,1,.2.16v.46c0,.17-.05.26-.26.3a11.17,11.17,0,0,1-2.31.22c-1.49,0-2.93-.7-2.93-3.1V12.1a2.7,2.7,0,0,1,2.36-3,2.9,2.9,0,0,1,.51,0c1.88,0,2.84,1.19,2.84,3v.7A.25.25,0,0,1,16.5,13.08Zm-.9-1c0-1.46-.56-2-1.7-2s-1.73.64-1.73,2v.12H15.6Z"/><path id="Tracé_36914" data-name="Tracé 36914" class="cls-1" d="M23,16.27h-.6a.26.26,0,0,1-.25-.26v-.28a4.06,4.06,0,0,1-2,.63,1.88,1.88,0,0,1-2.1-1.63,1.85,1.85,0,0,1,0-.47v-.15c0-1.4.81-2.1,3.11-2.1h1v-.52c0-1.08-.38-1.46-1.39-1.46a18.43,18.43,0,0,0-2,.1h-.07c-.11,0-.23,0-.23-.21V9.47q0-.21.27-.24a10.32,10.32,0,0,1,2-.17c1.8,0,2.52.9,2.52,2.43V16a.26.26,0,0,1-.25.27Zm-.88-3.44h-1c-1.56,0-2,.35-2,1.27v.15c0,.93.44,1.18,1.19,1.18a3.61,3.61,0,0,0,1.75-.52Z"/><path id="Tracé_36915" data-name="Tracé 36915" class="cls-1" d="M28.25,16.3a5.93,5.93,0,0,1-.84.06c-1.19,0-1.76-.31-1.76-1.73V10.11L24.4,10c-.15,0-.25-.09-.25-.23V9.39a.23.23,0,0,1,.22-.23h1.28V7.89a.27.27,0,0,1,.23-.26l.68-.1h0a.22.22,0,0,1,.2.22h0V9.16h1.4a.26.26,0,0,1,.26.26v.44a.26.26,0,0,1-.26.26h-1.4v4.51c0,.71.18.82.7.82h.72c.18,0,.27.05.27.18v.45C28.48,16.19,28.42,16.27,28.25,16.3Z"/><path id="Tracé_36916" data-name="Tracé 36916" class="cls-1" d="M34.92,13.08H30.59v.18c0,1.53.61,2.1,1.8,2.1a16.05,16.05,0,0,0,2.3-.14h.07a.18.18,0,0,1,.2.16v.46c0,.17-.05.26-.26.3a11.17,11.17,0,0,1-2.31.22c-1.49,0-2.94-.7-2.94-3.1V12.1a2.72,2.72,0,0,1,2.37-3,2.83,2.83,0,0,1,.5,0c1.89,0,2.85,1.19,2.85,3v.7A.25.25,0,0,1,34.92,13.08Zm-.9-1c0-1.46-.56-2-1.7-2s-1.73.64-1.73,2v.12H34Z"/><path id="Tracé_36917" data-name="Tracé 36917" class="cls-1" d="M41.69,16.14a11.84,11.84,0,0,1-2.38.21c-1.93,0-2.82-1.25-2.82-3.19v-.93c0-2,.93-3.17,2.82-3.17a10.86,10.86,0,0,1,1.51.13V6.79a.25.25,0,0,1,.25-.25h.66a.23.23,0,0,1,.23.24h0v9.05C42,16,41.92,16.1,41.69,16.14Zm-.87-6a9.5,9.5,0,0,0-1.51-.09c-1.26,0-1.68.79-1.68,2.17v.93c0,1.41.4,2.2,1.68,2.2.44,0,1.08,0,1.51-.08Z"/><path id="Tracé_36918" data-name="Tracé 36918" class="cls-1" d="M49.57,16.36a12.7,12.7,0,0,1-2.38-.22c-.23,0-.27-.12-.27-.3v-9a.24.24,0,0,1,.22-.25h.67a.25.25,0,0,1,.25.25v2.4a10.86,10.86,0,0,1,1.51-.13c1.88,0,2.82,1.14,2.82,3.17v.93C52.39,15.11,51.51,16.36,49.57,16.36Zm1.68-4.13c0-1.38-.41-2.17-1.68-2.17a9.57,9.57,0,0,0-1.51.09v5.14c.44,0,1.07.07,1.51.07,1.28,0,1.68-.79,1.68-2.2Z"/><path id="Tracé_36919" data-name="Tracé 36919" class="cls-1" d="M59.43,9.47l-2.14,7.44c-.4,1.4-.88,1.92-2.36,1.92a5,5,0,0,1-1.09-.12c-.16,0-.27-.08-.27-.2V18c0-.15.1-.21.24-.21h0c.29,0,.87.08,1.15.08.74,0,1.06-.2,1.28-1.1l.13-.53h-.18c-.39,0-.72-.1-.95-.9L53.56,9.46a.24.24,0,0,1,0-.09.22.22,0,0,1,.2-.22h.75a.27.27,0,0,1,.22.21L56.23,15c.07.26.16.29.25.29h.2l1.58-5.91a.28.28,0,0,1,.25-.2h.72a.21.21,0,0,1,.21.2v0A.31.31,0,0,1,59.43,9.47Z"/></g></g></svg>