<svg id="Calque_1" data-name="Calque 1" xmlns="http://www.w3.org/2000/svg" viewBox="0 0 312.85 66.68"><defs><style>.cls-1{fill:#fff;}.cls-2{fill:none;}.cls-3{fill:#517bbd;}.cls-4{fill:#199e58;}.cls-5{fill:#db4537;}.cls-6{fill:#f3b312;}</style></defs><g id="Groupe_35257" data-name="Groupe 35257"><g id="Groupe_22928" data-name="Groupe 22928"><g id="Groupe_22927" data-name="Groupe 22927"><g id="Groupe_22925" data-name="Groupe 22925"><g id="Groupe_22924" data-name="Groupe 22924"><path id="Tracé_24187" data-name="Tracé 24187" class="cls-1" d="M308.52,47.74a4.33,4.33,0,0,0-4.33,4.34h0a4.33,4.33,0,0,0,8.66,0h0a4.33,4.33,0,0,0-4.33-4.34Zm0,8a3.68,3.68,0,1,1,0-7.35h0a3.67,3.67,0,0,1,3.68,3.67h0a3.68,3.68,0,0,1-3.68,3.68h0Z"/></g><path id="Tracé_24188" data-name="Tracé 24188" class="cls-1" d="M308.08,52.33v1.51h-1v-4h1.58a2,2,0,0,1,1.16.27,1,1,0,0,1,.36.84,1,1,0,0,1-.19.65,1.09,1.09,0,0,1-.57.37.86.86,0,0,1,.38.22,1.77,1.77,0,0,1,.33.52l.57,1.13h-1.1l-.49-1a1.12,1.12,0,0,0-.3-.41.64.64,0,0,0-.4-.11Zm.43-.71a.74.74,0,0,0,.46-.12.52.52,0,0,0,.15-.4.5.5,0,0,0-.15-.4.68.68,0,0,0-.46-.11h-.43v1Z"/><path id="Tracé_24189" data-name="Tracé 24189" class="cls-1" d="M83.46,20.34h13.7c7.55,0,11.06,4,11.06,9,0,4.2-2.39,6.93-5.12,7.87a8.9,8.9,0,0,1,6.3,8.65c0,6.81-5.14,10.58-11.9,10.58h-14Zm12.79,15c5.17,0,7.19-2.06,7.19-5.58,0-3.2-2.26-5.48-6.46-5.48H88.1V35.36ZM88.11,52.5h8.81c4.49,0,7.6-2.13,7.6-6.63,0-3.92-2.49-6.56-8.5-6.56H88.11Z"/><path id="Tracé_24190" data-name="Tracé 24190" class="cls-1" d="M118.55,44.09c0,5.36,2.72,9.17,7.16,9.17,4.14,0,5.48-2.15,6.32-4.08h4.55c-1,3.37-3.84,7.88-11,7.88-8.23,0-11.59-6.73-11.59-13.52,0-7.83,3.92-14.08,11.88-14.08,8.44,0,11.21,6.82,11.21,12.44,0,.8,0,1.48-.07,2.19Zm13.93-3.21c0-4.33-2.21-7.81-6.69-7.81s-6.62,3.22-7.09,7.81Z"/><path id="Tracé_24191" data-name="Tracé 24191" class="cls-1" d="M203.46,44.09c0,5.36,2.72,9.17,7.16,9.17,4.14,0,5.48-2.15,6.32-4.08h4.55c-1,3.37-3.84,7.88-11,7.88-8.23,0-11.59-6.73-11.59-13.52,0-7.83,3.92-14.08,11.88-14.08,8.44,0,11.21,6.82,11.21,12.44,0,.8,0,1.48-.07,2.19Zm13.93-3.21c0-4.33-2.21-7.81-6.69-7.81s-6.62,3.22-7.08,7.81Z"/><path id="Tracé_24192" data-name="Tracé 24192" class="cls-1" d="M165.33,43.24c0,7.57-4.31,13.82-12.29,13.82-7.48,0-12-5.83-12-13.74s4.44-13.8,12.3-13.8c7.25,0,12,5.47,12,13.72m-19.65,0c0,5.77,2.86,10,7.55,10s7.46-4,7.46-10-2.67-10-7.57-10-7.44,4-7.44,10"/><path id="Tracé_24193" data-name="Tracé 24193" class="cls-1" d="M175.7,53.14V66.68h-4.48V36.55c0-2.14,0-4.36-.05-6.4h4.37c.1.88.16,2.46.16,4.13,1.41-2.65,4.05-4.75,8.52-4.75,6,0,10.4,5.08,10.4,13.06,0,9.37-5,14.4-11.34,14.4-4.2,0-6.41-1.78-7.58-3.86M190,42.77c0-5.56-2.51-9.36-7-9.36-5.4,0-7.53,3.43-7.53,9.81,0,6.2,1.75,10,7.19,10,4.76,0,7.3-3.94,7.3-10.4"/><path id="Tracé_24194" data-name="Tracé 24194" class="cls-1" d="M227.65,36.8c0-2.28,0-4.58-.06-6.62H232c.12.77.19,3.54.18,4.32,1-2.26,3.17-4.95,8.23-4.95,4.9,0,8.73,3,8.73,10V56.46h-4.51V40.14c0-4-1.55-6.65-5.54-6.65-4.92,0-6.91,3.77-6.91,9.06V56.46h-4.51Z"/><path id="Tracé_24195" data-name="Tracé 24195" class="cls-1" d="M280.83,20.34v4.12h11.51v32h4.76v-32h11.5V20.34Z"/><rect id="Rectangle_8281" data-name="Rectangle 8281" class="cls-1" x="270.59" y="20.34" width="4.75" height="36.11"/></g><g id="Groupe_22926" data-name="Groupe 22926"><path id="Tracé_24196" data-name="Tracé 24196" class="cls-1" d="M308.52,47.74a4.33,4.33,0,0,0-4.33,4.34h0a4.33,4.33,0,0,0,8.66,0h0a4.33,4.33,0,0,0-4.33-4.34Zm0,8a3.68,3.68,0,1,1,0-7.35h0a3.67,3.67,0,0,1,3.68,3.67h0a3.68,3.68,0,0,1-3.68,3.68h0Z"/></g><path id="Tracé_24197" data-name="Tracé 24197" class="cls-1" d="M308.08,52.33v1.51h-1v-4h1.58a2,2,0,0,1,1.16.27,1,1,0,0,1,.36.84,1,1,0,0,1-.19.65,1.09,1.09,0,0,1-.57.37.86.86,0,0,1,.38.22,1.77,1.77,0,0,1,.33.52l.57,1.13h-1.1l-.49-1a1.12,1.12,0,0,0-.3-.41.64.64,0,0,0-.4-.11Zm.43-.71a.74.74,0,0,0,.46-.12.52.52,0,0,0,.15-.4.5.5,0,0,0-.15-.4.68.68,0,0,0-.46-.11h-.43v1Z"/><path id="Tracé_24198" data-name="Tracé 24198" class="cls-1" d="M83.46,20.34h13.7c7.55,0,11.06,4,11.06,9,0,4.2-2.39,6.93-5.12,7.87a8.9,8.9,0,0,1,6.3,8.65c0,6.81-5.14,10.58-11.9,10.58h-14Zm12.79,15c5.17,0,7.19-2.06,7.19-5.58,0-3.2-2.26-5.48-6.46-5.48H88.1V35.36ZM88.11,52.5h8.81c4.49,0,7.6-2.13,7.6-6.63,0-3.92-2.49-6.56-8.5-6.56H88.11Z"/><path id="Tracé_24199" data-name="Tracé 24199" class="cls-1" d="M118.55,44.09c0,5.36,2.72,9.17,7.16,9.17,4.14,0,5.48-2.15,6.32-4.08h4.55c-1,3.37-3.84,7.88-11,7.88-8.23,0-11.59-6.73-11.59-13.52,0-7.83,3.92-14.08,11.88-14.08,8.44,0,11.21,6.82,11.21,12.44,0,.8,0,1.48-.07,2.19Zm13.93-3.21c0-4.33-2.21-7.81-6.69-7.81s-6.62,3.22-7.09,7.81Z"/><path id="Tracé_24200" data-name="Tracé 24200" class="cls-1" d="M203.46,44.09c0,5.36,2.72,9.17,7.16,9.17,4.14,0,5.48-2.15,6.32-4.08h4.55c-1,3.37-3.84,7.88-11,7.88-8.23,0-11.59-6.73-11.59-13.52,0-7.83,3.92-14.08,11.88-14.08,8.44,0,11.21,6.82,11.21,12.44,0,.8,0,1.48-.07,2.19Zm13.93-3.21c0-4.33-2.21-7.81-6.69-7.81s-6.62,3.22-7.08,7.81Z"/><path id="Tracé_24201" data-name="Tracé 24201" class="cls-1" d="M165.33,43.24c0,7.57-4.31,13.82-12.29,13.82-7.48,0-12-5.83-12-13.74s4.44-13.8,12.3-13.8c7.25,0,12,5.47,12,13.72m-19.65,0c0,5.77,2.86,10,7.55,10s7.46-4,7.46-10-2.67-10-7.57-10-7.44,4-7.44,10"/><path id="Tracé_24202" data-name="Tracé 24202" class="cls-1" d="M175.7,53.14V66.68h-4.48V36.55c0-2.14,0-4.36-.05-6.4h4.37c.1.88.16,2.46.16,4.13,1.41-2.65,4.05-4.75,8.52-4.75,6,0,10.4,5.08,10.4,13.06,0,9.37-5,14.4-11.34,14.4-4.2,0-6.41-1.78-7.58-3.86M190,42.77c0-5.56-2.51-9.36-7-9.36-5.4,0-7.53,3.43-7.53,9.81,0,6.2,1.75,10,7.19,10,4.76,0,7.3-3.94,7.3-10.4"/><path id="Tracé_24203" data-name="Tracé 24203" class="cls-1" d="M227.65,36.8c0-2.28,0-4.58-.06-6.62H232c.12.77.19,3.54.18,4.32,1-2.26,3.17-4.95,8.23-4.95,4.9,0,8.73,3,8.73,10V56.46h-4.51V40.14c0-4-1.55-6.65-5.54-6.65-4.92,0-6.91,3.77-6.91,9.06V56.46h-4.51Z"/><path id="Tracé_24204" data-name="Tracé 24204" class="cls-1" d="M280.83,20.34v4.12h11.51v32h4.76v-32h11.5V20.34Z"/><rect id="Rectangle_8282" data-name="Rectangle 8282" class="cls-1" x="270.59" y="20.34" width="4.75" height="36.11"/></g></g><g id="Groupe_22929" data-name="Groupe 22929"><path id="Tracé_24205" data-name="Tracé 24205" class="cls-2" d="M29.06,38.84a17.48,17.48,0,0,1-.28-3h0A17.48,17.48,0,0,0,29.06,38.84Z"/><path id="Tracé_24206" data-name="Tracé 24206" class="cls-2" d="M28.78,35.86a17.58,17.58,0,0,0,.28,3,24.26,24.26,0,0,0,1.22,4.25c.1.27.2.55.32.82V39.77h0A11.65,11.65,0,0,1,28.78,35.86Z"/><path id="Tracé_24207" data-name="Tracé 24207" class="cls-2" d="M45.7,42.23c1.37,0,2.3-.06,2.3-.06l.65,0,5,4.91,2.69-2.21V40.66L51,32.49H31.31a9.31,9.31,0,0,0,3,7.26C35.76,41.3,40,42.23,45.7,42.23Z"/><path id="Tracé_24208" data-name="Tracé 24208" class="cls-2" d="M30.6,24.78h0V13.91c-2.6,2.5-5.5,4.83-8.19,5.92S14.18,25.44,9.82,32.49h16.4a14,14,0,0,1,2.4-5.37,12.17,12.17,0,0,1,1-1.25Z"/><path id="Tracé_24209" data-name="Tracé 24209" class="cls-3" d="M22.41,19.83c2.68-1.09,5.59-3.42,8.19-5.92V9.78c-2.83,3-6.29,6.14-9.28,7.35-2.37,1-5.55,3.44-8.5,6.63a46.73,46.73,0,0,0-6.37,8.73H9.82C14.18,25.44,19.77,20.9,22.41,19.83Z"/><path id="Tracé_24210" data-name="Tracé 24210" class="cls-4" d="M36.09,8,36.41,14l11,9.47.79,4.61L51,32.49h3.48L51,27l-.86-5L39.25,12.65,38.56,0l-2.4,3.22a84.79,84.79,0,0,1-5.57,6.57v4.12A75.39,75.39,0,0,0,36.09,8Z"/><path id="Tracé_24211" data-name="Tracé 24211" class="cls-3" d="M9.82,32.49H6.44a43.63,43.63,0,0,0-2.37,4.86,39.91,39.91,0,0,0-1.69,4.9,3.2,3.2,0,0,0,.82,6.29h0a3.2,3.2,0,0,0,3.2-3.2h0a3.18,3.18,0,0,0-1.18-2.48,39.39,39.39,0,0,1,1.52-4.4A41.58,41.58,0,0,1,9.82,32.49Z"/><path id="Tracé_24212" data-name="Tracé 24212" class="cls-5" d="M30.6,32.49v7.28h0c.22.32.46.64.71,1V32.49Z"/><path id="Tracé_24214" data-name="Tracé 24214" class="cls-6" d="M54.51,32.49H51l5.33,8.17v4.17L53.68,47l-5-4.91-.64,0s-.94.06-2.3.06c-5.68,0-10-.93-11.4-2.48a9.31,9.31,0,0,1-3-7.26v8.24c.27.33.56.66.88,1,2.64,2.8,8.81,3.4,13.52,3.4.77,0,1.4,0,1.84,0l6,5.83,5.75-4.73V39.79Z"/><path id="Tracé_24215" data-name="Tracé 24215" class="cls-5" d="M28.78,35.86h0a11.82,11.82,0,0,0,1.81,3.91V32.49h.72a25.62,25.62,0,0,1,.8-5.3l1.34-5.58-2.86,3.17h0l-1,1.09a14.79,14.79,0,0,0-1,1.25,13.84,13.84,0,0,0-2.39,5.37c-1.06,5,.41,11,4.37,17.86.4.7.83,1.4,1.28,2.12a81.21,81.21,0,0,0,7.75,10.05,3.19,3.19,0,0,1,2-2.07c-3.57-4-8.46-10.2-11.07-16.54-.12-.27-.22-.55-.32-.82a24.26,24.26,0,0,1-1.22-4.25A17.58,17.58,0,0,1,28.78,35.86Z"/><path id="Tracé_24216" data-name="Tracé 24216" class="cls-5" d="M28.78,35.86a11.65,11.65,0,0,0,1.82,3.91h0A11.65,11.65,0,0,1,28.78,35.86Z"/><path id="Tracé_24217" data-name="Tracé 24217" class="cls-5" d="M30.27,43.09a25,25,0,0,1-1.21-4.26A25,25,0,0,0,30.27,43.09Z"/><path id="Tracé_24218" data-name="Tracé 24218" class="cls-5" d="M30.6,24.78h0l-1,1.09a13.35,13.35,0,0,0-1,1.25,13.35,13.35,0,0,1,1-1.25Z"/><path id="Tracé_24219" data-name="Tracé 24219" class="cls-5" d="M45.66,64.63a3,3,0,0,0,.22-1.15,3.2,3.2,0,0,0-3.2-3.2h0a3.49,3.49,0,0,0-1,.16C43.53,62.53,45,64,45.66,64.63Z"/><path id="Tracé_24220" data-name="Tracé 24220" class="cls-5" d="M39.63,62.52a3.15,3.15,0,0,0-.15,1,3.2,3.2,0,0,0,3.2,3.2h0A3.18,3.18,0,0,0,45.5,65H41.92C41.26,64.31,40.48,63.48,39.63,62.52Z"/><path id="Tracé_24221" data-name="Tracé 24221" class="cls-5" d="M39.63,62.52c.85,1,1.63,1.79,2.29,2.47h3.59a3.88,3.88,0,0,0,.15-.36c-.62-.61-2.13-2.1-4-4.19A3.23,3.23,0,0,0,39.63,62.52Z"/></g></g></svg>