<svg width="45" height="42" viewBox="0 0 45 42" fill="none" xmlns="http://www.w3.org/2000/svg">
<path d="M39.4393 37.8086L32.6443 35.563L31.455 36.1522C28.7229 37.5028 25.6854 38.2226 22.5 38.2226C11.8607 38.2226 3.21429 29.922 3.21429 20.7039C3.21429 11.4859 11.8607 3.18522 22.5 3.18522C33.1393 3.18522 41.7857 11.4859 41.7857 20.7039C41.7857 24.144 40.5321 27.635 38.2275 30.6195L37.1186 32.0529L39.4425 37.8054L39.4393 37.8086ZM41.7118 41.9175C42.0027 42.0141 42.3153 42.0261 42.6129 41.9523C42.9105 41.8784 43.1805 41.7217 43.3911 41.5006C43.6016 41.2795 43.744 41.0034 43.8012 40.7047C43.8585 40.4061 43.8283 40.0974 43.7143 39.8153L40.7829 32.5529C43.4571 29.0811 45 24.9275 45 20.7039C45 10.1481 35.3571 0 22.5 0C9.64286 0 1.43051e-06 10.1481 1.43051e-06 20.7039C1.43051e-06 31.2597 9.64286 41.4079 22.5 41.4079C26.1059 41.4179 29.6643 40.5934 32.8918 38.9998L41.7118 41.9143V41.9175Z" fill="white"/>
<path d="M23 24C23.3318 24 23.6603 23.9224 23.9668 23.7716C24.2733 23.6209 24.5518 23.3999 24.7864 23.1213C25.021 22.8427 25.2071 22.512 25.334 22.148C25.461 21.7841 25.5263 21.394 25.5263 21C25.5263 20.606 25.461 20.2159 25.334 19.852C25.2071 19.488 25.021 19.1573 24.7864 18.8787C24.5518 18.6001 24.2733 18.3791 23.9668 18.2284C23.6603 18.0776 23.3318 18 23 18C22.33 18 21.6874 18.3161 21.2136 18.8787C20.7398 19.4413 20.4737 20.2044 20.4737 21C20.4737 21.7956 20.7398 22.5587 21.2136 23.1213C21.6874 23.6839 22.33 24 23 24V24ZM13.5263 24C13.8581 24 14.1866 23.9224 14.4931 23.7716C14.7996 23.6209 15.0781 23.3999 15.3127 23.1213C15.5473 22.8427 15.7334 22.512 15.8603 22.148C15.9873 21.7841 16.0526 21.394 16.0526 21C16.0526 20.606 15.9873 20.2159 15.8603 19.852C15.7334 19.488 15.5473 19.1573 15.3127 18.8787C15.0781 18.6001 14.7996 18.3791 14.4931 18.2284C14.1866 18.0776 13.8581 18 13.5263 18C12.8563 18 12.2137 18.3161 11.7399 18.8787C11.2662 19.4413 11 20.2044 11 21C11 21.7956 11.2662 22.5587 11.7399 23.1213C12.2137 23.6839 12.8563 24 13.5263 24V24ZM32.4737 24C32.8054 24 33.134 23.9224 33.4405 23.7716C33.747 23.6209 34.0255 23.3999 34.2601 23.1213C34.4946 22.8427 34.6807 22.512 34.8077 22.148C34.9347 21.7841 35 21.394 35 21C35 20.606 34.9347 20.2159 34.8077 19.852C34.6807 19.488 34.4946 19.1573 34.2601 18.8787C34.0255 18.6001 33.747 18.3791 33.4405 18.2284C33.134 18.0776 32.8054 18 32.4737 18C31.8037 18 31.1611 18.3161 30.6873 18.8787C30.2135 19.4413 29.9474 20.2044 29.9474 21C29.9474 21.7956 30.2135 22.5587 30.6873 23.1213C31.1611 23.6839 31.8037 24 32.4737 24Z" fill="white"/>
</svg>
