<svg id="Calque_1" data-name="Calque 1" xmlns="http://www.w3.org/2000/svg" viewBox="0 0 380.06 130.48"><defs><style>.cls-1{fill:none;}.cls-2{fill:#517bbd;}.cls-3{fill:#199e58;}.cls-4{fill:#fff;}</style></defs><g id="Groupe_37077" data-name="Groupe 37077"><path id="Tracé_37008" data-name="Tracé 37008" class="cls-1" d="M375.07,5.24c0-.89-.72-1.34-2.14-1.34-.46,0-.84,0-1.14,0V6.58h1.33C374.42,6.57,375.07,6.12,375.07,5.24Z"/><path id="Tracé_37009" data-name="Tracé 37009" class="cls-1" d="M373.18,1.12a5.76,5.76,0,1,0,5.76,5.76A5.75,5.75,0,0,0,373.18,1.12Zm2.12,9.59c-.31-2.21-1-3.31-2.14-3.31h-1.37v3.32H370.7V3.24A11.92,11.92,0,0,1,372.92,3a4.1,4.1,0,0,1,2.32.58,1.81,1.81,0,0,1,.86,1.57,2,2,0,0,1-1.32,1.88,2.54,2.54,0,0,1,1,1.17,10.66,10.66,0,0,1,.63,2.5Z"/><path id="Tracé_37011" data-name="Tracé 37011" class="cls-2" d="M374.78,7.05h0a2,2,0,0,0,1.32-1.89,1.78,1.78,0,0,0-.86-1.56A4.1,4.1,0,0,0,372.9,3a12.82,12.82,0,0,0-2.22.2V10.7h1.09V7.39h1.37c1.12,0,1.83,1.1,2.14,3.31h1.09a10.66,10.66,0,0,0-.63-2.5A2.56,2.56,0,0,0,374.78,7.05Zm-1.65-.47H371.8V3.94c.29,0,.68,0,1.13,0,1.43,0,2.14.45,2.14,1.34s-.65,1.34-1.94,1.35Z"/><path id="Tracé_37012" data-name="Tracé 37012" class="cls-2" d="M37.4,92A37.76,37.76,0,0,1,26.58,65.36,38.23,38.23,0,0,1,37.4,38.48a35.85,35.85,0,0,1,26-11.1v0A36.15,36.15,0,0,1,85.62,35l19-19.27A62.28,62.28,0,0,0,63.41.1C28.47.1,0,29.31,0,65.34c0,35.83,28.48,65,63.41,65A63.2,63.2,0,0,0,104.62,115l-19-19.48A36.14,36.14,0,0,1,37.4,92Z"/><path id="Tracé_37013" data-name="Tracé 37013" class="cls-2" d="M197.83,66.59,116,1.93v126.6h29.62V66.8l81.82,61.74V1.94H197.82Z"/><path id="Tracé_37014" data-name="Tracé 37014" class="cls-3" d="M298.47,0c-35.13,0-63.59,29.21-63.59,65.24s28.47,65.24,63.59,65.24,63.59-29.21,63.59-65.24S333.6,0,298.47,0Zm42.31,75.27a2.44,2.44,0,0,1-3.06,1.55h-.09c-.21-.06-.46-.09-.63-.14a19.15,19.15,0,0,1-2.18-.83l-.73-.28a38.62,38.62,0,0,1-9.4,16.55h0a36.73,36.73,0,0,1-8.15,6.32c0,.07.09.15.15.22a22.19,22.19,0,0,1,1.29,1.92l.32.65a2.44,2.44,0,0,1-.06,2.55,2.48,2.48,0,0,1-1.17,1A2.43,2.43,0,0,1,314,103.3l-.29-.61a19.74,19.74,0,0,1-.71-2.22l-.06-.2a36.59,36.59,0,0,1-28.95-.09c0,.12-.07.22-.1.34a21,21,0,0,1-.7,2.21l-.3.61a1.84,1.84,0,0,1-.17.38,2.43,2.43,0,0,1-4.19-2.45l.32-.65a20.37,20.37,0,0,1,1.3-1.93l.22-.33A36.77,36.77,0,0,1,273.15,93c-.3-.27-.57-.56-.83-.83a38.63,38.63,0,0,1-9.42-16.54q-.48.17-1,.36c-.71.3-1.43.56-2.17.79l-.66.07h0a2.42,2.42,0,1,1-1.53-4.6,3.63,3.63,0,0,1,.45-.1h.1l.64-.16a22.43,22.43,0,0,1,2.32-.18c.33,0,.66-.05,1-.09a38.77,38.77,0,0,1,6-28c-.19-.12-.38-.24-.58-.35a20.22,20.22,0,0,1-2-1.17l-.49-.39a2.58,2.58,0,0,1-.59-3.57,2.35,2.35,0,0,1,1.93-.85A2.88,2.88,0,0,1,268,38l.54.43a22.76,22.76,0,0,1,1.58,1.68l.36.38c.58-.72,1.21-1.42,1.86-2.1a36.33,36.33,0,0,1,24.07-11c-.14-.72-.24-1.44-.31-2.17v-.69a2.55,2.55,0,0,1,2.38-2.68l0,0a2.57,2.57,0,0,1,2.38,2.69v.69a19.15,19.15,0,0,1-.3,2.13,36.36,36.36,0,0,1,23.34,10.21c.26.26.55.53.82.82.61.64,1.19,1.3,1.76,2a3.74,3.74,0,0,0,.25-.29,23,23,0,0,1,1.59-1.69l.54-.43a2.44,2.44,0,0,1,3.46,3.43,3,3,0,0,1-.45.35l-.53.43a20.22,20.22,0,0,1-2,1.17l-.42.26A38.81,38.81,0,0,1,335,71.68c.27,0,.54.06.81.07a22.64,22.64,0,0,1,2.32.18l.71.16a2.41,2.41,0,0,1,2.08,2.72,2.07,2.07,0,0,1-.1.43Z"/><path id="Tracé_37015" data-name="Tracé 37015" class="cls-2" d="M378.05,2a6.89,6.89,0,1,0,2,4.86A6.89,6.89,0,0,0,378.05,2Zm-4.87,10.61a5.76,5.76,0,1,1,5.76-5.75h0a5.75,5.75,0,0,1-5.76,5.75Z"/><path id="Tracé_37016" data-name="Tracé 37016" class="cls-4" d="M280.05,98.7a21,21,0,0,0-1.3,1.93l-.31.65a2.42,2.42,0,1,0,4.18,2.44,2.12,2.12,0,0,0,.18-.37l.29-.61a19.68,19.68,0,0,0,.7-2.22c0-.11.07-.22.11-.33a34.24,34.24,0,0,1-3.63-1.83A4,4,0,0,1,280.05,98.7Z"/><path id="Tracé_37017" data-name="Tracé 37017" class="cls-4" d="M312.92,100.48a19.68,19.68,0,0,0,.7,2.22l.3.61a2.43,2.43,0,0,0,3.11,1.43,2.56,2.56,0,0,0,1.18-.95,2.44,2.44,0,0,0,.06-2.55l-.32-.65a20.86,20.86,0,0,0-1.3-1.92l-.15-.22a34.85,34.85,0,0,1-3.67,1.83A.72.72,0,0,1,312.92,100.48Z"/><path id="Tracé_37018" data-name="Tracé 37018" class="cls-4" d="M300.52,27.34a19.3,19.3,0,0,0,.29-2.14v-.68a2.55,2.55,0,0,0-2.37-2.69l0,0A2.54,2.54,0,0,0,296,24.47v.69a20.06,20.06,0,0,0,.31,2.18A36.43,36.43,0,0,1,300.52,27.34Z"/><path id="Tracé_37019" data-name="Tracé 37019" class="cls-4" d="M339.23,72.21a2.16,2.16,0,0,0-.44-.1l-.71-.16a20,20,0,0,0-2.32-.17L335,71.7c-.22,1.3-.51,2.59-.86,3.87l.73.27a21.31,21.31,0,0,0,2.18.84c.17,0,.43.08.63.14h.09a2.43,2.43,0,0,0,1.51-4.61Z"/><path id="Tracé_37020" data-name="Tracé 37020" class="cls-4" d="M329.29,43.31a21,21,0,0,0,2-1.18l.53-.42a2.43,2.43,0,1,0-2.56-4.14,2.54,2.54,0,0,0-.45.36l-.54.42A20.94,20.94,0,0,0,326.69,40a3.73,3.73,0,0,0-.26.3,38.33,38.33,0,0,1,2.44,3.22Z"/><path id="Tracé_37021" data-name="Tracé 37021" class="cls-4" d="M261,71.77a22.43,22.43,0,0,0-2.32.18l-.63.16H258a2.42,2.42,0,0,0,.64,4.8,2.16,2.16,0,0,0,.44-.1h.05l.66-.08A20.59,20.59,0,0,0,261.9,76l1-.36c-.35-1.29-.64-2.59-.86-3.91C261.67,71.73,261.34,71.75,261,71.77Z"/><path id="Tracé_37022" data-name="Tracé 37022" class="cls-4" d="M270.05,40.1a19.27,19.27,0,0,0-1.58-1.68l-.54-.43a2.89,2.89,0,0,0-1.68-.64,2.36,2.36,0,0,0-1.93.86,2.57,2.57,0,0,0,.59,3.56l.49.4a22.38,22.38,0,0,0,2,1.17l.58.34a39.67,39.67,0,0,1,2.41-3.22Z"/></g></svg>