<svg id="Calque_1" data-name="Calque 1" xmlns="http://www.w3.org/2000/svg" viewBox="0 0 235.79 80.95"><defs><style>.cls-1{fill:none;}.cls-2{fill:#fff;}</style></defs><path class="cls-1" d="M230.64,4.58V6.64h0V4.59h.86a.82.82,0,0,1,.46.13.86.86,0,0,0-.47-.14Z"/><path class="cls-1" d="M228,4.27a3,3,0,0,0,.05.52,3,3,0,0,1-.05-.52Z"/><path class="cls-1" d="M231.36,2.42c.66,0,1.08.16,1.24.46-.16-.31-.58-.46-1.24-.46l-.7,0V4.08h0V2.45A6.67,6.67,0,0,1,231.36,2.42Z"/><path class="cls-1" d="M232.5,4.37h0a1.23,1.23,0,0,0,.82-1.17,1.14,1.14,0,0,0-.31-.79,1.17,1.17,0,0,1,.3.78A1.23,1.23,0,0,1,232.5,4.37Z"/><path class="cls-1" d="M228,3.74c0-.06,0-.13,0-.19S228,3.68,228,3.74Z"/><path class="cls-1" d="M210.21,44.73l-.44-.1a11.63,11.63,0,0,0-1.44-.11l-.5-.05A24.05,24.05,0,0,0,204.05,27a2.4,2.4,0,0,1,.27-.16c.42-.22.84-.46,1.24-.72l.33-.27A1.51,1.51,0,1,0,204,23.53l-.33.26a12.29,12.29,0,0,0-1,1.05,1.37,1.37,0,0,1-.16.18c-.35-.42-.71-.82-1.09-1.22-.16-.18-.34-.34-.51-.51A22.53,22.53,0,0,0,186.47,17q.12-.66.18-1.32v-.43a1.59,1.59,0,0,0-1.47-1.67l0,0a1.59,1.59,0,0,0-1.48,1.66v.42c0,.46.11.91.19,1.36a22.52,22.52,0,0,0-14.93,6.84c-.4.42-.79.86-1.15,1.3l-.22-.23a14,14,0,0,0-1-1.05l-.33-.26a1.74,1.74,0,0,0-1.05-.39,1.41,1.41,0,0,0-1.19.53,1.59,1.59,0,0,0,.36,2.21l.31.24a13,13,0,0,0,1.24.73l.37.21a24,24,0,0,0-3.73,17.37l-.61,0a13.53,13.53,0,0,0-1.44.12l-.4.1h-.06l-.19,0a1.5,1.5,0,1,0,.86,2.87h0l.41,0a12.78,12.78,0,0,0,1.35-.49l.6-.23a23.88,23.88,0,0,0,5.84,10.26c.17.17.33.35.52.52A22.6,22.6,0,0,0,173.9,61a2.39,2.39,0,0,1-.13.21q-.44.59-.81,1.2l-.2.4a1.51,1.51,0,1,0,2.6,1.52,1,1,0,0,0,.11-.23l.18-.38a11.07,11.07,0,0,0,.44-1.38l.06-.2a22.69,22.69,0,0,0,18,.05s0,.08,0,.13a13.63,13.63,0,0,0,.44,1.37l.18.38a1.51,1.51,0,0,0,1.94.89,1.54,1.54,0,0,0,.72-.59,1.5,1.5,0,0,0,0-1.58l-.2-.4a13.84,13.84,0,0,0-.81-1.19l-.09-.14a22.42,22.42,0,0,0,5.06-3.92,24,24,0,0,0,5.83-10.27l.46.17a11.05,11.05,0,0,0,1.35.52c.1,0,.26,0,.39.09h.07a1.48,1.48,0,0,0,1.88-1h0a1.4,1.4,0,0,0,.06-.28A1.49,1.49,0,0,0,210.21,44.73Z"/><path class="cls-1" d="M235.07,4.06c0,.07,0,.14,0,.21h0C235.09,4.19,235.07,4.13,235.07,4.06Z"/><path class="cls-1" d="M232.86,4.69a1.8,1.8,0,0,1,.25.4,6.91,6.91,0,0,1,.39,1.55h0a6.91,6.91,0,0,0-.39-1.55A1.59,1.59,0,0,0,232.86,4.69Z"/><path class="cls-1" d="M231.52,7.84A3.57,3.57,0,0,1,228,5a3.57,3.57,0,0,0,3.5,2.86h0a3.58,3.58,0,0,0,3.57-3.56A3.58,3.58,0,0,1,231.52,7.84Z"/><path class="cls-2" d="M233.11,5.09a1.8,1.8,0,0,0-.25-.4,1.47,1.47,0,0,0-.35-.31h0a1.23,1.23,0,0,0,.82-1.17,1.17,1.17,0,0,0-.3-.78,1,1,0,0,0-.23-.18,2.49,2.49,0,0,0-1.43-.36A7.16,7.16,0,0,0,230,2V6.64h.66V4.58h.86a.86.86,0,0,1,.47.14c.43.25.71.89.86,1.92h.67A6.91,6.91,0,0,0,233.11,5.09Zm-1.62-1h-.83V2.44l.7,0c.66,0,1.08.15,1.24.46a.75.75,0,0,1,.09.37C232.69,3.8,232.29,4.08,231.49,4.08Z"/><path class="cls-2" d="M232,4.72a2.61,2.61,0,0,1,.85,1.92h0C232.68,5.61,232.4,5,232,4.72Z"/><path class="cls-2" d="M232.86,4.69a1.3,1.3,0,0,0-.35-.31h0A1.47,1.47,0,0,1,232.86,4.69Z"/><path class="cls-2" d="M231.36,1.88a2.49,2.49,0,0,1,1.43.36,1,1,0,0,1,.23.18,1.12,1.12,0,0,0-.24-.19,2.49,2.49,0,0,0-1.43-.36A7,7,0,0,0,230,2V6.64h0V2A7.16,7.16,0,0,1,231.36,1.88Z"/><path class="cls-2" d="M23.21,57.1a23.46,23.46,0,0,1-6.72-16.55,23.7,23.7,0,0,1,6.72-16.68A22.23,22.23,0,0,1,39.34,17h0a22.46,22.46,0,0,1,13.78,4.71L64.9,9.73A38.74,38.74,0,0,0,39.34.06C17.66.06,0,18.19,0,40.54S17.67,80.9,39.34,80.9A39.19,39.19,0,0,0,64.9,71.36L53.12,59.28A22.41,22.41,0,0,1,23.21,57.1Z"/><polygon class="cls-2" points="122.74 41.31 71.98 1.2 71.98 79.74 90.35 79.74 90.35 41.44 141.11 79.74 141.11 1.21 122.73 1.21 122.74 41.31"/><path class="cls-2" d="M185.17,0c-21.79,0-39.45,18.12-39.45,40.48S163.38,81,185.17,81s39.45-18.12,39.45-40.47S207,0,185.17,0ZM211.5,46.41a1.4,1.4,0,0,1-.06.28h0a1.48,1.48,0,0,1-1.88,1h-.07c-.13,0-.29-.06-.39-.09a11.05,11.05,0,0,1-1.35-.52l-.46-.17a24,24,0,0,1-5.83,10.27,22.42,22.42,0,0,1-5.06,3.92l.09.14a13.84,13.84,0,0,1,.81,1.19l.2.4a1.5,1.5,0,0,1,0,1.58,1.54,1.54,0,0,1-.72.59,1.51,1.51,0,0,1-1.94-.89l-.18-.38a13.63,13.63,0,0,1-.44-1.37s0-.09,0-.13a22.69,22.69,0,0,1-18-.05l-.06.2a11.07,11.07,0,0,1-.44,1.38l-.18.38a1,1,0,0,1-.11.23,1.51,1.51,0,1,1-2.6-1.52l.2-.4q.38-.62.81-1.2a2.39,2.39,0,0,0,.13-.21,22.6,22.6,0,0,1-4.44-3.35c-.19-.17-.35-.35-.52-.52a23.88,23.88,0,0,1-5.84-10.26l-.6.23a12.78,12.78,0,0,1-1.35.49l-.41,0h0a1.5,1.5,0,1,1-.86-2.87l.19,0h.06l.4-.1a13.53,13.53,0,0,1,1.44-.12l.61,0a24,24,0,0,1,3.73-17.37l-.37-.21a13,13,0,0,1-1.24-.73l-.31-.24A1.59,1.59,0,0,1,164,23.7a1.41,1.41,0,0,1,1.19-.53,1.74,1.74,0,0,1,1.05.39l.33.26a14,14,0,0,1,1,1.05l.22.23c.36-.44.75-.88,1.15-1.3A22.52,22.52,0,0,1,183.87,17c-.08-.45-.15-.9-.19-1.36v-.42a1.59,1.59,0,0,1,1.48-1.66l0,0a1.59,1.59,0,0,1,1.47,1.67v.43q-.06.66-.18,1.32a22.53,22.53,0,0,1,14.47,6.33c.17.17.35.33.51.51.38.4.74.8,1.09,1.22a1.37,1.37,0,0,0,.16-.18,12.29,12.29,0,0,1,1-1.05l.33-.26a1.51,1.51,0,1,1,1.87,2.34l-.33.27c-.4.26-.82.5-1.24.72a2.4,2.4,0,0,0-.27.16,24.05,24.05,0,0,1,3.78,17.45l.5.05a11.63,11.63,0,0,1,1.44.11l.44.1A1.49,1.49,0,0,1,211.5,46.41Z"/><path class="cls-2" d="M234.54,1.25a4.27,4.27,0,1,0,1.25,3A4.28,4.28,0,0,0,234.54,1.25Zm.55,3h0a3.58,3.58,0,0,1-3.57,3.56h0A3.57,3.57,0,0,1,228,5c0-.06,0-.12,0-.19a3,3,0,0,1-.05-.52h0a3.15,3.15,0,0,1,.05-.52c0-.06,0-.13,0-.19a3.56,3.56,0,0,1,7,.51c0,.07,0,.13,0,.2Z"/><path class="cls-2" d="M231.52.7a3.55,3.55,0,0,1,3.55,3.36,3.56,3.56,0,0,0-7-.51A3.56,3.56,0,0,1,231.52.7Z"/><path class="cls-2" d="M228,5c0-.06,0-.12,0-.19S228,4.92,228,5Z"/><polygon class="cls-2" points="235.09 4.27 235.09 4.27 235.09 4.28 235.09 4.27"/></svg>