<svg width="139" height="263" viewBox="0 0 139 263" fill="none" xmlns="http://www.w3.org/2000/svg">
<path d="M68.1399 76.0439V92.6839L59.9899 96.6039L50.3999 65.6039L68.1399 76.0439Z" fill="#517BBD"/>
<path d="M59.99 97.2739C59.8488 97.2719 59.7119 97.2254 59.5988 97.141C59.4857 97.0566 59.4021 96.9386 59.36 96.8039L49.77 65.8039C49.7423 65.7219 49.7315 65.6351 49.7383 65.5489C49.7451 65.4626 49.7693 65.3786 49.8095 65.3019C49.8497 65.2253 49.9051 65.1576 49.9722 65.1029C50.0393 65.0482 50.1168 65.0078 50.2 64.9839C50.2872 64.9538 50.3801 64.9436 50.4718 64.954C50.5634 64.9644 50.6517 64.9951 50.73 65.0439L68.47 75.4739C68.5681 75.5306 68.6495 75.6123 68.7057 75.7107C68.7619 75.8091 68.791 75.9206 68.79 76.0339V92.6739C68.7925 92.7989 68.759 92.922 68.6934 93.0284C68.6277 93.1349 68.5328 93.2201 68.42 93.2739L60.27 97.1739C60.1858 97.2288 60.0899 97.263 59.99 97.2739V97.2739ZM51.54 67.0139L60.39 95.6839L67.47 92.2639V76.4139L51.54 67.0139Z" fill="#191F31"/>
<path d="M17.93 2.94393C17.814 2.94345 17.7002 2.91241 17.6 2.85393C14.36 0.983933 10.96 0.853934 8.25005 2.37393C8.17454 2.41727 8.09123 2.44531 8.00488 2.45645C7.91854 2.46759 7.83084 2.46161 7.7468 2.43886C7.66277 2.41611 7.58404 2.37703 7.5151 2.32386C7.44617 2.27068 7.38838 2.20444 7.34505 2.12893C7.30171 2.05342 7.27367 1.97012 7.26253 1.88377C7.25139 1.79742 7.25736 1.70973 7.28011 1.62569C7.30287 1.54166 7.34195 1.46292 7.39512 1.39399C7.4483 1.32505 7.51454 1.26727 7.59005 1.22393V1.22393C10.71 -0.556068 14.59 -0.396066 18.26 1.71393C18.3851 1.78692 18.4827 1.899 18.5377 2.03291C18.5928 2.16682 18.6023 2.31512 18.5648 2.45496C18.5273 2.59481 18.4448 2.71843 18.3301 2.80679C18.2154 2.89515 18.0748 2.94334 17.93 2.94393V2.94393Z" fill="#191F31"/>
<path d="M73.6401 84.324L13.6401 49.8439C8.87009 47.0839 5.00009 39.6939 5.00009 33.3339V13.9139C5.00009 10.6839 1.85009 10.6139 3.45009 9.45395C3.58009 9.35395 9.94009 5.70395 10.0801 5.63395C11.5901 4.76395 13.5601 4.85395 15.7101 6.09395L75.7101 40.5739C80.4801 43.3339 84.3501 50.7239 84.3501 57.084V76.5139C84.3501 79.9939 83.1901 82.4439 81.3501 83.5139L74.8001 87.334C73.3301 88.084 75.7201 85.524 73.6401 84.324Z" fill="#517BBD"/>
<path d="M74.4701 88.1739C74.3507 88.1747 74.2327 88.1481 74.1252 88.0961C74.0177 88.0441 73.9236 87.9681 73.8501 87.8739C73.748 87.7052 73.6883 87.5143 73.6761 87.3175C73.6639 87.1207 73.6996 86.9239 73.7801 86.7439C73.9801 85.9439 74.0601 85.3539 73.3501 84.9439L13.3501 50.4639C8.4001 47.6039 4.3501 39.9439 4.3501 33.3839V13.9139C4.35596 13.4136 4.24621 12.9186 4.02939 12.4676C3.81257 12.0167 3.49455 11.6218 3.1001 11.3139C2.88242 11.166 2.7016 10.97 2.57158 10.7412C2.44155 10.5123 2.36578 10.2567 2.3501 9.99393C2.38432 9.7737 2.46656 9.56369 2.59099 9.37878C2.71541 9.19387 2.87898 9.03859 3.0701 8.92393C3.2601 8.79393 9.6901 5.10393 9.7601 5.06393C11.5301 4.06393 13.7601 4.21393 16.0501 5.53393L76.0501 40.0139C81.0501 42.8739 85.0501 50.5339 85.0501 57.0939V76.5039C85.0501 80.0939 83.8501 82.8539 81.7401 84.0639L75.1701 87.9039C74.9615 88.0481 74.7215 88.1407 74.4701 88.1739V88.1739ZM3.7801 10.1739L4.0601 10.4539C4.58328 10.8851 5.00375 11.4274 5.29091 12.0415C5.57807 12.6556 5.72469 13.326 5.7201 14.0039V33.3339C5.7201 39.4739 9.4501 46.6239 14.0301 49.2639L74.0301 83.7439C74.4819 83.9941 74.8414 84.3827 75.0557 84.8526C75.2699 85.3225 75.3276 85.8488 75.2201 86.3539L81.0901 82.9239C82.7801 81.9239 83.7501 79.6039 83.7501 76.5039V57.0939C83.7501 50.9439 80.0201 43.7939 75.4401 41.1539L15.4401 6.67393C13.5801 5.59393 11.8201 5.43393 10.4401 6.20393C10.1801 6.36393 4.1401 9.82393 3.8501 10.0039L3.7801 10.1739Z" fill="#191F31"/>
<path d="M77.96 81.084L84.15 77.554L77.96 81.084Z" fill="white"/>
<path d="M77.96 81.754C77.7841 81.7513 77.6162 81.6796 77.4927 81.5542C77.3692 81.4289 77.3 81.2599 77.3 81.084C77.3023 80.9688 77.3337 80.8561 77.3914 80.7564C77.4492 80.6566 77.5313 80.5732 77.6301 80.514L83.82 76.984C83.8946 76.9395 83.9773 76.9104 84.0633 76.8983C84.1493 76.8863 84.2368 76.8917 84.3207 76.914C84.4046 76.9364 84.4831 76.9754 84.5517 77.0286C84.6203 77.0818 84.6776 77.1483 84.72 77.224C84.771 77.3014 84.8051 77.3886 84.82 77.4801C84.835 77.5715 84.8306 77.6651 84.807 77.7547C84.7834 77.8444 84.7412 77.928 84.6832 78.0002C84.6251 78.0725 84.5525 78.1317 84.47 78.174L78.28 81.714C78.1787 81.7548 78.0684 81.7686 77.96 81.754V81.754Z" fill="#191F31"/>
<path d="M77.4099 55.634L83.5999 52.094L77.4099 55.634Z" fill="white"/>
<path d="M77.41 56.294C77.2358 56.2914 77.0694 56.221 76.9462 56.0978C76.823 55.9746 76.7526 55.8082 76.75 55.634C76.7493 55.5182 76.7795 55.4043 76.8375 55.3041C76.8955 55.2039 76.9792 55.121 77.08 55.064L83.28 51.524C83.3555 51.4813 83.4387 51.4539 83.5248 51.4434C83.6109 51.4328 83.6982 51.4394 83.7818 51.4626C83.8654 51.4858 83.9435 51.5252 84.0119 51.5787C84.0802 51.6321 84.1373 51.6985 84.18 51.774C84.2227 51.8495 84.2501 51.9327 84.2606 52.0188C84.2712 52.1048 84.2646 52.1922 84.2414 52.2757C84.2182 52.3593 84.1787 52.4375 84.1253 52.5058C84.0719 52.5742 84.0055 52.6313 83.93 52.674L77.74 56.174C77.6414 56.2402 77.5281 56.2814 77.41 56.294V56.294Z" fill="#191F31"/>
<path d="M71.3501 45.6039L77.6501 42.0039L71.3501 45.6039Z" fill="white"/>
<path d="M71.35 46.264C71.263 46.2653 71.1765 46.2492 71.0959 46.2165C71.0152 46.1838 70.9419 46.1352 70.8803 46.0737C70.8188 46.0121 70.7702 45.9388 70.7375 45.8581C70.7048 45.7774 70.6887 45.691 70.69 45.604C70.6903 45.4884 70.7209 45.3749 70.7788 45.2749C70.8367 45.1748 70.9199 45.0918 71.02 45.034L77.32 41.434C77.4713 41.3468 77.6509 41.3231 77.8196 41.3681C77.9883 41.4131 78.1322 41.5231 78.22 41.674C78.3051 41.8273 78.3276 42.0076 78.2829 42.1772C78.2382 42.3468 78.1296 42.4925 77.98 42.584L71.68 46.174C71.5787 46.2297 71.4656 46.2605 71.35 46.264V46.264Z" fill="#191F31"/>
<path d="M12.28 11.4939L18.58 7.89392L12.28 11.4939Z" fill="white"/>
<path d="M12.28 12.1739C12.1361 12.1693 11.9975 12.1184 11.8848 12.0288C11.772 11.9393 11.6912 11.8157 11.6541 11.6766C11.6171 11.5374 11.6259 11.3901 11.6792 11.2563C11.7325 11.1225 11.8274 11.0095 11.95 10.9339L18.25 7.33394C18.4025 7.24642 18.5835 7.22306 18.7533 7.26901C18.923 7.31495 19.0675 7.42644 19.155 7.57894C19.2425 7.73144 19.2659 7.91246 19.22 8.08218C19.174 8.2519 19.0625 8.39642 18.91 8.48394V8.48394L12.61 12.0839C12.5098 12.1424 12.396 12.1735 12.28 12.1739V12.1739Z" fill="#191F31"/>
<path d="M69.3199 44.3139L9.31993 9.83391C4.53993 7.08391 0.679932 10.0039 0.679932 16.3639V35.7839C0.679932 42.1439 4.53993 49.5439 9.31993 52.2939L44.0399 72.1739L60.0399 96.5939V81.4039L69.3399 86.7739C74.1099 89.5239 77.9799 86.6039 77.9799 80.2439V60.8239C77.9599 54.4639 74.0899 47.0739 69.3199 44.3139Z" fill="white"/>
<path d="M60.02 97.2739C59.9108 97.2725 59.8036 97.2444 59.7078 97.1922C59.6119 97.1399 59.5303 97.065 59.47 96.9739L43.57 72.6839L9 52.8639C4.06 50.0139 0 42.3439 0 35.7839V16.3639C0 11.3639 2.3 8.13391 5.87 8.13391C7.20082 8.17382 8.49766 8.56356 9.63 9.26391L69.63 43.7439C74.57 46.6039 78.63 54.2639 78.63 60.8239V80.2439C78.7164 82.3364 78.1617 84.4054 77.04 86.1739C76.5676 86.8782 75.9292 87.4554 75.1811 87.8548C74.4329 88.2541 73.598 88.4633 72.75 88.4639V88.4639C71.4208 88.4229 70.125 88.0369 68.99 87.3439L60.68 82.5439V96.6039C60.68 96.779 60.6105 96.9468 60.4867 97.0706C60.3629 97.1944 60.195 97.2639 60.02 97.2639V97.2739ZM5.91 9.46391C3.14 9.46391 1.36 12.1739 1.36 16.3639V35.7839C1.36 41.9239 5.08 49.0739 9.67 51.7239L44.37 71.6139C44.4573 71.6677 44.5322 71.7392 44.59 71.8239L59.36 94.3939V81.3939C59.36 81.2189 59.4295 81.051 59.5533 80.9272C59.6771 80.8034 59.845 80.7339 60.02 80.7339C60.1348 80.7343 60.2478 80.7617 60.35 80.8139L69.65 86.1839C70.5778 86.7832 71.6469 87.1281 72.75 87.1839V87.1839C73.388 87.185 74.0163 87.0274 74.5784 86.7254C75.1405 86.4234 75.6187 85.9865 75.97 85.4539C76.928 83.9019 77.3918 82.0955 77.3 80.2739V60.8239C77.3 54.6839 73.57 47.5339 68.99 44.8939L8.99 10.4139C8.06708 9.82683 7.00327 9.49871 5.91 9.46391V9.46391Z" fill="#191F31"/>
<path d="M33.78 48.6539L11.47 36.0039V38.0939L33.78 50.7439V48.6539Z" fill="#191F31"/>
<path d="M46.07 47.0539L11.47 27.3239V29.4139L46.07 49.1739V47.0539Z" fill="#191F31"/>
<path d="M25.58 39.5638L11.47 31.6638V33.7538L25.54 41.6538L25.58 39.5638Z" fill="#191F31"/>
<path d="M27.6299 40.7539V42.8439L55.3499 58.8439V56.7739L27.6299 40.7539Z" fill="#191F31"/>
<path d="M35.8401 49.8339V51.9239L51.8401 61.1439V59.0539L35.8401 49.8339Z" fill="#191F31"/>
<path d="M48.1299 50.3339L66.4699 60.9539V58.8639L48.1299 48.2439V50.3339Z" fill="#191F31"/>
<path d="M57.4099 60.0538L66.4699 65.2938V63.1738L57.3999 57.9338L57.4099 60.0538Z" fill="#191F31"/>
<path d="M11.47 25.0639L66.47 56.6139V54.5239L11.47 22.9739V25.0639Z" fill="#191F31"/>
<path d="M53.8599 62.3239L66.4699 69.6339V67.5439L53.8499 60.2439L53.8599 62.3239Z" fill="#191F31"/>
<path d="M11.47 42.4339L66.47 73.9739V71.8839L11.47 40.3439V42.4339Z" fill="#191F31"/>
<path d="M45.9501 212.804C46.1865 215.231 45.8649 217.68 45.0101 219.964C43.6101 223.034 45.3501 226.054 50.4601 224.664L55.9801 221.534C54.9448 218.68 54.3774 215.678 54.3001 212.644C54.2401 207.834 50.5801 208.704 50.5801 208.704L45.9501 212.804Z" fill="white"/>
<path d="M44.54 224.474C44.0206 223.779 43.7116 222.95 43.6495 222.085C43.5875 221.22 43.7751 220.355 44.19 219.594C44.9797 217.454 45.2804 215.165 45.07 212.894L45.02 212.434L50.16 207.884L50.37 207.834C50.9197 207.717 51.4878 207.717 52.0375 207.834C52.5871 207.951 53.1059 208.183 53.56 208.514C54.1286 209.028 54.5714 209.666 54.854 210.379C55.1366 211.092 55.2516 211.86 55.19 212.624C55.2764 215.541 55.8197 218.426 56.8 221.174L57.09 221.884L50.91 225.404L50.71 225.484C49.8688 225.733 48.9972 225.864 48.12 225.874C47.4568 225.921 46.7914 225.82 46.1722 225.577C45.553 225.335 44.9955 224.958 44.54 224.474V224.474ZM54.89 221.174C53.98 218.439 53.4812 215.585 53.41 212.704C53.4492 212.21 53.3868 211.712 53.2269 211.243C53.067 210.773 52.8128 210.342 52.48 209.974C52.0423 209.662 51.5032 209.526 50.97 209.594L46.87 213.174C47.0605 215.61 46.6981 218.058 45.81 220.334C45.5384 220.79 45.4018 221.315 45.416 221.845C45.4301 222.376 45.5945 222.893 45.89 223.334C46.61 224.174 48.15 224.334 50.12 223.844L54.89 221.174Z" fill="#191F31"/>
<path d="M80.68 235.724C80.8991 237.968 80.6015 240.233 79.81 242.344C78.53 245.184 80.34 248.754 85.05 247.474L89.95 243.794C88.9924 241.159 88.469 238.386 88.4 235.584C88.34 231.144 84.96 231.944 84.96 231.944L80.68 235.724Z" fill="white"/>
<path d="M79.56 247.094C78.9939 246.382 78.641 245.524 78.5419 244.62C78.4428 243.716 78.6016 242.802 79 241.984C79.7245 240.016 79.9979 237.911 79.8 235.824V235.364L84.54 231.174L84.76 231.124C85.2763 231.014 85.81 231.013 86.3267 231.121C86.8434 231.23 87.3316 231.445 87.76 231.754C88.2934 232.235 88.7089 232.833 88.9742 233.5C89.2395 234.168 89.3475 234.888 89.29 235.604C89.3584 238.3 89.8616 240.968 90.78 243.504L91.02 244.134L85.59 248.174L85.29 248.324C84.6161 248.514 83.9201 248.615 83.22 248.624C82.5349 248.654 81.8517 248.532 81.219 248.268C80.5864 248.003 80.0199 247.603 79.56 247.094V247.094ZM88.89 243.474C88.0295 240.932 87.5509 238.276 87.47 235.594C87.5081 235.149 87.4541 234.701 87.3113 234.277C87.1685 233.854 86.9399 233.465 86.64 233.134C86.2581 232.859 85.7881 232.734 85.32 232.784L81.57 236.094C81.7355 238.348 81.3938 240.61 80.57 242.714C80.3103 243.223 80.1988 243.795 80.2484 244.364C80.2979 244.933 80.5063 245.477 80.85 245.934C81.6 246.814 82.93 247.074 84.6 246.654L88.89 243.474Z" fill="#191F31"/>
<path d="M46.7001 218.234C46.2247 218.103 45.7186 218.141 45.2682 218.342C44.8177 218.542 44.4509 218.893 44.2301 219.334C43.1601 221.394 40.2301 226.504 35.8301 228.804C30.3201 231.724 33.4901 235.034 36.1501 235.614C37.7701 235.964 40.8101 234.824 43.1501 233.744C44.7772 232.975 46.2967 231.997 47.6701 230.834C48.7109 229.974 49.972 229.423 51.3101 229.244C53.6256 228.767 55.8371 227.88 57.8401 226.624C58.0078 226.519 58.1439 226.371 58.2337 226.195C58.3236 226.019 58.3638 225.821 58.3501 225.624C58.2101 223.714 57.7501 218.204 56.8201 217.504C55.6901 216.644 54.4101 216.654 54.2101 218.964C54.0101 221.274 50.3101 222.294 49.8401 220.764C49.521 220.147 49.0771 219.604 48.5365 219.168C47.9959 218.733 47.3705 218.415 46.7001 218.234V218.234Z" fill="#6390CB"/>
<path d="M35.9601 236.474C34.1601 236.084 32.2001 234.674 31.9601 232.744C31.7901 231.514 32.2601 229.744 35.4401 228.014C39.5601 225.834 42.4401 220.934 43.4401 218.924C43.7536 218.298 44.276 217.802 44.917 217.52C45.5581 217.239 46.2772 217.191 46.9501 217.384C48.4701 217.824 50.3001 219.114 50.7201 220.514C50.8876 220.585 51.0679 220.622 51.2501 220.622C51.4322 220.622 51.6125 220.585 51.7801 220.514C52.1638 220.42 52.5135 220.22 52.7893 219.937C53.0651 219.655 53.2559 219.3 53.3401 218.914C53.4601 217.534 53.9401 216.644 54.7801 216.284C55.2214 216.128 55.6971 216.095 56.1556 216.19C56.614 216.286 57.0375 216.505 57.3801 216.824C57.7501 217.104 58.7101 217.824 59.2601 225.594C59.282 225.954 59.2062 226.313 59.0408 226.633C58.8753 226.954 58.6263 227.223 58.3201 227.414C56.2228 228.741 53.9018 229.677 51.4701 230.174C50.2929 230.324 49.1829 230.806 48.2701 231.564C46.837 232.759 45.2576 233.767 43.5701 234.564C40.6301 235.894 38.3801 236.564 36.8301 236.564C36.5376 236.566 36.2459 236.536 35.9601 236.474ZM55.4701 217.874C55.3901 217.874 55.1601 218.194 55.0901 219.044C54.9418 219.921 54.5053 220.724 53.8497 221.325C53.1941 221.926 52.3567 222.292 51.4701 222.364C50.9647 222.476 50.436 222.4 49.9819 222.152C49.5277 221.904 49.1789 221.5 49.0001 221.014C48.4311 220.076 47.5266 219.389 46.4701 219.094V219.094C46.1933 219.022 45.9004 219.048 45.6402 219.166C45.38 219.285 45.1682 219.488 45.0401 219.744C43.9301 221.894 40.8401 227.174 36.2801 229.584C34.5001 230.524 33.5901 231.584 33.7201 232.504C33.8501 233.424 35.2001 234.504 36.3601 234.734C37.5201 234.964 39.8001 234.314 42.8301 232.934C44.3764 232.203 45.8217 231.276 47.1301 230.174C48.298 229.213 49.7109 228.596 51.2101 228.394C53.41 227.934 55.5097 227.084 57.4101 225.884C57.4396 225.868 57.4633 225.842 57.4776 225.812C57.492 225.781 57.4964 225.747 57.4901 225.714C57.1501 220.864 56.5801 218.564 56.3101 218.244C56.1083 218.055 55.8535 217.933 55.5801 217.894L55.4701 217.874Z" fill="#191F31"/>
<path d="M54.23 218.964C54.1894 219.402 54.0304 219.82 53.77 220.174V220.174C54.39 223.124 53.68 225.804 52.63 226.044C51.58 226.284 48.22 226.964 46.37 228.244C44.52 229.524 39.17 233.124 36.5 233.354C33.83 233.584 33.57 232.354 33.18 231.744C32.31 233.744 34.26 235.234 36.18 235.654C37.81 236.004 40.84 234.864 43.18 233.784C44.8082 233.013 46.3279 232.031 47.7 230.864C48.7411 230.013 49.9974 229.466 51.33 229.284C53.6487 228.807 55.8635 227.92 57.87 226.664C58.0377 226.559 58.1738 226.411 58.2636 226.235C58.3535 226.059 58.3937 225.861 58.38 225.664C58.25 223.754 57.78 218.244 56.85 217.534C55.71 216.634 54.47 216.654 54.23 218.964Z" fill="#191F31"/>
<path d="M35.95 236.474C35.2363 236.338 34.5586 236.055 33.9597 235.643C33.3607 235.232 32.8535 234.701 32.47 234.084C32.2572 233.66 32.1422 233.194 32.1336 232.72C32.1249 232.245 32.2228 231.775 32.42 231.344L33.11 229.734L34 231.244L34.15 231.514C34.44 232.064 34.71 232.584 36.48 232.424C37.43 232.344 39.93 231.584 45.91 227.424C47.8921 226.33 50.0408 225.57 52.27 225.174H52.41C52.8 224.954 53.41 222.994 52.9 220.344L52.82 219.964L53.05 219.644C53.2104 219.436 53.3076 219.186 53.33 218.924V218.924C53.46 217.544 53.94 216.654 54.78 216.294C55.2213 216.138 55.697 216.105 56.1555 216.2C56.6139 216.296 57.0374 216.515 57.38 216.834C57.74 217.114 58.71 217.834 59.26 225.604C59.2759 225.97 59.191 226.333 59.0147 226.654C58.8384 226.975 58.5773 227.241 58.26 227.424C56.182 228.745 53.8813 229.676 51.47 230.174C50.299 230.335 49.1951 230.816 48.28 231.564C46.8451 232.762 45.2621 233.77 43.57 234.564C40.64 235.894 38.39 236.564 36.84 236.564C36.5409 236.566 36.2425 236.536 35.95 236.474V236.474ZM55.47 217.874C55.39 217.874 55.16 218.194 55.08 219.044C55.0372 219.491 54.9009 219.923 54.68 220.314C55.19 223.234 54.58 226.474 52.8 226.864H52.63C50.6054 227.216 48.6505 227.892 46.84 228.864C42.01 232.184 38.55 233.954 36.55 234.124C35.9771 234.187 35.3982 234.171 34.83 234.074C35.2799 234.359 35.7781 234.558 36.3 234.664C37.38 234.904 39.74 234.244 42.77 232.864C44.3288 232.156 45.7906 231.252 47.12 230.174C48.2879 229.213 49.7009 228.596 51.2 228.394C53.3999 227.934 55.4997 227.084 57.4 225.884C57.4295 225.868 57.4532 225.842 57.4676 225.812C57.4819 225.781 57.4863 225.747 57.48 225.714C57.14 220.864 56.57 218.564 56.3 218.244C56.0955 218.054 55.8369 217.931 55.56 217.894L55.47 217.874Z" fill="#191F31"/>
<path d="M46.4701 224.784L47.4701 223.844C46.2057 222.535 44.5614 221.657 42.7701 221.334L42.5801 222.694C44.0601 222.976 45.4179 223.706 46.4701 224.784V224.784Z" fill="#191F31"/>
<path d="M44.7301 226.634L45.7301 225.694C44.4667 224.382 42.8224 223.5 41.0301 223.174L40.8501 224.534C42.3264 224.824 43.6796 225.557 44.7301 226.634Z" fill="#191F31"/>
<path d="M56.6201 226.844C57.2867 224.481 57.224 221.971 56.4401 219.644L55.1401 220.104C55.1401 220.104 56.3301 223.574 55.3301 226.384L56.6201 226.844Z" fill="#6390CB"/>
<path d="M83.0001 241.594C83.6694 241.918 84.2411 242.414 84.6573 243.03C85.0735 243.647 85.3194 244.362 85.3701 245.104C85.3905 245.237 85.4377 245.365 85.5087 245.479C85.5797 245.594 85.6731 245.693 85.7833 245.77C85.8935 245.848 86.0182 245.902 86.15 245.931C86.2818 245.959 86.4179 245.96 86.5501 245.934C86.7729 245.899 86.9773 245.79 87.1301 245.624C88.2701 244.394 89.5601 242.774 89.3601 241.984C89.0201 240.594 88.7301 239.144 88.7301 239.144C88.7301 239.144 90.1801 237.514 91.5201 240.304C92.8601 243.094 92.1101 246.304 92.1101 247.654C92.1101 249.004 89.2201 250.864 86.9701 252.574C84.7201 254.284 82.7901 257.744 79.9701 260.354C77.1501 262.964 69.3401 262.064 72.2901 256.064C75.2401 250.064 76.1501 249.254 76.5701 247.324C76.9901 245.394 78.3701 239.804 80.5701 239.784C80.5112 240.769 80.2272 241.726 79.7401 242.584C80.0626 242.043 80.5756 241.641 81.1785 241.458C81.7815 241.275 82.431 241.323 83.0001 241.594Z" fill="#6390CB"/>
<path d="M72.26 261.534C71.46 260.934 69.76 259.154 71.47 255.664C72.74 253.084 73.63 251.474 74.27 250.304C74.9013 249.34 75.3802 248.284 75.69 247.174C77.52 238.974 79.79 238.954 80.54 238.944H81.47V239.834C81.4665 240.076 81.4431 240.316 81.4 240.554C82.0583 240.474 82.726 240.564 83.34 240.814V240.814C84.89 241.394 85.92 242.814 86.34 245.114C86.3589 245.128 86.3816 245.135 86.405 245.135C86.4284 245.135 86.4511 245.128 86.47 245.114C88.47 243.004 88.47 242.294 88.47 242.294C88.11 240.884 87.83 239.414 87.83 239.414L87.75 238.984L88.04 238.654C88.2873 238.376 88.5987 238.162 88.9472 238.032C89.2957 237.901 89.6708 237.857 90.04 237.904C90.94 238.024 91.71 238.734 92.33 240.014C93.1906 242.133 93.4501 244.447 93.08 246.704C93.08 247.114 93.01 247.474 93.01 247.704C93.01 249.274 91.01 250.764 88.65 252.504C88.26 252.784 87.88 253.074 87.51 253.354C86.2879 254.416 85.1908 255.614 84.24 256.924C83.1309 258.401 81.9071 259.789 80.58 261.074C79.2769 262.14 77.6331 262.701 75.95 262.654C74.633 262.677 73.3421 262.285 72.26 261.534V261.534ZM89.73 239.534C89.84 240.074 90.02 240.914 90.23 241.734C90.44 242.554 90.23 243.514 87.78 246.204C87.6093 246.388 87.4041 246.536 87.176 246.641C86.9479 246.746 86.7015 246.804 86.4507 246.813C86.2 246.823 85.9499 246.782 85.7147 246.695C85.4795 246.608 85.2638 246.475 85.08 246.304C84.7721 246.018 84.568 245.638 84.5 245.224C84.24 243.694 83.63 242.744 82.69 242.394C82.3226 242.193 81.892 242.139 81.4866 242.245C81.0812 242.351 80.7318 242.609 80.51 242.964V242.964L79.14 242.234C78.3604 243.904 77.7894 245.664 77.44 247.474C77.0918 248.761 76.5525 249.988 75.84 251.114C75.2 252.284 74.33 253.874 73.07 256.414C72.25 258.107 72.3367 259.324 73.33 260.064C74.2614 260.586 75.3242 260.826 76.3894 260.755C77.4546 260.684 78.4762 260.305 79.33 259.664C80.5916 258.44 81.7552 257.12 82.81 255.714C83.8735 254.293 85.1021 253.004 86.47 251.874C86.84 251.584 87.23 251.304 87.62 251.014C88.89 250.074 91.26 248.324 91.26 247.644C91.26 247.334 91.26 246.924 91.34 246.444C91.6664 244.509 91.4625 242.522 90.75 240.694C90.38 239.914 90.04 239.604 89.83 239.574H89.77L89.73 239.534Z" fill="#191F31"/>
<path d="M88.7299 239.174C88.7299 239.174 89.0199 240.614 89.3599 242.004C89.3701 242.047 89.3701 242.091 89.3599 242.134C89.4596 242.378 89.5431 242.629 89.6099 242.884C89.7168 243.336 89.7738 243.799 89.7799 244.264C89.7693 245.426 89.4935 246.571 88.9736 247.611C88.4538 248.651 87.7035 249.558 86.7799 250.264C83.949 252.436 81.4612 255.022 79.3999 257.934C76.1999 262.804 72.3999 260.284 72.3999 260.284C72.3999 261.554 78.0499 262.174 79.9899 260.374C82.8199 257.764 84.7399 254.314 86.9899 252.594C89.2399 250.874 92.1399 249.004 92.1399 247.664C92.1399 246.324 92.8899 243.114 91.5499 240.324C90.2099 237.534 88.7299 239.174 88.7299 239.174Z" fill="#191F31"/>
<path d="M72.75 261.804C71.75 261.354 71.49 260.714 71.49 260.264V258.644L72.86 259.524C73.18 259.724 76.06 261.394 78.67 257.434C80.7775 254.441 83.3264 251.784 86.23 249.554C87.0443 248.928 87.7065 248.127 88.1672 247.209C88.6278 246.291 88.8749 245.281 88.89 244.254C88.889 243.857 88.842 243.461 88.75 243.074C88.69 242.864 88.62 242.654 88.53 242.424V242.104C88.18 240.714 87.91 239.314 87.91 239.314L87.83 238.894L88.12 238.564C88.3652 238.283 88.676 238.066 89.0248 237.934C89.3737 237.801 89.7498 237.756 90.12 237.804C90.6482 237.935 91.1349 238.197 91.5351 238.566C91.9353 238.935 92.2362 239.398 92.41 239.914C93.2706 242.033 93.5301 244.347 93.16 246.604C93.16 247.024 93.09 247.374 93.09 247.604C93.09 249.174 91.09 250.664 88.73 252.394L87.59 253.244C86.3654 254.307 85.2681 255.508 84.32 256.824C83.2049 258.299 81.9779 259.687 80.65 260.974C79.3287 261.947 77.7077 262.425 76.07 262.324C74.9397 262.374 73.811 262.197 72.75 261.804V261.804ZM89.75 239.564C89.86 240.104 90.04 240.954 90.25 241.784C90.2555 241.84 90.2555 241.897 90.25 241.954C90.33 242.184 90.41 242.414 90.48 242.644C90.5979 243.163 90.6616 243.692 90.67 244.224C90.661 245.524 90.3554 246.805 89.7766 247.97C89.1979 249.134 88.3611 250.152 87.33 250.944C84.5778 253.062 82.1577 255.58 80.15 258.414C79.7607 259.023 79.3009 259.583 78.78 260.084C78.9888 259.988 79.1812 259.86 79.35 259.704C80.61 258.476 81.7766 257.156 82.84 255.754C83.8939 254.32 85.1122 253.014 86.47 251.864L87.63 251.004C88.9 250.064 91.27 248.314 91.27 247.654C91.27 247.334 91.27 246.924 91.35 246.444C91.6694 244.509 91.4657 242.524 90.76 240.694C90.39 239.914 90.04 239.604 89.84 239.574H89.78L89.75 239.564Z" fill="#191F31"/>
<path d="M83.0799 249.344L83.9199 248.254C81.3299 246.254 76.9799 245.894 76.7999 245.874L76.6799 247.244C76.7299 247.244 80.8199 247.604 83.0799 249.344Z" fill="#191F31"/>
<path d="M81.7299 251.744L82.5599 250.654C80.5963 249.342 78.3253 248.563 75.9699 248.394L75.8899 249.764C77.9728 249.919 79.9822 250.6 81.7299 251.744V251.744Z" fill="#191F31"/>
<path d="M79.1873 242.052L78.189 244.312L79.4421 244.865L80.4404 242.606L79.1873 242.052Z" fill="#191F31"/>
<path d="M91.2199 248.594C91.7158 246.582 91.8042 244.491 91.4799 242.444L90.1299 242.664C90.412 244.501 90.3373 246.375 89.9099 248.184L91.2199 248.594Z" fill="#6390CB"/>
<path d="M78.7999 235.514C79.4516 225.696 79.4082 215.845 78.6699 206.034C78.0999 199.734 77.7999 195.194 77.6699 192.094C77.5064 188.665 78.4918 185.279 80.4699 182.474L89.7399 169.284C89.7702 169.237 89.7809 169.181 89.7697 169.127C89.7585 169.072 89.7262 169.024 89.6799 168.994C89.6495 168.976 89.615 168.967 89.5799 168.967C89.5448 168.967 89.5103 168.976 89.4799 168.994C86.7299 170.204 76.2199 174.454 65.4799 174.264L56.4799 175.264C56.4501 175.265 56.4208 175.272 56.3939 175.285C56.367 175.298 56.343 175.316 56.3234 175.339C56.3037 175.361 56.2889 175.387 56.2797 175.416C56.2705 175.444 56.2671 175.474 56.2699 175.504C56.2599 175.536 56.2599 175.571 56.2699 175.604C56.8699 176.704 58.7299 180.754 58.0399 187.424C57.2299 195.324 55.4199 201.524 55.1599 212.094C55.1599 212.094 49.9399 216.614 44.5999 211.744C44.5999 211.744 44.9499 186.674 44.5999 176.744C44.2499 166.814 44.3699 164.434 52.1499 159.674C59.9299 154.914 77.6799 153.064 85.9199 152.944C94.1599 152.824 108.92 158.174 108.92 158.174L114.72 162.114C114.72 162.114 119.94 173.954 104.16 183.584C104.16 183.584 94.9599 190.654 91.4499 193.324C91.4252 193.34 91.4041 193.361 91.3877 193.385C91.3712 193.41 91.3599 193.437 91.3543 193.466C91.3487 193.495 91.349 193.525 91.3551 193.554C91.3612 193.582 91.373 193.61 91.3899 193.634C91.9099 194.484 93.9299 198.324 93.8299 206.334C93.7099 215.504 91.0399 222.594 90.2299 232.104L89.9999 235.354C89.9999 235.354 85.5299 238.874 78.7999 235.514Z" fill="#191F31"/>
<path d="M78.3999 236.304L77.8699 236.034V235.444C78.5168 225.676 78.4734 215.875 77.7399 206.114C77.2599 200.774 76.9099 196.114 76.7399 192.114C76.5809 188.481 77.6365 184.9 79.7399 181.934L87.6699 170.654C83.2199 172.394 74.4499 175.234 65.5499 175.084L57.4299 175.984C58.8871 179.624 59.3897 183.575 58.8899 187.464C58.5899 190.334 58.1699 192.924 57.7299 195.664C56.7658 201.082 56.1943 206.563 56.0199 212.064V212.464L55.7199 212.714C55.7199 212.764 49.8399 217.714 43.9799 212.354L43.6899 212.084V211.684C43.6899 211.434 44.0299 186.524 43.6899 176.684C43.3299 166.404 43.5599 163.794 51.6899 158.834C59.4699 154.074 76.8199 152.104 85.9199 151.974C94.2699 151.864 108.61 157.024 109.22 157.254L115.43 161.444L115.53 161.674C115.59 161.794 120.88 174.344 104.69 184.214C104.69 184.214 96.2199 190.724 92.4299 193.604C93.2399 195.164 94.8099 199.114 94.7099 206.264C94.5516 211.104 93.9389 215.918 92.8799 220.644C92.0808 224.422 91.4899 228.241 91.1099 232.084L90.8499 235.714L90.5499 235.964C88.8041 237.219 86.7001 237.879 84.5499 237.844C82.4068 237.826 80.2986 237.298 78.3999 236.304V236.304ZM89.2699 231.964C89.6607 228.052 90.2582 224.163 91.0599 220.314C92.0969 215.693 92.7028 210.986 92.8699 206.254C92.9699 198.384 90.9599 194.694 90.5599 194.024C90.4136 193.785 90.3612 193.5 90.413 193.225C90.4647 192.95 90.6169 192.703 90.8399 192.534C94.3499 189.874 103.54 182.804 103.63 182.754C117.52 174.274 114.54 164.294 113.93 162.624L108.47 158.894C107.15 158.424 93.4699 153.664 85.9099 153.754C78.3499 153.844 60.3399 155.614 52.5799 160.364C45.2699 164.844 45.1199 166.624 45.4599 176.634C45.7899 185.824 45.4599 208.024 45.4599 211.324C46.6587 212.394 48.1947 213.01 49.8006 213.065C51.4066 213.12 52.981 212.61 54.2499 211.624C54.4426 206.184 55.0173 200.764 55.9699 195.404C56.4099 192.694 56.8199 190.124 57.1099 187.304C57.7699 180.894 56.0099 177.024 55.4499 175.994C55.3592 175.833 55.31 175.652 55.307 175.467C55.3039 175.282 55.3471 175.1 55.4325 174.936C55.5179 174.772 55.6429 174.632 55.7962 174.528C55.9494 174.425 56.126 174.362 56.3099 174.344L65.4699 173.344C75.9599 173.564 86.2399 169.424 89.1199 168.164C89.3867 168.045 89.6896 168.036 89.9629 168.139C90.2362 168.242 90.4579 168.449 90.5799 168.714C90.6565 168.89 90.6866 169.082 90.6673 169.273C90.648 169.464 90.5801 169.647 90.4699 169.804L81.1699 182.974C79.3204 185.626 78.3993 188.814 78.5499 192.044C78.7299 195.964 79.0699 200.644 79.5499 205.944C80.2706 215.595 80.3274 225.285 79.7199 234.944C84.6599 237.174 88.0699 235.424 89.0599 234.784L89.2699 231.964Z" fill="#191F31"/>
<path d="M55.4099 175.424L56.5399 174.654C55.5682 173.264 54.2611 172.143 52.7399 171.394L52.1799 172.654C53.4707 173.294 54.581 174.246 55.4099 175.424Z" fill="#6390CB"/>
<path d="M90.2699 193.404L91.3399 192.544C90.7641 191.873 90.0416 191.343 89.2282 190.997C88.4149 190.65 87.5327 190.495 86.6499 190.544L86.7699 191.914L86.7099 191.224L86.7699 191.914C87.4283 191.879 88.0861 191.995 88.6927 192.253C89.2994 192.511 89.8389 192.905 90.2699 193.404Z" fill="#6390CB"/>
<path d="M50.1999 211.534C51.6757 211.552 53.1395 211.266 54.4999 210.694L53.9499 209.444C50.2599 211.054 45.8699 209.444 45.8299 209.444L45.3499 210.734C46.9132 211.259 48.5508 211.529 50.1999 211.534V211.534Z" fill="#6390CB"/>
<path d="M107.37 179.524L108.04 178.324C106.489 177.517 105.304 176.15 104.726 174.5C104.148 172.85 104.221 171.042 104.93 169.444L103.68 168.894C103.65 168.964 100.74 175.774 107.37 179.524Z" fill="#6390CB"/>
<path d="M84.7399 234.914C86.2149 234.934 87.6783 234.651 89.0399 234.084L88.4799 232.824C84.7899 234.444 80.3999 232.824 80.3599 232.824L79.8799 234.104C81.4449 234.637 83.0865 234.911 84.7399 234.914V234.914Z" fill="#6390CB"/>
<path d="M89.1203 113.984C89.1203 113.984 88.9603 114.434 88.7103 115.214C86.7703 121.144 85.6204 127.304 85.2903 133.534L85.1903 135.214C85.1877 135.299 85.1568 135.38 85.1024 135.446C85.048 135.511 84.9733 135.556 84.8903 135.574C82.2805 136.414 79.8176 137.655 77.5903 139.254C74.5403 141.344 66.5403 148.664 66.5403 148.664L76.4603 152.864L98.1403 141.614L102.05 126.984L96.4703 118.274L91.3503 113.174L89.1203 113.984Z" fill="white"/>
<path d="M64.9202 148.944L65.9202 148.004C66.2502 147.704 74.0102 140.624 77.0702 138.524C79.2936 136.953 81.7276 135.704 84.3002 134.814L84.3702 133.474C84.7229 127.17 85.8892 120.939 87.8402 114.934C88.1002 114.144 88.2602 113.684 88.2602 113.684L88.4002 113.294L91.5502 112.104L97.0802 117.654L103 126.834L98.8802 142.224L76.4702 153.854L64.9202 148.944ZM101.1 127.174L95.7802 118.884L91.1302 114.174L89.8302 114.674C89.7602 114.874 89.6702 115.154 89.5602 115.494C87.6501 121.351 86.5105 127.432 86.1702 133.584L86.0802 135.274C86.0629 135.551 85.956 135.815 85.7757 136.026C85.5953 136.237 85.3512 136.384 85.0802 136.444C82.5803 137.265 80.2199 138.462 78.0802 139.994C75.7602 141.584 70.4102 146.354 68.1602 148.384L76.4102 151.884L97.4102 141.004L101.1 127.174Z" fill="#191F31"/>
<path d="M94.7203 117.934C94.3703 118.224 90.8603 115.934 88.2703 113.114C88.2703 113.114 93.1303 97.964 100.48 97.474C107.83 96.984 103.29 104.804 103.29 104.804L94.7203 117.934Z" fill="white"/>
<path d="M87.6203 113.724L87.2603 113.344L87.4202 112.844C87.6202 112.194 92.5503 97.104 100.42 96.584C102.69 96.424 104.24 96.994 105.03 98.264C106.58 100.764 104.32 104.794 104.03 105.264L95.4703 118.414L95.2903 118.614C95.1323 118.741 94.9328 118.805 94.7303 118.794C92.6203 118.794 87.6703 113.784 87.6203 113.724ZM100.54 98.364C95.2203 98.714 90.7803 108.524 89.2803 112.884C90.7645 114.431 92.4456 115.775 94.2803 116.884L102.47 104.334C102.99 103.434 104.3 100.534 103.47 99.194C103.11 98.614 102.31 98.314 101.09 98.314L100.54 98.364Z" fill="#191F31"/>
<path d="M101.28 97.9939C101.28 97.9939 95.4701 99.8939 94.2801 110.164C93.0901 120.434 88.2801 142.304 83.2801 149.614C83.2801 149.614 80.6701 153.804 87.9001 156.234C95.1301 158.664 100.08 159.294 107.02 164.994C113.96 170.694 117.7 172.864 119.02 165.814C120.34 158.764 125.26 142.044 128.22 135.694C131.18 129.344 132.62 107.174 132.62 107.174C132.62 107.174 128.85 101.464 118.69 97.4339C111.92 94.7839 101.28 97.9939 101.28 97.9939Z" fill="#6390CB"/>
<path d="M106.47 165.684C101.05 161.234 96.9501 159.974 91.7701 158.394C90.4501 157.994 89.0901 157.574 87.6301 157.074C84.6301 156.074 82.8501 154.654 82.2001 152.844C81.992 152.234 81.9165 151.587 81.9786 150.945C82.0407 150.304 82.2389 149.683 82.5601 149.124C87.5601 141.834 92.2601 119.824 93.4201 110.064C94.6901 99.3539 100.78 97.2339 101.04 97.1539C101.49 97.0139 112.04 93.8839 119.04 96.6539C129.34 100.744 133.22 106.484 133.39 106.724L133.55 106.984V107.284C133.49 108.194 132.02 129.644 129.03 136.074C126.15 142.254 121.21 158.914 119.9 165.984C119.37 168.814 118.43 170.394 116.9 170.984C116.52 171.115 116.122 171.182 115.72 171.184C113.47 171.174 110.69 169.174 106.47 165.684ZM118.4 98.3039C112.12 95.8039 102.05 98.7039 101.59 98.8439C101.13 98.9839 96.2901 100.844 95.1801 110.274C93.9701 120.464 89.1801 142.484 84.0501 150.094C83.875 150.421 83.7695 150.781 83.7402 151.151C83.7109 151.521 83.7586 151.893 83.8801 152.244C84.3201 153.504 85.8201 154.594 88.2001 155.394C89.6401 155.874 90.9901 156.294 92.2901 156.694C97.4501 158.274 101.91 159.634 107.6 164.314C110.91 167.034 114.6 169.894 116.32 169.314C117.14 169.014 117.76 167.794 118.14 165.704C119.49 158.454 124.41 141.824 127.41 135.374C130.08 129.644 131.55 110.254 131.75 107.524C130.88 106.384 126.99 101.724 118.36 98.3039H118.4Z" fill="#191F31"/>
<path d="M111.58 97.034C108.73 99.174 104.39 99.354 102.08 99.284C101.611 99.2694 101.154 99.1302 100.757 98.8806C100.36 98.631 100.036 98.2801 99.8199 97.864C96.3006 91.2662 95.5003 83.5538 97.5899 76.374L112.83 74.824L116.26 79.824C116.732 80.506 117.057 81.2784 117.216 82.0926C117.374 82.9067 117.362 83.7448 117.18 84.554C116.81 86.144 116.84 88.684 118.73 92.174C124 101.964 121.49 104.104 114.33 109.744C109.25 113.744 100.78 110.664 106.33 99.074L111.58 97.034Z" fill="white"/>
<path d="M105.86 110.984C104.59 109.984 102.09 106.984 104.86 100.104C103.932 100.179 103 100.199 102.07 100.164C101.448 100.139 100.844 99.952 100.317 99.6203C99.7906 99.2886 99.3605 98.8243 99.07 98.2739C95.4205 91.4573 94.6083 83.4759 96.81 76.0639L97 75.5439L113.31 73.8839L117.04 79.2839C117.583 80.0664 117.957 80.953 118.14 81.8877C118.322 82.8224 118.309 83.7847 118.1 84.7139C117.78 86.0839 117.78 88.4039 119.57 91.7139C125.25 102.274 122.02 104.814 114.94 110.404C113.479 111.581 111.666 112.236 109.79 112.264C108.371 112.306 106.982 111.853 105.86 110.984V110.984ZM98.26 77.1739C96.4978 83.9836 97.3319 91.2053 100.6 97.4339C100.746 97.7094 100.963 97.9408 101.228 98.1043C101.494 98.2679 101.798 98.3575 102.11 98.3639C104.32 98.4439 108.42 98.2639 111.04 96.3039L112.11 97.7239C110.56 98.8111 108.781 99.5263 106.91 99.8139C104.84 104.354 104.91 107.894 106.97 109.574C108.72 110.974 111.59 110.724 113.78 108.994C120.78 103.454 122.92 101.784 117.94 92.5439C115.94 88.7439 115.94 85.9639 116.31 84.2939C116.465 83.6084 116.474 82.8978 116.336 82.2086C116.199 81.5194 115.917 80.867 115.51 80.2939L112.39 75.7539L98.26 77.1739Z" fill="#191F31"/>
<path d="M118.47 69.1739C112.16 63.8039 102.56 68.4139 100.58 67.2839C98.94 66.3439 99.58 64.1639 99.84 63.4539C99.8529 63.4168 99.8507 63.3761 99.8339 63.3405C99.817 63.305 99.7869 63.2775 99.75 63.2639H99.67C97.6728 63.4199 95.7911 64.2619 94.3439 65.6471C92.8967 67.0323 91.9732 68.8755 91.73 70.8639C90.73 78.2139 96.51 80.5139 96.51 80.5139C98.88 81.7139 101.43 81.7539 104.12 81.6439C105.194 81.5794 106.263 81.8259 107.2 82.3539C108.228 82.9474 108.987 83.9146 109.32 85.0539C109.417 85.4074 109.631 85.7176 109.927 85.9338C110.223 86.1499 110.584 86.2592 110.95 86.2439L113.41 86.0739L115.9 85.3239C116.293 85.8282 116.529 86.4367 116.58 87.0739V89.6939C118.442 88.6235 119.972 87.06 121.003 85.1757C122.033 83.2913 122.524 81.1591 122.42 79.0139C122.65 75.3139 121.94 72.1739 118.47 69.1739Z" fill="#191F31"/>
<path d="M115.64 87.0439C115.631 86.7979 115.562 86.5578 115.44 86.3439L113.62 86.8839L110.96 87.1039C110.393 87.1324 109.834 86.9679 109.372 86.6374C108.911 86.3069 108.575 85.8298 108.42 85.2839C108.148 84.3607 107.533 83.5769 106.7 83.0939C105.907 82.655 105.004 82.4536 104.1 82.5139C101.47 82.6139 98.6801 82.6139 96.1001 81.3239C96.0301 81.3239 89.6501 78.6639 90.7701 70.7239C91.041 68.5378 92.0572 66.5117 93.6473 64.9872C95.2374 63.4626 97.3044 62.5327 99.5001 62.3539C99.6353 62.3344 99.7732 62.3427 99.9051 62.3785C100.037 62.4143 100.16 62.4768 100.267 62.5621C100.374 62.6474 100.462 62.7537 100.526 62.8744C100.59 62.9951 100.629 63.1277 100.64 63.2639C100.66 63.4264 100.639 63.5913 100.58 63.7439C100.4 64.2339 99.8901 65.8939 100.94 66.4939C102.061 66.5806 103.189 66.486 104.28 66.2139C108.28 65.5539 114.37 64.5739 118.96 68.4739C120.528 69.693 121.747 71.3034 122.495 73.143C123.242 74.9827 123.493 76.9869 123.22 78.9539C123.341 81.2704 122.814 83.5749 121.698 85.6082C120.581 87.6415 118.92 89.3231 116.9 90.4639L115.61 91.1139L115.64 87.0439ZM117.84 69.8239C113.84 66.4639 108.52 67.3339 104.6 67.9739C102.43 68.3239 101 68.5539 100.09 68.0439C99.473 67.6643 98.9965 67.0937 98.733 66.4187C98.4696 65.7438 98.4334 65.0013 98.6301 64.3039C97.0382 64.617 95.589 65.4333 94.4962 66.6324C93.4033 67.8315 92.7246 69.3499 92.5601 70.9639C91.6501 77.4939 96.5601 79.5739 96.8601 79.6939C99.1101 80.8239 101.64 80.8239 104.04 80.6939C105.286 80.6149 106.527 80.9035 107.61 81.5239C108.823 82.2357 109.722 83.3783 110.13 84.7239C110.163 84.8835 110.251 85.0263 110.379 85.1269C110.508 85.2276 110.667 85.2797 110.83 85.2739L113.2 85.1139L116.2 84.2139L116.57 84.7339C117.078 85.3857 117.371 86.1787 117.41 87.0039V87.9439C118.752 86.8667 119.82 85.4866 120.526 83.917C121.231 82.3474 121.555 80.6328 121.47 78.9139C121.77 74.9139 120.72 72.2839 117.82 69.8239H117.84Z" fill="#191F31"/>
<path d="M103.69 80.8039C103.69 80.8039 109.1 76.9539 114.75 79.3339L115.28 78.0739C108.91 75.3739 103.13 79.5239 102.88 79.7039L103.69 80.8039Z" fill="#6390CB"/>
<path d="M117.72 84.494C119.27 82.004 117.15 79.434 117.05 79.334L116.05 80.214C116.11 80.284 117.61 82.134 116.6 83.774L117.72 84.494Z" fill="#6390CB"/>
<path d="M118.19 78.1739L119.4 77.5239C116.57 72.2639 109.74 72.7139 109.4 72.7339L109.51 74.1039C109.51 74.1039 115.79 73.7139 118.19 78.1739Z" fill="#6390CB"/>
<path d="M104.61 75.2739C105.546 74.7904 106.563 74.482 107.61 74.3639L107.41 73.0139C106.184 73.1524 104.995 73.5259 103.91 74.1139L104.62 75.2739L104.26 74.6939L104.61 75.2739Z" fill="#6390CB"/>
<path d="M112.96 91.6339C113.659 91.5071 114.324 91.2352 114.911 90.8356C115.499 90.4359 115.996 89.9176 116.37 89.3139C117.054 88.3637 117.377 87.2007 117.28 86.0339C116.86 83.6839 114.56 84.2539 113.57 85.7039L112.72 87.0239L112.96 91.6339Z" fill="white"/>
<path d="M113.12 92.5239C113.94 92.3718 114.719 92.0505 115.408 91.5804C116.097 91.1104 116.68 90.502 117.12 89.794C117.916 88.6585 118.271 87.2722 118.12 85.894C118.073 85.3598 117.86 84.8537 117.513 84.4453C117.165 84.0369 116.7 83.7464 116.18 83.614C115.52 83.526 114.848 83.6302 114.245 83.9139C113.642 84.1976 113.133 84.649 112.78 85.214L111.93 86.544L113.42 87.544L114.27 86.224C114.428 85.9586 114.654 85.7407 114.925 85.5929C115.196 85.4451 115.502 85.3729 115.81 85.3839C116.09 85.3839 116.27 85.7239 116.36 86.2339C116.412 87.1837 116.129 88.1216 115.56 88.8839C115.25 89.3797 114.84 89.8054 114.356 90.1342C113.872 90.4631 113.325 90.6877 112.75 90.794L113.12 92.5239Z" fill="#191F31"/>
<path d="M100.69 93.3439H100.8C101.717 93.2426 102.606 92.9677 103.42 92.5339L102.72 91.3439C102.239 91.6066 101.719 91.7922 101.18 91.8939C101.12 90.5639 101.27 88.4139 101.27 88.3839L99.9 88.2939C99.81 89.7325 99.81 91.1754 99.9 92.6139V92.9039L100.19 93.1839C100.335 93.2906 100.51 93.3468 100.69 93.3439Z" fill="#191F31"/>
<path d="M105.06 87.1739C105.14 88.1739 104.66 89.0939 103.99 89.1739C103.32 89.2539 102.72 88.4239 102.64 87.3839C102.56 86.3439 103.04 85.4639 103.7 85.3839C104.36 85.3039 104.98 86.1039 105.06 87.1739Z" fill="#191F31"/>
<path d="M98.78 87.3839C98.86 88.3839 98.38 89.3139 97.72 89.3839C97.06 89.4539 96.44 88.6339 96.36 87.5939C96.28 86.5539 96.76 85.6639 97.42 85.5939C98.08 85.5239 98.7 86.3439 98.78 87.3839Z" fill="#191F31"/>
<path d="M102.31 96.174C103.2 96.1858 104.064 95.881 104.75 95.314L103.87 94.314C103.608 94.5266 103.305 94.6826 102.979 94.7721C102.654 94.8616 102.314 94.8827 101.98 94.834L101.69 96.174C101.896 96.1934 102.104 96.1934 102.31 96.174V96.174Z" fill="#191F31"/>
<path d="M95.06 69.884C95.06 69.764 96.06 66.974 98.83 66.824L98.75 65.454C95.08 65.664 93.82 69.284 93.75 69.454L95.06 69.884Z" fill="#6390CB"/>
<path d="M110.87 111.364L113.08 115.034C113.153 115.16 113.273 115.251 113.414 115.289C113.554 115.326 113.704 115.307 113.83 115.234C117.081 113.467 119.929 111.042 122.19 108.114C125.36 103.594 126.65 97.7839 120.49 94.3639C120.49 94.3639 120.94 99.1839 118.79 102.894C116.64 106.604 110.87 111.364 110.87 111.364Z" fill="white"/>
<path d="M112.32 115.494L109.71 111.174L110.31 110.684C110.31 110.684 115.98 105.994 118.02 102.464C119.255 99.9874 119.801 97.2241 119.6 94.4639L119.47 92.7739L120.94 93.5839C122.067 94.1297 123.062 94.9127 123.858 95.8793C124.654 96.8459 125.231 97.9733 125.55 99.1839C126.19 101.974 125.26 105.324 122.93 108.634C120.597 111.677 117.65 114.194 114.28 116.024C114.064 116.137 113.824 116.199 113.58 116.204C113.326 116.207 113.076 116.143 112.855 116.019C112.633 115.894 112.449 115.713 112.32 115.494V115.494ZM119.56 103.344C117.75 106.484 113.56 110.214 112.03 111.554L113.68 114.304C116.697 112.62 119.341 110.34 121.45 107.604C123.45 104.724 124.32 101.874 123.79 99.6039C123.441 98.1791 122.602 96.9225 121.42 96.0539C121.388 98.5972 120.751 101.096 119.56 103.344Z" fill="#191F31"/>
<path d="M101.82 109.824C102.838 109.249 103.937 108.831 105.08 108.584C105.08 108.584 103.85 102.674 106.81 98.954C105.357 99.3409 103.852 99.4961 102.35 99.414C100.7 102.554 100.342 106.214 101.35 109.614C101.364 109.659 101.386 109.702 101.416 109.738C101.446 109.775 101.483 109.805 101.525 109.827C101.567 109.85 101.613 109.864 101.66 109.868C101.707 109.873 101.755 109.868 101.8 109.854L101.82 109.824Z" fill="white"/>
<path d="M101.19 110.664C101.017 110.595 100.862 110.488 100.736 110.352C100.61 110.215 100.515 110.052 100.46 109.874C99.3872 106.23 99.7932 102.31 101.59 98.964L101.88 98.484H102.44C103.827 98.5518 105.217 98.4068 106.56 98.054L109.21 97.314L107.47 99.514C104.82 102.844 105.92 108.354 105.93 108.404L106.12 109.344L105.18 109.474C104.127 109.697 103.115 110.082 102.18 110.614C102 110.714 101.796 110.766 101.59 110.764C101.452 110.752 101.317 110.719 101.19 110.664V110.664ZM105 100.224C104.298 100.319 103.589 100.359 102.88 100.344C101.66 102.968 101.35 105.924 102 108.744C102.664 108.404 103.357 108.123 104.07 107.904C103.702 105.303 104.022 102.652 105 100.214V100.224Z" fill="#191F31"/>
<path d="M103.95 121.574C104.478 117.682 105.431 113.859 106.79 110.174L105.13 109.534C103.708 113.35 102.721 117.316 102.19 121.354L103.95 121.574Z" fill="#191F31"/>
<path d="M108.81 116.104C108.81 116.321 108.746 116.534 108.625 116.715C108.504 116.896 108.332 117.037 108.131 117.12C107.93 117.203 107.709 117.225 107.496 117.183C107.282 117.14 107.086 117.036 106.932 116.882C106.778 116.728 106.674 116.532 106.631 116.318C106.589 116.105 106.611 115.884 106.694 115.683C106.777 115.482 106.918 115.31 107.099 115.189C107.28 115.068 107.493 115.004 107.71 115.004C108.002 115.004 108.282 115.12 108.488 115.326C108.694 115.532 108.81 115.812 108.81 116.104Z" fill="#191F31"/>
<path d="M108.15 119.704C108.15 119.921 108.086 120.134 107.965 120.315C107.844 120.496 107.672 120.637 107.471 120.72C107.27 120.803 107.049 120.825 106.836 120.783C106.622 120.74 106.426 120.636 106.272 120.482C106.119 120.328 106.014 120.132 105.971 119.918C105.929 119.705 105.951 119.484 106.034 119.283C106.117 119.082 106.258 118.91 106.439 118.789C106.62 118.668 106.833 118.604 107.05 118.604C107.342 118.604 107.622 118.72 107.828 118.926C108.034 119.132 108.15 119.412 108.15 119.704V119.704Z" fill="#191F31"/>
<path d="M60.59 154.524L93.28 173.394C93.3135 173.413 93.3514 173.423 93.39 173.423C93.4287 173.423 93.4666 173.413 93.5 173.394L115.94 160.024C115.965 160.01 115.986 159.992 116.004 159.97C116.021 159.948 116.034 159.923 116.041 159.896C116.049 159.869 116.051 159.841 116.047 159.813C116.043 159.785 116.034 159.758 116.02 159.734L115.94 159.654L83.47 140.544C83.4385 140.52 83.3998 140.506 83.36 140.506C83.3202 140.506 83.2815 140.52 83.25 140.544L60.58 154.174C60.556 154.188 60.5352 154.207 60.519 154.23C60.5028 154.253 60.4915 154.278 60.4858 154.306C60.4802 154.333 60.4803 154.361 60.4862 154.388C60.4921 154.416 60.5036 154.441 60.52 154.464C60.5398 154.488 60.5634 154.508 60.59 154.524V154.524Z" fill="white"/>
<path d="M92.83 174.174L60.15 155.294C59.984 155.197 59.8463 155.058 59.7506 154.892C59.6549 154.725 59.6045 154.536 59.6045 154.344C59.6045 154.152 59.6549 153.963 59.7506 153.796C59.8463 153.63 59.984 153.491 60.15 153.394L82.83 139.784C83.0003 139.681 83.1957 139.626 83.395 139.626C83.5942 139.626 83.7896 139.681 83.96 139.784L116.4 158.904C116.564 159.003 116.699 159.142 116.793 159.309C116.887 159.475 116.936 159.663 116.936 159.854C116.936 160.045 116.887 160.233 116.793 160.399C116.699 160.566 116.564 160.705 116.4 160.804L93.95 174.174C93.7804 174.274 93.587 174.327 93.39 174.327C93.1929 174.327 92.9995 174.274 92.83 174.174V174.174ZM83.4 141.514L62.03 154.324L93.38 172.424L114.47 159.844L83.4 141.514Z" fill="#191F31"/>
<path d="M95.7101 167.604L107.37 160.604C107.55 160.494 107.699 160.34 107.802 160.156C107.906 159.972 107.96 159.765 107.96 159.554C107.952 159.35 107.893 159.152 107.788 158.977C107.684 158.802 107.536 158.657 107.36 158.554L99.7701 154.104L98.8701 155.634L105.64 159.634L94.8101 166.114L95.7101 167.604Z" fill="#191F31"/>
<path d="M123.77 129.174C122.68 132.761 121.937 136.445 121.55 140.174C121.14 143.645 120.94 147.138 120.95 150.634V150.634C120.85 150.634 113.8 149.314 107.71 151.204C101.62 153.094 93.27 152.204 93.27 152.204C93.27 152.204 89.03 149.064 87.17 149.204C85.31 149.344 86.24 151.204 86.24 151.204C86.24 151.204 77.42 154.204 80.67 157.034C83.92 159.864 93.27 158.034 93.27 158.034C93.27 158.034 115.2 160.394 126.8 158.734C127.046 158.698 127.279 158.605 127.482 158.463C127.685 158.32 127.853 158.132 127.97 157.914C129.25 155.514 133.97 146.574 135.36 130.404C136.99 111.064 123.74 127.134 123.74 127.134L123.77 129.174Z" fill="white"/>
<path d="M93.3101 158.834C91.8301 159.114 83.4501 160.534 80.0901 157.634C79.7116 157.366 79.4167 156.997 79.2397 156.569C79.0626 156.14 79.0108 155.671 79.0901 155.214C79.5201 153.014 83.3001 151.304 85.0901 150.594C85.0028 150.09 85.1117 149.572 85.3944 149.146C85.6771 148.721 86.1121 148.419 86.6101 148.304C86.7497 148.289 86.8905 148.289 87.0301 148.304C89.0301 148.124 92.4601 150.514 93.5501 151.304C94.9101 151.434 102.06 151.994 107.38 150.304C111.493 149.209 115.785 148.95 120 149.544C120.03 146.359 120.231 143.178 120.6 140.014C121.002 136.288 121.741 132.606 122.81 129.014V126.754L123.02 126.494C123.7 125.674 129.71 118.564 133.61 120.144C135.87 121.064 136.72 124.424 136.21 130.414C135.29 141.304 132.77 150.664 128.72 158.264C128.538 158.605 128.278 158.898 127.962 159.12C127.646 159.343 127.282 159.488 126.9 159.544C123.335 159.992 119.743 160.196 116.15 160.154C105.9 160.174 94.7801 158.994 93.3101 158.834ZM124.63 127.364V129.284L124.58 129.424C123.541 132.933 122.834 136.532 122.47 140.174C122.073 143.593 121.876 147.032 121.88 150.474L121.94 151.604L120.82 151.394C120.76 151.394 113.88 150.124 108.01 151.944C101.77 153.884 93.5601 152.994 93.2101 152.944H92.9801L92.7801 152.804C91.1401 151.584 88.3401 149.924 87.2901 150.004C86.9901 150.004 86.9501 150.094 86.9501 150.094C86.9294 150.303 86.9749 150.513 87.0801 150.694L87.5501 151.614L86.5501 151.944C84.4001 152.684 81.1001 154.324 80.8701 155.524C80.8701 155.614 80.8101 155.854 81.2701 156.254C83.6701 158.324 90.6401 157.524 93.1201 157.034H93.2501H93.3901C93.6001 157.034 115.33 159.364 126.69 157.744C126.796 157.727 126.896 157.685 126.982 157.623C127.069 157.56 127.14 157.479 127.19 157.384C132.09 148.184 133.85 137.534 134.48 130.214C135.04 123.604 133.78 122.074 132.98 121.744C132.791 121.676 132.591 121.642 132.39 121.644C130.35 121.664 126.83 124.774 124.63 127.364Z" fill="#191F31"/>
<path d="M122.6 129.174C121.89 128.241 121.535 127.085 121.6 125.914C121.76 121.434 122.69 107.664 128.41 105.144C135.26 102.144 137.58 122.684 137.24 127.844C136.9 133.004 125.31 130.614 123.81 130.104C123.327 129.914 122.908 129.591 122.6 129.174V129.174Z" fill="white"/>
<path d="M123.47 130.904C122.837 130.662 122.288 130.242 121.89 129.694V129.694C121.034 128.599 120.601 127.232 120.67 125.844C120.86 120.254 121.95 106.964 128 104.294C128.629 103.994 129.327 103.87 130.021 103.936C130.715 104.001 131.378 104.252 131.94 104.664C137.01 108.214 138.32 124.164 138.07 127.864C138.037 128.446 137.865 129.012 137.569 129.514C137.274 130.017 136.863 130.442 136.37 130.754C134.725 131.65 132.86 132.066 130.99 131.954C128.449 131.925 125.922 131.573 123.47 130.904V130.904ZM128.72 105.904C124.53 107.754 122.72 117.444 122.44 125.904C122.393 126.864 122.687 127.81 123.27 128.574C123.47 128.854 123.738 129.078 124.05 129.224C125.6 129.754 132.77 131.024 135.38 129.224C135.648 129.065 135.871 128.842 136.03 128.575C136.189 128.308 136.278 128.005 136.29 127.694C136.59 123.314 134.88 108.844 130.91 106.064C130.556 105.802 130.13 105.655 129.69 105.644C129.345 105.649 129.005 105.723 128.69 105.864L128.72 105.904Z" fill="#191F31"/>
<path d="M124.02 156.574C124.616 156.58 125.202 156.428 125.72 156.134C126.056 155.924 126.346 155.649 126.573 155.324C126.8 154.999 126.959 154.632 127.04 154.244L125.31 153.824C125.252 154.14 125.073 154.42 124.81 154.604C124.408 154.796 123.952 154.842 123.52 154.734L123.07 156.464C123.382 156.536 123.7 156.572 124.02 156.574V156.574Z" fill="#191F31"/>
<path d="M130.25 127.614C132.892 127.733 135.51 127.054 137.76 125.664L136.76 124.214C133.12 126.814 126.46 125.484 126.39 125.474L126.04 127.224C127.429 127.481 128.838 127.612 130.25 127.614Z" fill="#191F31"/>
<path d="M93.2701 173.174L82.1601 147.774L48.5401 127.814C48.5214 127.796 48.4963 127.785 48.4701 127.785C48.4439 127.785 48.4188 127.796 48.4001 127.814C48.3931 127.826 48.3894 127.84 48.3894 127.854C48.3894 127.868 48.3931 127.882 48.4001 127.894L60.2701 154.314L93.0901 173.264C93.1082 173.279 93.1313 173.288 93.1551 173.288C93.179 173.288 93.202 173.279 93.2201 173.264C93.2457 173.24 93.2632 173.208 93.2701 173.174V173.174Z" fill="#6390CB"/>
<path d="M59.85 155.174L59.5701 154.984L47.57 128.354C47.4871 128.162 47.4666 127.948 47.5115 127.744C47.5563 127.539 47.6643 127.354 47.82 127.214L48.4201 126.764L82.57 146.974L82.8601 147.164L94.0801 172.824C94.1619 173.014 94.1827 173.225 94.1397 173.427C94.0967 173.629 93.992 173.814 93.8401 173.954L93.24 174.394L59.85 155.174ZM50.2401 129.904L60.9701 153.714L91.4701 171.334L81.4701 148.334L50.2401 129.904Z" fill="#191F31"/>
<path d="M69 152.294C70.4 154.074 72.2 155.004 73 154.364C73.8 153.724 73.32 151.764 71.92 149.984C70.52 148.204 68.72 147.274 67.92 147.904C67.12 148.534 67.59 150.514 69 152.294Z" fill="white"/>
<path d="M68.3 152.834C67.5855 151.969 67.0609 150.964 66.76 149.884C66.5666 149.425 66.5215 148.917 66.6308 148.431C66.7402 147.945 66.9986 147.506 67.37 147.174C68.79 146.054 71.09 147.434 72.63 149.394C74.17 151.354 74.98 153.904 73.56 155.024C73.2165 155.281 72.7993 155.422 72.37 155.424C71.05 155.464 69.47 154.314 68.3 152.834ZM68.47 148.604C68.32 148.784 68.38 150.074 69.7 151.734C71 153.394 72.24 153.734 72.45 153.664C72.66 153.594 72.54 152.194 71.23 150.534C70.6262 149.557 69.6765 148.843 68.57 148.534L68.47 148.604Z" fill="#191F31"/>
<path d="M94.3501 208.734C94.3501 208.484 94.7501 202.734 93.9401 199.354L92.6001 199.674C93.3701 202.834 92.9901 208.574 92.9801 208.674L94.3501 208.734Z" fill="#6390CB"/>
<path d="M77.39 198.934L78.76 198.834C78.53 195.914 78.38 190.214 78.38 190.164H77C77.01 190.254 77.16 195.994 77.39 198.934Z" fill="#6390CB"/>
<path d="M58.5901 188.174C58.9806 184.743 58.74 181.269 57.8801 177.924L56.5701 178.304C57.363 181.469 57.5865 184.75 57.2301 187.994L58.5901 188.174Z" fill="#6390CB"/>
<path d="M43.9501 180.304L45.3101 180.174C44.9985 176.92 44.9517 173.646 45.1701 170.384L43.8101 170.264C43.5717 173.608 43.6186 176.967 43.9501 180.304V180.304Z" fill="#6390CB"/>
</svg>
