<svg width="30" height="30" viewBox="0 0 30 30" fill="none" xmlns="http://www.w3.org/2000/svg">
<circle cx="15" cy="15" r="15" fill="white"/>
<path d="M23.6271 8.21937C23.5408 8.1039 23.4486 7.99305 23.3508 7.88727C23.4491 7.62313 23.5238 7.35065 23.574 7.07309C23.7221 6.05771 23.5935 5.02086 23.2019 4.07347C23.2019 4.07347 22.0114 3.69852 19.2794 5.55185C18.1196 5.22911 16.9215 5.06693 15.7183 5.06977C14.5116 5.06764 13.3102 5.2298 12.1466 5.55185C9.41463 3.67709 8.22405 4.07347 8.22405 4.07347C7.8372 5.01083 7.70866 6.03607 7.852 7.04095C7.90244 7.33005 7.98076 7.6135 8.08586 7.88727C7.99019 7.9944 7.89452 8.11224 7.80948 8.21937C7.01624 9.22212 6.59516 10.4724 6.6189 11.7546C6.61637 12.0587 6.63057 12.3627 6.66142 12.6652C7.00158 17.4111 10.1375 18.5145 13.1246 18.8573C12.7018 19.2535 12.4151 19.775 12.306 20.3464C12.2072 20.7274 12.1607 21.1203 12.1678 21.5141V22.9175C10.9783 23.0246 9.75798 22.85 9.37955 21.7809C8.97332 20.7575 8.2996 19.8642 7.42998 19.1958C7.36642 19.1612 7.30596 19.121 7.24927 19.0758C7.1729 18.8736 7.03761 18.6994 6.86117 18.576C6.68472 18.4527 6.47538 18.3861 6.26066 18.3849H6.25535C5.97434 18.3849 5.70476 18.497 5.50555 18.6967C5.30635 18.8965 5.19374 19.1676 5.19233 19.4508C5.18914 20.3207 6.05337 20.8831 6.40736 21.0738C6.82093 21.4938 7.15361 21.9874 7.38852 22.5297C7.77546 23.6256 8.90757 25.2915 12.1359 25.0751L12.1381 25.1801L12.1423 25.4672C12.1423 25.7513 12.2543 26.0238 12.4537 26.2247C12.653 26.4256 12.9234 26.5385 13.2053 26.5385H18.2164C18.4983 26.5385 18.7687 26.4256 18.9681 26.2247C19.1674 26.0238 19.2794 25.7513 19.2794 25.4672C19.2794 25.4672 19.2879 22.0819 19.2879 21.5141C19.295 21.1203 19.2485 20.7274 19.1497 20.3464L19.1476 20.34L19.1519 20.3464C19.1423 20.3089 19.1285 20.2789 19.1178 20.2425C18.9994 19.7117 18.7253 19.2291 18.3312 18.8573L18.344 18.8798L18.3227 18.8584C21.3098 18.5156 24.4244 17.3907 24.7646 12.6663C24.7954 12.3638 24.8096 12.0598 24.8071 11.7557C24.826 10.4761 24.4096 9.22847 23.6271 8.22044V8.21937Z" fill="black"/>
</svg>
