<svg id="Calque_1" data-name="Calque 1" xmlns="http://www.w3.org/2000/svg" viewBox="0 0 79.29 79.29"><defs><style>.cls-1{fill:#517bbd;}.cls-2{fill:#fff;}</style></defs><g id="Groupe_41639" data-name="Groupe 41639"><rect id="Rectangle_12423" data-name="Rectangle 12423" class="cls-1" width="79.29" height="79.29" rx="10.76"/><g id="Groupe_41637" data-name="Groupe 41637"><path id="Tracé_45923" data-name="Tracé 45923" class="cls-2" d="M50,30.62A8.7,8.7,0,0,0,42.12,35V31.24H33.34c.12,2.47,0,26.37,0,26.37H42.1V42.87a5.83,5.83,0,0,1,.29-2.15,4.81,4.81,0,0,1,4.5-3.21c3.18,0,4.45,2.43,4.45,6V57.6H60.1V42.47C60.11,34.39,55.79,30.62,50,30.62Z"/><rect id="Rectangle_12348" data-name="Rectangle 12348" class="cls-2" x="19.72" y="31.24" width="8.77" height="26.39"/><path id="Tracé_45924" data-name="Tracé 45924" class="cls-2" d="M24.16,18.52a4.09,4.09,0,0,0-.7,0A4.57,4.57,0,0,0,24,27.64h.06a4.21,4.21,0,0,0,.71,0,4.57,4.57,0,0,0-.64-9.12Z"/></g></g></svg>