<svg id="Calque_1" data-name="Calque 1" xmlns="http://www.w3.org/2000/svg" viewBox="0 0 30.97 29.6"><defs><style>.cls-1{fill:#fff;}</style></defs><g id="Groupe_41543" data-name="Groupe 41543"><path id="Tracé_45923" data-name="Tracé 45923" class="cls-1" d="M23.33,9.17a6.59,6.59,0,0,0-6,3.3V9.64H10.72c.08,1.87,0,20,0,20h6.62V18.45a4.7,4.7,0,0,1,.22-1.62A3.62,3.62,0,0,1,21,14.41c2.4,0,3.36,1.83,3.36,4.51V29.6H31V18.15C31,12,27.7,9.17,23.33,9.17Z"/><rect id="Rectangle_12348" data-name="Rectangle 12348" class="cls-1" x="0.41" y="9.64" width="6.64" height="19.97"/><path id="Tracé_45924" data-name="Tracé 45924" class="cls-1" d="M3.77,0H3.24A3.45,3.45,0,0,0,0,3.68H0A3.46,3.46,0,0,0,3.68,6.91h0a2.35,2.35,0,0,0,.53,0A3.46,3.46,0,1,0,3.77,0Z"/></g></svg>