<svg id="Calque_1" data-name="Calque 1" xmlns="http://www.w3.org/2000/svg" xmlns:xlink="http://www.w3.org/1999/xlink" viewBox="0 0 187.17 75.36"><defs><style>.cls-1,.cls-5{fill:none;}.cls-2,.cls-4{fill:#fff;}.cls-3{clip-path:url(#clip-path);}.cls-4{isolation:isolate;opacity:0.6;}.cls-5{stroke:#fff;stroke-miterlimit:10;stroke-width:0.94px;}</style><clipPath id="clip-path"><rect class="cls-1" x="0.01" width="187.16" height="75.36"/></clipPath></defs><g id="Groupe_35259" data-name="Groupe 35259"><path id="Tracé_5598" data-name="Tracé 5598" class="cls-2" d="M57.52,33.6h9.72v1.25H59v5.53h7.34v1.25H59v7.3H57.52Z"/><g id="Groupe_466" data-name="Groupe 466"><g class="cls-3"><g id="Groupe_465" data-name="Groupe 465"><path id="Tracé_5599" data-name="Tracé 5599" class="cls-2" d="M75.46,48c4,0,5.75-3.39,5.75-6.73s-1.71-6.74-5.75-6.74-5.77,3.39-5.77,6.74S71.41,48,75.46,48m0-14.72c4.81,0,7.21,3.78,7.21,8s-2.4,8-7.21,8-7.23-3.78-7.23-8,2.4-8,7.23-8"/><path id="Tracé_5600" data-name="Tracé 5600" class="cls-2" d="M84.8,33.61h1.46v9.48c0,3.54,1.65,4.92,4.48,4.92s4.51-1.38,4.51-4.92V33.61h1.46v9.8c0,3.16-1.7,5.84-6,5.84s-5.94-2.68-5.94-5.84Z"/></g></g></g><path id="Tracé_5601" data-name="Tracé 5601" class="cls-2" d="M99.63,33.6h1.63l8.93,13h0v-13h1.46V48.93h-1.63l-8.93-13h0v13H99.63Z"/><g id="Groupe_468" data-name="Groupe 468"><g class="cls-3"><g id="Groupe_467" data-name="Groupe 467"><path id="Tracé_5602" data-name="Tracé 5602" class="cls-2" d="M116.22,47.68h3.11c4.4,0,6.31-1.82,6.31-6.41s-1.91-6.42-6.31-6.42h-3.11Zm-1.46-14.07h5.3c4.64.1,7,2.6,7,7.66s-2.4,7.55-7,7.66h-5.3Z"/></g></g></g><path id="Tracé_5603" data-name="Tracé 5603" class="cls-2" d="M131.63,42.92h6l-3-7.86ZM134,33.61h1.63l6,15.32H140l-1.87-4.77h-7l-1.85,4.77h-1.56Z"/><path id="Tracé_5604" data-name="Tracé 5604" class="cls-2" d="M139.87,33.6H152v1.25h-5.35V48.93h-1.46V34.85h-5.34Z"/><rect id="Rectangle_613" data-name="Rectangle 613" class="cls-2" x="153.56" y="33.61" width="1.46" height="15.32"/><g id="Groupe_470" data-name="Groupe 470"><g class="cls-3"><g id="Groupe_469" data-name="Groupe 469"><path id="Tracé_5605" data-name="Tracé 5605" class="cls-2" d="M164.64,48c4,0,5.75-3.39,5.75-6.73s-1.72-6.74-5.75-6.74-5.78,3.39-5.78,6.74S160.58,48,164.64,48m0-14.72c4.8,0,7.21,3.78,7.21,8s-2.4,8-7.21,8-7.23-3.78-7.23-8,2.4-8,7.23-8"/></g></g></g><path id="Tracé_5606" data-name="Tracé 5606" class="cls-2" d="M184.7,33.6v13h0l-8.93-13H174.1V48.93h1.46V36h0l8.93,13h1.63V33.6Z"/><path id="Tracé_5607" data-name="Tracé 5607" class="cls-2" d="M57.52.15V27.56H78.1v-7H66V.15Z"/><rect id="Rectangle_615" data-name="Rectangle 615" class="cls-2" x="83.63" y="0.15" width="8.45" height="27.41"/><path id="Tracé_5608" data-name="Tracé 5608" class="cls-2" d="M115.07.15V14.81H115L107,.15H98.37V27.56h8v-15h.07l8.41,15h8.22V.15Z"/><g id="Groupe_472" data-name="Groupe 472"><g class="cls-3"><g id="Groupe_471" data-name="Groupe 471"><path id="Tracé_5609" data-name="Tracé 5609" class="cls-2" d="M154.27,17c0,7.64-4,11.25-12.48,11.25S129.27,24.6,129.27,17V.15h8.45V15.08c0,2.76,0,6.3,4.11,6.3,4,0,4-3.53,4-6.3V.15h8.45Z"/></g></g></g><path id="Tracé_5610" data-name="Tracé 5610" class="cls-2" d="M176.8.15l-4.07,7.44L168.58.15h-9.9l9,12.82L157.8,27.56h9.68l4.83-8.18L177,27.56h10.17l-9.79-14.51L186.17.15Z"/><path id="Tracé_5611" data-name="Tracé 5611" class="cls-4" d="M0,19.62V49H29.41v-9.8H9.81V19.62Z"/><path id="Tracé_5612" data-name="Tracé 5612" class="cls-2" d="M0,0V14.7h9.8V9.85H39.22V39.22h-4.9V49H49V0Z"/><g id="Groupe_474" data-name="Groupe 474"><g class="cls-3"><g id="Groupe_473" data-name="Groupe 473"><line id="Ligne_57" data-name="Ligne 57" class="cls-5" x1="0.04" y1="56.53" x2="186.22" y2="56.53"/><path id="Tracé_5613" data-name="Tracé 5613" class="cls-2" d="M7.46,72.05a2.9,2.9,0,0,1-1.11,2.43,4.92,4.92,0,0,1-3.09.88A7.42,7.42,0,0,1,0,74.75V73a8.44,8.44,0,0,0,1.69.58,7.13,7.13,0,0,0,1.66.22,2.71,2.71,0,0,0,1.66-.43,1.39,1.39,0,0,0,.53-1.15,1.42,1.42,0,0,0-.49-1.1,7.31,7.31,0,0,0-2-1.07A5.38,5.38,0,0,1,.83,68.54a3.06,3.06,0,0,1-.65-2,2.79,2.79,0,0,1,1-2.29A4.26,4.26,0,0,1,4,63.44a8.23,8.23,0,0,1,3.32.73l-.6,1.55a7.15,7.15,0,0,0-2.76-.65,2.08,2.08,0,0,0-1.4.4,1.3,1.3,0,0,0-.47,1.06,1.4,1.4,0,0,0,.19.77,2,2,0,0,0,.62.61,11.3,11.3,0,0,0,1.57.75,8.38,8.38,0,0,1,1.87,1,3,3,0,0,1,.88,1,3.18,3.18,0,0,1,.27,1.36"/></g></g></g><rect id="Rectangle_618" data-name="Rectangle 618" class="cls-2" x="14.79" y="63.61" width="1.89" height="11.6"/><path id="Tracé_5614" data-name="Tracé 5614" class="cls-2" d="M24.83,63.61V75.2h6.8V73.57H26.72v-10Z"/><g id="Groupe_476" data-name="Groupe 476"><g class="cls-3"><g id="Groupe_475" data-name="Groupe 475"><path id="Tracé_5615" data-name="Tracé 5615" class="cls-2" d="M45.32,63.61h2L43.23,75.2h-2l-4-11.59h2l2.42,7.21a13,13,0,0,1,.4,1.32c.14.55.24,1,.28,1.21.07-.4.17-.86.32-1.4s.26-.92.35-1.17Z"/></g></g></g><path id="Tracé_5616" data-name="Tracé 5616" class="cls-2" d="M53.9,63.61V75.2h6.56V73.59H55.79V70h4.37V68.37H55.79V65.21h4.67v-1.6Z"/><g id="Groupe_478" data-name="Groupe 478"><g class="cls-3"><g id="Groupe_477" data-name="Groupe 477"><path id="Tracé_5617" data-name="Tracé 5617" class="cls-2" d="M69.94,69h1.32a3,3,0,0,0,1.92-.49,1.8,1.8,0,0,0,.59-1.46,1.56,1.56,0,0,0-.64-1.41,3.44,3.44,0,0,0-1.94-.43H69.94Zm0,1.57V75.2H68.05V63.61h3.27a5.32,5.32,0,0,1,3.32.84A3,3,0,0,1,75.72,67a3.18,3.18,0,0,1-2.25,3.08l3.27,5.13H74.59l-2.78-4.63Z"/><path id="Tracé_5618" data-name="Tracé 5618" class="cls-2" d="M97.82,75.2l-3.36-9.68H94.4c.09,1.44.13,2.78.13,4V75.2H92.81V63.61h2.67l3.22,9.22h0l3.31-9.22h2.68V75.2h-1.82V69.47c0-.58,0-1.33,0-2.25s.06-1.49.08-1.69H103L99.5,75.2Z"/></g></g></g><path id="Tracé_5619" data-name="Tracé 5619" class="cls-2" d="M112.88,63.61V75.2h6.56V73.59h-4.66V70h4.37V68.37h-4.37V65.21h4.66v-1.6Z"/><g id="Groupe_480" data-name="Groupe 480"><g class="cls-3"><g id="Groupe_479" data-name="Groupe 479"><path id="Tracé_5620" data-name="Tracé 5620" class="cls-2" d="M132,75.2l-3.36-9.68h-.06c.09,1.44.14,2.78.13,4V75.2H127V63.61h2.68l3.22,9.22h0l3.32-9.22H139V75.2h-1.83V69.47c0-.58,0-1.33.05-2.25s.05-1.49.07-1.69h-.06l-3.48,9.67Z"/><path id="Tracé_5621" data-name="Tracé 5621" class="cls-2" d="M149,69.94v3.67h2a3,3,0,0,0,1.8-.46,1.68,1.68,0,0,0,.6-1.44,1.51,1.51,0,0,0-.62-1.34,3.22,3.22,0,0,0-1.87-.43Zm0-1.54h1.83a3.16,3.16,0,0,0,1.73-.38,1.44,1.44,0,0,0,.55-1.28,1.27,1.27,0,0,0-.59-1.18,3.67,3.67,0,0,0-1.87-.37H149Zm-1.9-4.79h3.44a6.52,6.52,0,0,1,3.47.7,2.43,2.43,0,0,1,1.06,2.2,2.67,2.67,0,0,1-.52,1.69,2.34,2.34,0,0,1-1.51.85v.08a3,3,0,0,1,1.8.91,2.75,2.75,0,0,1,.58,1.83,3,3,0,0,1-1.09,2.45,4.66,4.66,0,0,1-3,.88H147.1Z"/></g></g></g><path id="Tracé_5622" data-name="Tracé 5622" class="cls-2" d="M162.9,63.61V75.2h6.56V73.59H164.8V70h4.36V68.37H164.8V65.21h4.66v-1.6Z"/><g id="Groupe_482" data-name="Groupe 482"><g class="cls-3"><g id="Groupe_481" data-name="Groupe 481"><path id="Tracé_5623" data-name="Tracé 5623" class="cls-2" d="M178.94,69h1.32a3,3,0,0,0,1.92-.49,1.8,1.8,0,0,0,.59-1.46,1.56,1.56,0,0,0-.64-1.41,3.43,3.43,0,0,0-1.93-.43h-1.26Zm0,1.57V75.2h-1.89V63.61h3.27a5.32,5.32,0,0,1,3.32.84A3,3,0,0,1,184.72,67a3.17,3.17,0,0,1-2.25,3.08l3.28,5.13h-2.16l-2.78-4.63Z"/></g></g></g></g></svg>