<svg width="30" height="30" viewBox="0 0 30 30" fill="none" xmlns="http://www.w3.org/2000/svg">
<circle cx="15" cy="15" r="15" fill="white"/>
<path d="M8.5 10H21.5C21.7765 10 22 10.2234 22 10.5V20.5C22 20.7765 21.7765 21 21.5 21H8.5C8.22344 21 8 20.7765 8 20.5V10.5C8 10.2234 8.22344 10 8.5 10ZM9.125 11.7313V19.875H20.875V11.7313L21.3062 11.3953L20.6922 10.6062L20.0234 11.1266H9.975L9.30625 10.6062L8.69218 11.3953L9.125 11.7313ZM9.975 11.125L15 15.0312L20.025 11.125L20.6938 10.6047L21.3078 11.3937L20.8765 11.7297L15.5391 15.8797C15.3856 15.999 15.1967 16.0637 15.0023 16.0637C14.8079 16.0637 14.6191 15.999 14.4656 15.8797L9.125 11.7313L8.69375 11.3953L9.30781 10.6062L9.975 11.125Z" fill="black"/>
</svg>
