<svg xmlns="http://www.w3.org/2000/svg" xmlns:xlink="http://www.w3.org/1999/xlink" width="162.11" height="94" viewBox="0 0 162.11 94">
  <defs>
    <filter id="Ellipse_761" x="34.055" y="0" width="94" height="94" filterUnits="userSpaceOnUse">
      <feOffset dy="3" input="SourceAlpha"/>
      <feGaussianBlur stdDeviation="3" result="blur"/>
      <feFlood flood-opacity="0.161"/>
      <feComposite operator="in" in2="blur"/>
      <feComposite in="SourceGraphic"/>
    </filter>
  </defs>
  <g id="Group_41596" data-name="Group 41596" transform="translate(-1202.945 -2367)">
    <g transform="matrix(1, 0, 0, 1, 1202.94, 2367)" filter="url(#Ellipse_761)">
      <circle id="Ellipse_761-2" data-name="Ellipse 761" cx="38" cy="38" r="38" transform="translate(43.06 6)" fill="#fff"/>
    </g>
    <g id="Group_41595" data-name="Group 41595" transform="translate(649.152 2101)">
      <path id="Path_45937" data-name="Path 45937" d="M651.836,285c.623.13,1.262.208,1.866.4,3.841,1.2,6.489,3.609,7.473,7.611a8.75,8.75,0,0,1,.18,2.045c.015,4.636.008,9.272.008,13.908a10,10,0,0,1-6.739,9.758,11.222,11.222,0,0,1-13.663-4.738,8.627,8.627,0,0,1-1.149-4.3c0-4.988-.042-9.976.016-14.963.043-3.776,2.046-6.414,5.179-8.292a9.951,9.951,0,0,1,4.061-1.346,1.607,1.607,0,0,0,.273-.079Zm6.736,17.174c0-2.43-.013-4.861.005-7.291a6.192,6.192,0,0,0-1.254-3.8,8.486,8.486,0,0,0-11.334-1.989,6.916,6.916,0,0,0-3.4,6.206c.063,4.732.029,9.465.011,14.2a6.306,6.306,0,0,0,1.324,3.918,8.445,8.445,0,0,0,10.321,2.41c2.779-1.373,4.422-3.53,4.338-6.8C658.525,306.748,658.572,304.46,658.572,302.174Z" transform="translate(-15.744)" fill="#5d84c1"/>
      <path id="Path_45938" data-name="Path 45938" d="M633.419,402.672v-6.44c-1.055-.219-2.123-.352-3.134-.667-5.729-1.785-9.6-5.427-11.1-11.348a15.019,15.019,0,0,1-.332-2.656,1.394,1.394,0,0,1,1.351-1.633c.833-.018,1.37.57,1.428,1.517.337,5.449,3.293,9.037,8.19,11.019a13.567,13.567,0,0,0,16.107-4.671,11.376,11.376,0,0,0,2.135-6.4,1.379,1.379,0,0,1,1.284-1.461,1.4,1.4,0,0,1,1.5,1.542,13.76,13.76,0,0,1-2.529,7.766,15.971,15.971,0,0,1-11.354,6.833c-.22.03-.439.063-.689.1v6.5h.543q2.878,0,5.756,0a1.4,1.4,0,1,1,.013,2.783q-7.746,0-15.493,0a1.4,1.4,0,1,1,.026-2.783q2.878,0,5.756,0Z" transform="translate(0 -71.332)" fill="#5d84c1"/>
    </g>
  </g>
  <g id="Group_41599" data-name="Group 41599" transform="translate(-892.504 -585.091)">
    <path id="Path_45939" data-name="Path 45939" d="M963.932,658.6a.816.816,0,0,0-1.162-.2,15.107,15.107,0,0,0-1.443,1.211,15.26,15.26,0,0,0-.518,21.55q.381.4.786.764a.817.817,0,0,0,1.019.068l1.434-1.009a.813.813,0,0,0,.047-1.289,11.485,11.485,0,0,1-.878-.829,11.93,11.93,0,0,1,.405-16.848,11.362,11.362,0,0,1,1.077-.9.807.807,0,0,0,.189-1.1Z" transform="translate(-46.934 -38.971)" fill="#fff"/>
    <path id="Path_45940" data-name="Path 45940" d="M933.523,665.3a20.531,20.531,0,0,1,.7-28.995,20.268,20.268,0,0,1,2.2-1.814.806.806,0,0,0,.192-1.1l-.953-1.414a.806.806,0,0,0-1.132-.215,23.585,23.585,0,0,0-2.6,2.14,23.861,23.861,0,0,0-.984,33.513l1.069.1,1.407-.99a.805.805,0,0,0,.111-1.218Z" transform="translate(-23.46 -19.473)" fill="#fff"/>
    <path id="Path_45941" data-name="Path 45941" d="M904.833,610.612a28.874,28.874,0,0,1,3.3-2.706.811.811,0,0,0,.213-1.118l-.952-1.413a.811.811,0,0,0-1.135-.217,32.374,32.374,0,0,0-5.863,47.731.813.813,0,0,0,1.08.127l1.4-.982a.813.813,0,0,0,.134-1.2A29.131,29.131,0,0,1,904.833,610.612Z" fill="#fff"/>
  </g>
  <g id="Group_41600" data-name="Group 41600" transform="translate(136.522 19.923)">
    <path id="Path_45939-2" data-name="Path 45939" d="M957.7,658.6a.816.816,0,0,1,1.162-.2,15.1,15.1,0,0,1,1.443,1.211,15.26,15.26,0,0,1,.518,21.55q-.381.4-.786.764a.817.817,0,0,1-1.019.068l-1.434-1.009a.813.813,0,0,1-.047-1.289,11.485,11.485,0,0,0,.878-.829,11.93,11.93,0,0,0-.405-16.848,11.355,11.355,0,0,0-1.077-.9.807.807,0,0,1-.189-1.1Z" transform="translate(-956.608 -643.985)" fill="#fff"/>
    <path id="Path_45940-2" data-name="Path 45940" d="M927.77,665.3a20.532,20.532,0,0,0-.7-29,20.282,20.282,0,0,0-2.2-1.814.806.806,0,0,1-.192-1.1l.953-1.414a.806.806,0,0,1,1.132-.215,23.586,23.586,0,0,1,2.6,2.14,23.862,23.862,0,0,1,.984,33.514l-1.069.1-1.407-.99a.805.805,0,0,1-.111-1.218Z" transform="translate(-919.742 -624.487)" fill="#fff"/>
    <path id="Path_45941-2" data-name="Path 45941" d="M896.156,610.612a28.875,28.875,0,0,0-3.3-2.706.811.811,0,0,1-.213-1.118l.952-1.413a.811.811,0,0,1,1.135-.217,32.375,32.375,0,0,1,5.863,47.733.813.813,0,0,1-1.08.127l-1.4-.982a.813.813,0,0,1-.134-1.2A29.132,29.132,0,0,0,896.156,610.612Z" transform="translate(-882.898 -605.014)" fill="#fff"/>
  </g>
</svg>
