<svg id="Component_306_3" data-name="Component 306 – 3" xmlns="http://www.w3.org/2000/svg" width="1982.289" height="1356.318" viewBox="0 0 1982.289 1356.318">
  <g id="Group_41588" data-name="Group 41588" transform="translate(0 24.453)" opacity="0.086">
    <path id="Path_26245" data-name="Path 26245" d="M98.639,527.427a136.053,136.053,0,0,1,16.89-1.977c34.464-1.861,68.424,7.336,102.027,15.213,61.288,14.368,124.547,24.606,187.085,17.409s124.826-33.549,165.031-81.987c23.749-28.611,39.268-66.183,33.413-102.9-9.025-56.617-65.268-98.51-69.044-155.715C527.027,111.139,664.46,118.035,733.173,97.549c27.82-8.294,59.186-28.243,56.018-57.1C786.074,12.058,752.657-.638,724.883-7.3,641.209-27.365,554.6-59.25,467.965-53.062,393.05-49.7,315.13-30.261,238.2-6.247,199,5.99,156.8,21.414,127.557,53.372,110.1,72.454,99.382,95.263,89.08,117.449q-90.049,193.946-180.1,387.9c-14.348,30.9-40.515,92.417-19.583,125.865,26.312,42.046,93.245,32.058,116.6-6.46,9.829-16.209,12.809-35.775,22.155-52.267C42.39,547.353,69.856,532.648,98.639,527.427Z" transform="translate(169.781 92.24)" opacity="0.5" style="mix-blend-mode: soft-light;isolation: isolate"/>
    <path id="Path_26246" data-name="Path 26246" d="M41.065,456.711c50.433-9.044,97.272-.919,143.511,5.9s94.736,12.2,145.384-1.993,104.226-52.905,121.846-101.469c17.359-47.845-3.474-90.2-1.157-136.873,2.367-47.641,30.833-100.457,73.872-137.065,18.509-15.746,40.9-30.387,49.815-51.247,11.417-26.711-5.277-49.334-24.383-63.232C503.578-62.992,439.766-74.973,373.552-72S238.466-51.845,170.471-30.622C135.826-19.806,98.528-6.175,72.681,22.073,57.248,38.938,47.777,59.1,38.673,78.706q-79.59,171.424-159.185,342.843c-11.293,24.325-22.838,49.677-22.776,73.4.114,42.143,32.6,51.112,69.936,21.448C-35.906,486.646-3.685,464.737,41.065,456.711Z" transform="translate(143.288 72.436)" opacity="0.5" style="mix-blend-mode: soft-light;isolation: isolate"/>
    <path id="Path_26247" data-name="Path 26247" d="M154.5,646.534c41.963,13.354,81.652,34.3,118.14,59.171,49.309,33.611,94.87,75.235,151.568,93.854,53.676,17.625,112.512,12.675,167.1-1.877,55.943-14.914,110.681-40.769,149.221-83.976,44-49.328,49.774-109.931,46.525-172.948-3.251-63.046-51.338-115.65-54.8-179.72C728.748,296.018,765.333,221.948,819,164.08S941.749,63.133,1011.827,31.552c158.445-71.408,328.634-87.588,465.283-44.231,18.658,5.919,38.553,15.333,39.534,35.437.83,17.01-13.125,36.213-29.867,48.3s-35.9,18.555-54.516,24.755L1020.7,232.884c-42.013,13.993-85.079,28.506-123.331,54.975s-71.272,67.862-73.81,107.388c-2.569,40.026,25.534,67.78,55.714,87.607,43.836,28.8,94.823,48.419,141.113,74.159s88.9,58.952,108.968,107.773,13.569,115.918-28.917,168.875C1044.573,903.3,951.016,925.7,870.043,938.979c-185.965,30.5-378.317,50.753-530.618-9.164-48.015-18.889-94.462-54.859-144.25-67.049C149.364,851.55,101.469,878.346,57.1,885.8A190.285,190.285,0,0,1-77,857.79c-35.868-23.419-64.585-63.961-59.347-106.476,4.219-34.241,29.406-62.633,58.18-81.667C-26.12,635.222,39.673,625,101.4,634.126A338.024,338.024,0,0,1,154.5,646.534Z" transform="translate(150.027 110.642)" opacity="0.5" style="mix-blend-mode: soft-light;isolation: isolate"/>
    <path id="Path_26248" data-name="Path 26248" d="M320.7,980.452c91.8-28.76,187.019-46.829,277.11-80.667,61.171-22.977,120.447-54.268,169.54-97.843,42.1-37.364,93.016-95.1,98.485-152.96,7.9-83.555-53.58-158.311-122.048-206.848-55.27-39.179-123.017-75.725-138.721-141.627-11.014-46.22,8.773-95.911,41.8-130.07s77.6-54.836,122.781-69.533c137.8-44.822,294.478-38.239,421.6,31.314s219.508,205.035,223.87,349.871c1.983,65.809-13.234,130.793-28.665,194.8-19.538,81.049-42.492,176.244-112.841,228.455q-1.93,1.425-3.86,2.846c-65.1,47.756-137.112,87.433-212.873,115.507-37.523,13.9-81.721,7.224-121.466,7.167l-135.729-.2q-271.46-.4-542.921-.789c-4.732-7.714-1.679-18.286,4.632-24.771s15.108-9.81,23.644-12.819Q302.758,986.04,320.7,980.452Z" transform="translate(567.006 226.825)" opacity="0.5" style="mix-blend-mode: soft-light;isolation: isolate"/>
    <path id="Path_26249" data-name="Path 26249" d="M137.3,706.476c59.566,26.407,109.1,71.125,166.39,102.157,102.952,55.759,230.593,63.684,339.65,21.087,42.174-16.473,83.117-41.633,106.205-80.578,37.735-63.655,29.309-142.747,12.543-211.559-20.015-82.158-51.941-167.359-41.011-253.311,11.562-90.93,90.275-146.01,164.079-188.363,99.5-57.1,209.837-105.265,324.421-99.72,17.347.839,35.443,3.205,49.683,13.146s23.076,29.551,15.715,45.28L926.34,154.724c-45.39,13.034-92.547,27.031-127.339,58.963-35.716,32.777-54.256,82.528-51.672,130.937s25.447,94.883,60.138,128.744C861.382,525.994,945.139,553.849,971.03,624.6c22.595,61.749-12.185,132.763-64.74,172.279s-119.008,54.584-183.372,68.025c-119.284,24.908-244.672,47.407-361.393,12.4-55.293-16.58-106-45.41-159.238-67.716S90.483,771.339,33.845,782.49C12.6,786.672-8.08,794.618-29.723,795.2s-45.668-8.592-53.909-28.611c-15.808-38.4,56.146-62.015,81.954-71.185C43.034,679.515,94.81,687.636,137.3,706.476Z" transform="translate(204.449 145.077)" opacity="0.5" style="mix-blend-mode: soft-light;isolation: isolate"/>
    <path id="Path_26250" data-name="Path 26250" d="M689.385,842.349c48.083-69.062,68.629-156.749,56.234-239.982S688.018,441.24,621.9,389.185c-36.238-28.53-81.308-53.38-94.4-97.6-9.323-31.484.965-66.594,21.347-92.338s49.716-43.087,80.3-55.033c119.208-46.552,260.241-13.988,361.4,64.4,27.4,21.234,52.986,46.443,66.857,78.212,22.535,51.608,10.51,112.349-13.749,163.169s-59.812,95.383-87.095,144.645c-21.746,39.266-38.107,81.272-58.608,121.2-83.542,162.708-238.625,287.021-415.614,333.153-29.606,7.716-82.3-2.117-36.752-31.176,28.5-18.187,63.366-28.762,93.059-45.549C596.764,939.4,650.931,897.584,689.385,842.349Z" transform="translate(751.644 280.349)" opacity="0.5" style="mix-blend-mode: soft-light;isolation: isolate"/>
  </g>
  <g id="Group_41591" data-name="Group 41591" transform="translate(51)" opacity="0.217">
    <path id="Path_26251" data-name="Path 26251" d="M-55.512,68.069a.062.062,0,0,0,0-.123A.062.062,0,0,0-55.512,68.069Z" transform="translate(1282.135 837.24)"/>
    <ellipse id="Ellipse_624" data-name="Ellipse 624" cx="2.582" cy="2.582" rx="2.582" ry="2.582" transform="translate(1387.858 1002.452)" fill="#fff"/>
    <ellipse id="Ellipse_625" data-name="Ellipse 625" cx="2.582" cy="2.582" rx="2.582" ry="2.582" transform="translate(1732.757 1002.452)" fill="#fff"/>
    <ellipse id="Ellipse_626" data-name="Ellipse 626" cx="2.582" cy="2.582" rx="2.582" ry="2.582" transform="translate(1732.757 1245.12)" fill="#fff"/>
    <ellipse id="Ellipse_627" data-name="Ellipse 627" cx="2.582" cy="2.582" rx="2.582" ry="2.582" transform="translate(771.376 660.65)" fill="#fff"/>
    <ellipse id="Ellipse_628" data-name="Ellipse 628" cx="2.582" cy="2.582" rx="2.582" ry="2.582" transform="translate(504.957 660.65)" fill="#fff"/>
    <ellipse id="Ellipse_629" data-name="Ellipse 629" cx="2.582" cy="2.582" rx="2.582" ry="2.582" transform="translate(504.957 235.206)" fill="#fff"/>
    <ellipse id="Ellipse_630" data-name="Ellipse 630" cx="2.582" cy="2.582" rx="2.582" ry="2.582" transform="translate(504.957 0)" fill="#fff"/>
    <ellipse id="Ellipse_631" data-name="Ellipse 631" cx="2.582" cy="2.582" rx="2.582" ry="2.582" transform="translate(47.501 300.262)" fill="#fff"/>
    <ellipse id="Ellipse_632" data-name="Ellipse 632" cx="2.582" cy="2.582" rx="2.582" ry="2.582" transform="translate(28.914 254.826)" fill="#fff"/>
    <ellipse id="Ellipse_633" data-name="Ellipse 633" cx="2.582" cy="2.582" rx="2.582" ry="2.582" transform="translate(1190.625 660.65)" fill="#fff"/>
    <ellipse id="Ellipse_634" data-name="Ellipse 634" cx="2.582" cy="2.582" rx="2.582" ry="2.582" transform="translate(1635.689 599.725)" fill="#fff"/>
    <ellipse id="Ellipse_635" data-name="Ellipse 635" cx="4.647" cy="4.647" rx="4.647" ry="4.647" transform="translate(1393.021 415.917)" fill="#fff"/>
    <ellipse id="Ellipse_636" data-name="Ellipse 636" cx="4.647" cy="4.647" rx="4.647" ry="4.647" transform="translate(1767.866 415.917)" fill="#fff"/>
    <ellipse id="Ellipse_637" data-name="Ellipse 637" cx="4.647" cy="4.647" rx="4.647" ry="4.647" transform="translate(1767.866 887.829)" fill="#fff"/>
    <ellipse id="Ellipse_638" data-name="Ellipse 638" cx="2.582" cy="2.582" rx="2.582" ry="2.582" transform="translate(771.376 486.136)" fill="#fff"/>
    <ellipse id="Ellipse_639" data-name="Ellipse 639" cx="2.582" cy="2.582" rx="2.582" ry="2.582" transform="translate(999.588 264.12)" fill="#fff"/>
    <ellipse id="Ellipse_640" data-name="Ellipse 640" cx="2.582" cy="2.582" rx="2.582" ry="2.582" transform="translate(999.588 94.768)" fill="#fff"/>
    <ellipse id="Ellipse_641" data-name="Ellipse 641" cx="2.582" cy="2.582" rx="2.582" ry="2.582" transform="translate(1387.858 580.105)" fill="#fff"/>
    <ellipse id="Ellipse_642" data-name="Ellipse 642" cx="1.549" cy="1.549" rx="1.549" ry="1.549" transform="translate(1306.28 942.559)" fill="#fff"/>
    <ellipse id="Ellipse_643" data-name="Ellipse 643" cx="1.549" cy="1.549" rx="1.549" ry="1.549" transform="translate(1306.28 1287.458)" fill="#fff"/>
    <ellipse id="Ellipse_644" data-name="Ellipse 644" cx="1.549" cy="1.549" rx="1.549" ry="1.549" transform="translate(753.822 942.559)" fill="#fff"/>
    <ellipse id="Ellipse_645" data-name="Ellipse 645" cx="1.549" cy="1.549" rx="1.549" ry="1.549" transform="translate(753.822 1190.391)" fill="#fff"/>
    <ellipse id="Ellipse_646" data-name="Ellipse 646" cx="1.549" cy="1.549" rx="1.549" ry="1.549" transform="translate(1454.979 743.261)" fill="#fff"/>
    <ellipse id="Ellipse_647" data-name="Ellipse 647" cx="1.549" cy="1.549" rx="1.549" ry="1.549" transform="translate(1792.65 743.261)" fill="#fff"/>
    <ellipse id="Ellipse_648" data-name="Ellipse 648" cx="1.549" cy="1.549" rx="1.549" ry="1.549" transform="translate(1876.293 743.261)" fill="#fff"/>
    <ellipse id="Ellipse_649" data-name="Ellipse 649" cx="1.549" cy="1.549" rx="1.549" ry="1.549" transform="translate(1564.438 514.017)" fill="#fff"/>
    <ellipse id="Ellipse_650" data-name="Ellipse 650" cx="1.549" cy="1.549" rx="1.549" ry="1.549" transform="translate(563.817 743.261)" fill="#fff"/>
    <ellipse id="Ellipse_651" data-name="Ellipse 651" cx="1.549" cy="1.549" rx="1.549" ry="1.549" transform="translate(1177.201 675.107)" fill="#fff"/>
    <ellipse id="Ellipse_652" data-name="Ellipse 652" cx="1.549" cy="1.549" rx="1.549" ry="1.549" transform="translate(1622.265 638.965)" fill="#fff"/>
    <ellipse id="Ellipse_653" data-name="Ellipse 653" cx="1.549" cy="1.549" rx="1.549" ry="1.549" transform="translate(508.055 860.981)" fill="#fff"/>
    <ellipse id="Ellipse_654" data-name="Ellipse 654" cx="1.549" cy="1.549" rx="1.549" ry="1.549" transform="translate(508.055 1242.022)" fill="#fff"/>
    <ellipse id="Ellipse_655" data-name="Ellipse 655" cx="1.549" cy="1.549" rx="1.549" ry="1.549" transform="translate(21.685 475.809)" fill="#fff"/>
    <circle id="Ellipse_656" data-name="Ellipse 656" cx="1.549" cy="1.549" r="1.549" transform="translate(93.979 1045.402) rotate(-70)" fill="#fff"/>
    <ellipse id="Ellipse_657" data-name="Ellipse 657" cx="2.582" cy="2.582" rx="2.582" ry="2.582" transform="translate(520.447 850.655)" fill="#fff"/>
    <ellipse id="Ellipse_658" data-name="Ellipse 658" cx="2.582" cy="2.582" rx="2.582" ry="2.582" transform="translate(520.447 1231.696)" fill="#fff"/>
    <circle id="Ellipse_659" data-name="Ellipse 659" cx="2.582" cy="2.582" r="2.582" transform="translate(187.669 1061.813) rotate(-70)" fill="#fff"/>
    <ellipse id="Ellipse_660" data-name="Ellipse 660" cx="2.582" cy="2.582" rx="2.582" ry="2.582" transform="translate(849.755 344.29) rotate(-71)" fill="#fff"/>
    <ellipse id="Ellipse_661" data-name="Ellipse 661" cx="5.163" cy="5.163" rx="5.163" ry="5.163" transform="translate(1318.671 833.1)" fill="#fff"/>
    <ellipse id="Ellipse_662" data-name="Ellipse 662" cx="5.163" cy="5.163" rx="5.163" ry="5.163" transform="translate(1318.671 1177.999)" fill="#fff"/>
    <ellipse id="Ellipse_663" data-name="Ellipse 663" cx="5.163" cy="5.163" rx="5.163" ry="5.163" transform="translate(320.116 833.1)" fill="#fff"/>
    <ellipse id="Ellipse_664" data-name="Ellipse 664" cx="5.163" cy="5.163" rx="5.163" ry="5.163" transform="translate(111.524 682.336)" fill="#fff"/>
    <ellipse id="Ellipse_665" data-name="Ellipse 665" cx="5.163" cy="5.163" rx="5.163" ry="5.163" transform="translate(0 858.916)" fill="#fff"/>
    <ellipse id="Ellipse_666" data-name="Ellipse 666" cx="5.163" cy="5.163" rx="5.163" ry="5.163" transform="translate(320.116 488.201)" fill="#fff"/>
    <ellipse id="Ellipse_667" data-name="Ellipse 667" cx="6.712" cy="6.712" rx="6.712" ry="6.712" transform="translate(39.24 274.446)" fill="#fff"/>
    <ellipse id="Ellipse_668" data-name="Ellipse 668" cx="5.163" cy="5.163" rx="5.163" ry="5.163" transform="translate(1180.299 488.201)" fill="#fff"/>
    <ellipse id="Ellipse_669" data-name="Ellipse 669" cx="9.81" cy="9.81" rx="9.81" ry="9.81" transform="translate(1387.858 158.791)" fill="#fff"/>
    <ellipse id="Ellipse_670" data-name="Ellipse 670" cx="5.163" cy="5.163" rx="5.163" ry="5.163" transform="translate(528.708 833.1)" fill="#fff"/>
    <ellipse id="Ellipse_671" data-name="Ellipse 671" cx="5.163" cy="5.163" rx="5.163" ry="5.163" transform="translate(528.708 1214.141)" fill="#fff"/>
    <circle id="Ellipse_672" data-name="Ellipse 672" cx="5.163" cy="5.163" r="5.163" transform="translate(103.85 1078.666) rotate(-70)" fill="#fff"/>
    <ellipse id="Ellipse_673" data-name="Ellipse 673" cx="5.163" cy="5.163" rx="5.163" ry="5.163" transform="translate(857.101 361.017) rotate(-71)" fill="#fff"/>
    <ellipse id="Ellipse_674" data-name="Ellipse 674" cx="12.392" cy="12.392" rx="12.392" ry="12.392" transform="translate(749.175 138.139)" fill="#fff"/>
    <ellipse id="Ellipse_675" data-name="Ellipse 675" cx="2.065" cy="2.065" rx="2.065" ry="2.065" transform="translate(1542.753 920.874)" fill="#fff"/>
    <path id="Union_79" data-name="Union 79" d="M.065,5.2H0l.033-.037L0,5.127H.065L4.647,0,9.229,5.127h.065l-.033.037.033.037H9.229L4.647,10.326Z" transform="translate(581.372 580.105) rotate(180)" fill="#fff"/>
    <path id="Union_80" data-name="Union 80" d="M.065,5.2H0l.033-.037L0,5.127H.065L4.647,0,9.229,5.127h.065l-.033.037.033.037H9.229L4.647,10.326Z" transform="translate(1767.867 173.248) rotate(180)" fill="#fff"/>
    <path id="Union_81" data-name="Union 81" d="M.065,5.2H0l.033-.037L0,5.127H.065L4.647,0,9.229,5.127h.065l-.033.037.033.037H9.229L4.647,10.326Z" transform="translate(1833.955 537.767) rotate(180)" fill="#fff"/>
  </g>
</svg>
