<svg id="Calque_1" data-name="Calque 1" xmlns="http://www.w3.org/2000/svg" viewBox="0 0 33.04 33.01"><defs><style>.cls-1{fill:#fff;fill-rule:evenodd;}</style></defs><path id="Tracé_45918" data-name="Tracé 45918" class="cls-1" d="M7,20.87A3.47,3.47,0,1,1,3.5,17.4H7Zm1.73,0a3.47,3.47,0,1,1,6.94,0h0v8.67a3.47,3.47,0,0,1-6.94,0h0Z"/><path id="Tracé_45919" data-name="Tracé 45919" class="cls-1" d="M12.17,6.94a3.47,3.47,0,1,1,3.47-3.47V6.94Zm0,1.76a3.47,3.47,0,0,1,0,6.94H3.47a3.47,3.47,0,0,1,0-6.94Z"/><path id="Tracé_45920" data-name="Tracé 45920" class="cls-1" d="M26.07,12.17a3.47,3.47,0,1,1,3.47,3.47H26.07Zm-1.73,0a3.47,3.47,0,1,1-6.94,0h0V3.47a3.47,3.47,0,1,1,6.94,0Z"/><path id="Tracé_45921" data-name="Tracé 45921" class="cls-1" d="M20.87,26.07a3.47,3.47,0,1,1-3.47,3.47V26.07Zm0-1.73a3.47,3.47,0,0,1,0-6.94h8.7a3.47,3.47,0,0,1,0,6.94Z"/></svg>