<svg id="Calque_1" data-name="Calque 1" xmlns="http://www.w3.org/2000/svg" viewBox="0 0 216 80"><defs><style>.cls-1,.cls-2,.cls-3,.cls-4,.cls-5{fill-rule:evenodd;}.cls-2{fill:#e01e5a;}.cls-3{fill:#36c5f0;}.cls-4{fill:#2eb67d;}.cls-5{fill:#ecb22e;}</style></defs><path id="Tracé_45916" data-name="Tracé 45916" class="cls-1" d="M76.86,52.57l2.16-5a14.35,14.35,0,0,0,8.5,2.65c2.26,0,3.69-.87,3.69-2.19,0-3.7-13.55-.8-13.65-10.07,0-4.7,4.14-8.33,10.06-8.33a15.52,15.52,0,0,1,9.55,2.86l-2,5.12a15.18,15.18,0,0,0-7.88-2.51c-1.84,0-3.06.87-3.06,2,0,3.63,13.66,1.64,13.79,10.49,0,4.81-4.07,8.19-9.92,8.19a19.15,19.15,0,0,1-11.22-3.18m82.87-6.82a6.25,6.25,0,1,1,0-6.13l6-3.31a13.05,13.05,0,1,0,0,12.76ZM101,18.78h7.46V55.26H101Zm67.62,0V55.26h7.46V44.31l8.84,10.95h9.55l-11.26-13,10.42-12.13H184.5L176.07,40.2V18.78Z"/><path id="Tracé_45917" data-name="Tracé 45917" d="M130.61,45.82a6.88,6.88,0,0,1-5.81,3.1,6.24,6.24,0,1,1-.16-12.47h.16a6.85,6.85,0,0,1,5.81,3.2Zm0-15.68v3c-1.21-2.05-4.24-3.48-7.42-3.48-6.55,0-11.7,5.78-11.7,13s5.16,13.1,11.7,13.1c3.17,0,6.2-1.43,7.42-3.49v3h7.46V30.14Z"/><g id="Groupe_41522" data-name="Groupe 41522"><path id="Tracé_45918" data-name="Tracé 45918" class="cls-2" d="M30.77,45.78a4.6,4.6,0,1,1-4.6-4.6h4.6Zm2.3,0a4.6,4.6,0,0,1,9.2,0v11.5a4.6,4.6,0,0,1-9.2,0h0Z"/><path id="Tracé_45919" data-name="Tracé 45919" class="cls-3" d="M37.66,27.32a4.6,4.6,0,1,1,4.6-4.6v4.6Zm0,2.33a4.6,4.6,0,0,1,0,9.2H26.13a4.6,4.6,0,1,1,0-9.2H37.66Z"/><path id="Tracé_45920" data-name="Tracé 45920" class="cls-4" d="M56.1,34.25a4.6,4.6,0,1,1,4.6,4.6H56.1Zm-2.3,0a4.6,4.6,0,0,1-9.2,0V22.72a4.6,4.6,0,1,1,9.2,0Z"/><path id="Tracé_45921" data-name="Tracé 45921" class="cls-5" d="M49.2,52.68a4.6,4.6,0,1,1-4.6,4.6v-4.6Zm0-2.3a4.6,4.6,0,0,1,0-9.2H60.73a4.6,4.6,0,1,1,0,9.2Z"/></g></svg>