<svg id="Calque_1" data-name="Calque 1" xmlns="http://www.w3.org/2000/svg" viewBox="0 0 1982.3 1331.87"><defs><style>.cls-1{opacity:0.22;}.cls-2{fill:#fff;}</style></defs><g id="Groupe_41591" data-name="Groupe 41591" class="cls-1"><path id="Tracé_26251" data-name="Tracé 26251" d="M1278.08,926a.08.08,0,0,0,.05-.07s0,0-.05-.06a.07.07,0,0,0-.06.07A.09.09,0,0,0,1278.08,926Z"/><circle id="Ellipse_624" data-name="Ellipse 624" class="cls-2" cx="1441.89" cy="1025.69" r="2.58"/><circle id="Ellipse_625" data-name="Ellipse 625" class="cls-2" cx="1786.79" cy="1025.69" r="2.58"/><circle id="Ellipse_626" data-name="Ellipse 626" class="cls-2" cx="1786.79" cy="1268.36" r="2.58"/><circle id="Ellipse_627" data-name="Ellipse 627" class="cls-2" cx="825.41" cy="683.89" r="2.58"/><circle id="Ellipse_628" data-name="Ellipse 628" class="cls-2" cx="558.99" cy="683.89" r="2.58"/><circle id="Ellipse_629" data-name="Ellipse 629" class="cls-2" cx="558.99" cy="258.44" r="2.58"/><circle id="Ellipse_630" data-name="Ellipse 630" class="cls-2" cx="558.99" cy="23.24" r="2.58"/><circle id="Ellipse_631" data-name="Ellipse 631" class="cls-2" cx="101.54" cy="323.5" r="2.58"/><circle id="Ellipse_632" data-name="Ellipse 632" class="cls-2" cx="82.95" cy="278.06" r="2.58"/><circle id="Ellipse_633" data-name="Ellipse 633" class="cls-2" cx="1244.66" cy="683.89" r="2.58"/><circle id="Ellipse_634" data-name="Ellipse 634" class="cls-2" cx="1689.72" cy="622.96" r="2.58"/><circle id="Ellipse_635" data-name="Ellipse 635" class="cls-2" cx="1449.12" cy="441.22" r="4.65"/><circle id="Ellipse_636" data-name="Ellipse 636" class="cls-2" cx="1823.97" cy="441.22" r="4.65"/><circle id="Ellipse_637" data-name="Ellipse 637" class="cls-2" cx="1823.97" cy="913.13" r="4.65"/><circle id="Ellipse_638" data-name="Ellipse 638" class="cls-2" cx="825.41" cy="509.37" r="2.58"/><circle id="Ellipse_639" data-name="Ellipse 639" class="cls-2" cx="1053.62" cy="287.36" r="2.58"/><circle id="Ellipse_640" data-name="Ellipse 640" class="cls-2" cx="1053.62" cy="118.01" r="2.58"/><circle id="Ellipse_641" data-name="Ellipse 641" class="cls-2" cx="1441.89" cy="603.34" r="2.58"/><circle id="Ellipse_642" data-name="Ellipse 642" class="cls-2" cx="1359.28" cy="964.76" r="1.55"/><circle id="Ellipse_643" data-name="Ellipse 643" class="cls-2" cx="1359.28" cy="1309.66" r="1.55"/><circle id="Ellipse_644" data-name="Ellipse 644" class="cls-2" cx="806.82" cy="964.76" r="1.55"/><circle id="Ellipse_645" data-name="Ellipse 645" class="cls-2" cx="806.82" cy="1212.6" r="1.55"/><circle id="Ellipse_646" data-name="Ellipse 646" class="cls-2" cx="1507.98" cy="765.47" r="1.55"/><circle id="Ellipse_647" data-name="Ellipse 647" class="cls-2" cx="1845.65" cy="765.47" r="1.55"/><circle id="Ellipse_648" data-name="Ellipse 648" class="cls-2" cx="1929.3" cy="765.47" r="1.55"/><circle id="Ellipse_649" data-name="Ellipse 649" class="cls-2" cx="1617.44" cy="536.22" r="1.55"/><circle id="Ellipse_650" data-name="Ellipse 650" class="cls-2" cx="616.82" cy="765.47" r="1.55"/><circle id="Ellipse_651" data-name="Ellipse 651" class="cls-2" cx="1230.2" cy="697.31" r="1.55"/><circle id="Ellipse_652" data-name="Ellipse 652" class="cls-2" cx="1675.27" cy="661.17" r="1.55"/><circle id="Ellipse_653" data-name="Ellipse 653" class="cls-2" cx="561.06" cy="883.19" r="1.55"/><circle id="Ellipse_654" data-name="Ellipse 654" class="cls-2" cx="561.06" cy="1264.23" r="1.55"/><circle id="Ellipse_655" data-name="Ellipse 655" class="cls-2" cx="74.69" cy="498.01" r="1.55"/><circle id="Ellipse_656" data-name="Ellipse 656" class="cls-2" cx="147.42" cy="1065.13" r="1.55"/><circle id="Ellipse_657" data-name="Ellipse 657" class="cls-2" cx="574.48" cy="873.89" r="2.58"/><circle id="Ellipse_658" data-name="Ellipse 658" class="cls-2" cx="574.48" cy="1254.93" r="2.58"/><circle id="Ellipse_659" data-name="Ellipse 659" class="cls-2" cx="242.43" cy="1080.93" r="2.58"/><circle id="Ellipse_660" data-name="Ellipse 660" class="cls-2" cx="904.49" cy="363.35" r="2.58"/><circle id="Ellipse_661" data-name="Ellipse 661" class="cls-2" cx="1375.29" cy="858.92" r="5.16"/><circle id="Ellipse_662" data-name="Ellipse 662" class="cls-2" cx="1375.29" cy="1203.82" r="5.16"/><circle id="Ellipse_663" data-name="Ellipse 663" class="cls-2" cx="376.73" cy="858.92" r="5.16"/><circle id="Ellipse_664" data-name="Ellipse 664" class="cls-2" cx="168.14" cy="708.16" r="5.16"/><circle id="Ellipse_665" data-name="Ellipse 665" class="cls-2" cx="56.62" cy="884.74" r="5.16"/><circle id="Ellipse_666" data-name="Ellipse 666" class="cls-2" cx="376.73" cy="514.02" r="5.16"/><circle id="Ellipse_667" data-name="Ellipse 667" class="cls-2" cx="97.41" cy="301.81" r="6.71"/><circle id="Ellipse_668" data-name="Ellipse 668" class="cls-2" cx="1236.92" cy="514.02" r="5.16"/><circle id="Ellipse_669" data-name="Ellipse 669" class="cls-2" cx="1449.12" cy="189.26" r="9.81"/><circle id="Ellipse_670" data-name="Ellipse 670" class="cls-2" cx="585.32" cy="858.92" r="5.16"/><circle id="Ellipse_671" data-name="Ellipse 671" class="cls-2" cx="585.32" cy="1239.96" r="5.16"/><circle id="Ellipse_672" data-name="Ellipse 672" class="cls-2" cx="161.92" cy="1096.24" r="5.16"/><circle id="Ellipse_673" data-name="Ellipse 673" class="cls-2" cx="915.12" cy="378.47" r="5.16"/><circle id="Ellipse_674" data-name="Ellipse 674" class="cls-2" cx="813.02" cy="171.19" r="12.39"/><circle id="Ellipse_675" data-name="Ellipse 675" class="cls-2" cx="1596.27" cy="943.6" r="2.07"/><path id="Union_79" data-name="Union 79" class="cls-2" d="M632.76,595.56h.07l0,0,0,0h-.07l-4.58,5.13-4.58-5.13h-.07l0,0,0,0h.07l4.58-5.12Z"/><path id="Union_80" data-name="Union 80" class="cls-2" d="M1819.26,188.7h.06l0,0,0,0h-.06l-4.59,5.12-4.58-5.12H1810l0,0,0,0h.06l4.58-5.12Z"/><path id="Union_81" data-name="Union 81" class="cls-2" d="M1885.34,553.22h.07l0,0,0,0h-.07l-4.58,5.12-4.58-5.12h-.07l0,0,0,0h.07l4.58-5.12Z"/></g></svg>