<svg id="Calque_1" data-name="Calque 1" xmlns="http://www.w3.org/2000/svg" viewBox="0 0 85.48 78.57"><defs><style>.cls-1{fill:#1c2b43;}</style></defs><g id="Groupe_27513" data-name="Groupe 27513"><path id="Tracé_29563" data-name="Tracé 29563" class="cls-1" d="M85.48,53.5v1.68a4.62,4.62,0,0,1-3.91,3.61,8.91,8.91,0,0,1-2,0c-.62,0-.87.22-1.06.76A13.19,13.19,0,0,0,78.25,68c.49,1.58.48,1.61,2.11,1.58a4.67,4.67,0,0,1,4.51,2.28,11.57,11.57,0,0,1,.6,1.35v1.68c-1.22,2.93-2.29,3.65-5.51,3.65H7.12A7.33,7.33,0,0,1,0,71.16q0-6.93,0-13.88A7.17,7.17,0,0,1,3.8,50.83l.6-.37a4.5,4.5,0,0,1,3.37-6.94,13.67,13.67,0,0,1,1.92,0c.51,0,.72-.18.88-.64a13.22,13.22,0,0,0,.4-8.29c-.5-1.86-.51-1.86-2.41-1.86H8.23a4.47,4.47,0,1,1-.18-8.93l.8-.06a1.62,1.62,0,0,0-.1-.18l-.5-.43A12.75,12.75,0,0,1,4,10.54,13,13,0,0,1,16.92,0H59.23a4.54,4.54,0,0,1,4.3,4.14A4.48,4.48,0,0,1,60.25,8.9a6.48,6.48,0,0,1-1.81.19.79.79,0,0,0-.89.65A10.42,10.42,0,0,0,57.36,16c.24.9.56,1.3,1.6,1.27a4.4,4.4,0,0,1,4.56,4.23v0a12.45,12.45,0,0,1-.27,2.27h3a7.32,7.32,0,0,1,7.68,7c0,.26,0,.53,0,.79,0,4,0,8,0,12,0,2.27-.12,4.45-1.83,6.43h8.6A4.48,4.48,0,0,1,85,52.3C85.15,52.69,85.32,53.1,85.48,53.5Zm-9.34,5.34h-17a4.58,4.58,0,0,1-.83,0,1.18,1.18,0,0,1-1.08-1.27,1.16,1.16,0,0,1,1.11-1.2h0a7.69,7.69,0,0,1,.83,0H80.3c.28,0,.56,0,.83,0A2,2,0,0,0,83,54.4a1.93,1.93,0,0,0-1.81-1.94c-.31,0-.61,0-.92,0H34.74v3.91h16.8a7.73,7.73,0,0,1,.83,0,1.15,1.15,0,0,1,1.12,1.13,1.19,1.19,0,0,1-1,1.33,3.82,3.82,0,0,1-.83,0h-17V63a1.69,1.69,0,0,1-3,1.36c-.46-.4-.89-.84-1.34-1.26L28.18,61l-1.09,1c-.89.84-1.74,1.73-2.69,2.5a1.56,1.56,0,0,1-2.2.06,1.51,1.51,0,0,1-.48-1,8.35,8.35,0,0,1,0-1V58.89c-.32,0-.54,0-.76,0-3.7,0-7.4,0-11.1,0-.75,0-.95.24-.94,1,0,2.93,0,5.85,0,8.78,0,.88.29,1.06,1.11,1.06q32.6,0,65.18,0h1a15.58,15.58,0,0,1,0-10.79ZM55.11,9.1H36.69a5.54,5.54,0,0,1-1-.06,1.13,1.13,0,0,1-1-1.18c0-.78.48-1.25,1.43-1.26,1.94,0,3.89,0,5.84,0H58.67A2.1,2.1,0,0,0,61,4.8c0-.08,0-.16,0-.24a2.07,2.07,0,0,0-2.09-2h-.19c-14,0-28.1,0-42.15,0A10.6,10.6,0,0,0,6.16,13.28a10.49,10.49,0,0,0,.37,2.62,10.77,10.77,0,0,0,10.61,7.9c13.78-.06,27.55,0,41.32,0a7.81,7.81,0,0,0,.83,0,2,2,0,0,0,.41-3.86,4.43,4.43,0,0,0-1.31-.15H16.33a6.59,6.59,0,0,1-6.08-7.06l0-.32A6.5,6.5,0,0,1,16.9,6.6c3.23,0,6.46,0,9.68,0,1.09,0,2.17,0,3.26,0A1.14,1.14,0,0,1,31,7.71v.08a1.16,1.16,0,0,1-1,1.26h0a5.62,5.62,0,0,1-.92,0H19.33c-1,0-2.06,0-3.08.05a4,4,0,0,0-3.49,4.44,1.67,1.67,0,0,0,.05.31A4,4,0,0,0,17,17.2q18.69,0,37.39,0c.21,0,.42,0,.69-.05a13,13,0,0,1,0-8ZM34.73,49.87c.32,0,.56.05.81.05h30.8c3.16,0,5.12-2,5.13-5.2V31.59c0-3.34-2-5.3-5.3-5.3H8.74a5.67,5.67,0,0,0-1,.07,1.92,1.92,0,0,0-.07,3.76,6.47,6.47,0,0,0,1.32.1c18.34,0,36.67,0,55,0,2.63,0,3.7,1.56,3.62,3.68-.1,2.84,0,5.69,0,8.53,0,2.6-1,3.6-3.57,3.6H34.72ZM21.64,52.51a3.25,3.25,0,0,0-.43-.08c-4.68,0-9.35,0-14,0a4.69,4.69,0,0,0-4.68,4.69,1.09,1.09,0,0,0,0,.18c0,4.52,0,9,0,13.55A4.82,4.82,0,0,0,7,76.05a4,4,0,0,0,.69,0q36.42,0,72.84,0a3.86,3.86,0,0,0,1.07-.12,1.91,1.91,0,0,0-.17-3.71,7.26,7.26,0,0,0-1.32-.09H9.77c-2.3,0-3.37-1.07-3.38-3.37v-9.2a2.92,2.92,0,0,1,2.55-3.22,3.53,3.53,0,0,1,.65,0q5.6,0,11.19,0c.29,0,.58,0,.86,0Zm13.1-9c.24,0,.43,0,.62,0H64.24c.65,0,.87-.2.87-.87,0-3,0-5.91,0-8.86,0-.87-.26-1.07-1.09-1.07q-25,0-50.07,0H13.1l.9,4.12H43c1.1,0,1.71.48,1.69,1.28s-.6,1.22-1.66,1.22H34.74Zm-10.48-4V61.26L27,58.64c.91-.87,1.4-.87,2.34,0l1.15,1.09,1.65,1.58V39.42ZM21.65,46h-13a3.86,3.86,0,0,0-1.07.11,1.92,1.92,0,0,0,.2,3.73,3.68,3.68,0,0,0,.66.06H21a4.48,4.48,0,0,0,.64-.08Zm0-6.6H14l-.88,4h8.53Z"/></g></svg>