<svg id="Calque_1" data-name="Calque 1" xmlns="http://www.w3.org/2000/svg" viewBox="0 0 81.44 81.45"><defs><style>.cls-1{fill:#1c2b43;}</style></defs><g id="Groupe_27515" data-name="Groupe 27515"><path id="Tracé_29570" data-name="Tracé 29570" class="cls-1" d="M33.07,70.12H43.49c1.77,0,2.25-.48,2.25-2.27v-20a11.73,11.73,0,0,1,0-1.19,4.8,4.8,0,0,1,9.58.52q0,10.45,0,20.91c0,1.52.55,2.07,2,2.07H68c1.76,0,2.24-.49,2.24-2.28V53.45c0-3.39.1-6.79-.08-10.17A15.4,15.4,0,0,0,53.71,29a15.18,15.18,0,0,0-2.66.42,16.27,16.27,0,0,0-5.82,2.84c-.24-2.29-.48-2.5-2.7-2.5H33c-1.64,0-2.12.49-2.12,2.14V68C30.87,69.62,31.38,70.12,33.07,70.12ZM34.1,33H42v2.78c0,1.18.3,1.72,1.09,2s1.3,0,2-.87C48.29,33,52.4,31.35,57.32,32.4s8.14,4.31,9.41,9.27A11.9,11.9,0,0,1,67,44.58c0,7.19,0,14.37,0,21.55,0,.24,0,.47,0,.76H58.55V66c0-6.28,0-12.57,0-18.85a8,8,0,0,0-15.92-.77c-.07,1-.06,2-.06,3V66.89H34.11Z"/><path id="Tracé_29571" data-name="Tracé 29571" class="cls-1" d="M25,29.72H14.29c-1.6,0-2.11.5-2.11,2.08V68.06c0,1.52.55,2.06,2.06,2.06H24.9c1.63,0,2.15-.52,2.15-2.13V31.8C27.05,30.22,26.55,29.72,25,29.72ZM23.83,66.9h-8.4V33h8.4Z"/><path id="Tracé_29572" data-name="Tracé 29572" class="cls-1" d="M19.54,28.13a8.4,8.4,0,1,0-8.3-8.5A8.41,8.41,0,0,0,19.54,28.13Zm.05-13.62a5.22,5.22,0,1,1-5.17,5.26h0a5.25,5.25,0,0,1,5.17-5.25Z"/><path id="Tracé_29573" data-name="Tracé 29573" class="cls-1" d="M35.24,3.18h0Z"/><path id="Tracé_29574" data-name="Tracé 29574" class="cls-1" d="M35.24,0h0Z"/><path id="Tracé_29575" data-name="Tracé 29575" class="cls-1" d="M8.57,0h0Z"/><path id="Tracé_29576" data-name="Tracé 29576" class="cls-1" d="M4.67,3.18h0Z"/><path id="Tracé_29577" data-name="Tracé 29577" class="cls-1" d="M58.67,78.27H4.81a1.64,1.64,0,0,1-1.64-1.64V4.81a1.63,1.63,0,0,1,1.5-1.63h4a1.58,1.58,0,0,0,1.44-1.72A1.57,1.57,0,0,0,8.7,0H1.64A1.63,1.63,0,0,0,0,1.65V79.8a1.63,1.63,0,0,0,1.64,1.64H58.42A1.6,1.6,0,0,0,60,79.83a1.58,1.58,0,0,0-1.34-1.56Z"/><path id="Tracé_29578" data-name="Tracé 29578" class="cls-1" d="M79.8,0H20.63a1.59,1.59,0,0,0,0,3.17h56a1.63,1.63,0,0,1,1.64,1.64V76.64a1.64,1.64,0,0,1-1.39,1.62H72.69a1.59,1.59,0,0,0,0,3.18H79.8a1.65,1.65,0,0,0,1.64-1.64V1.65A1.64,1.64,0,0,0,79.8,0ZM76.93,78.26Z"/><circle id="Ellipse_870" data-name="Ellipse 870" class="cls-1" cx="14.34" cy="1.59" r="1.59"/><circle id="Ellipse_871" data-name="Ellipse 871" class="cls-1" cx="65.47" cy="79.86" r="1.59"/></g></svg>