<svg id="Calque_1" data-name="Calque 1" xmlns="http://www.w3.org/2000/svg" viewBox="0 0 100.94 93.92"><defs><style>.cls-1{fill:#1c2b43;}</style></defs><path id="Tracé_29564" data-name="Tracé 29564" class="cls-1" d="M100.94,40a2.21,2.21,0,0,0-.18.34A7.43,7.43,0,0,1,89,44.69c-.18-.13-.38-.24-.75-.49V68.49c0,1.42-.5,2.14-1.47,2.14s-1.49-.74-1.49-2.14c0-8.46,0-16.92,0-25.38a1.91,1.91,0,0,0-.9-1.78q-16.6-12-33.16-24.14a1,1,0,0,0-1.42,0h0Q33.1,29.34,16.38,41.47a1.52,1.52,0,0,0-.7,1.39q0,23.4,0,46.81c0,1.24,0,1.28,1.26,1.28h8.48c.29,0,.57,0,1,0v-4a3.5,3.5,0,0,1,3.18-3.78,5,5,0,0,1,.55,0c.89,0,1.77,0,2.78,0V56.84a5.46,5.46,0,0,1,0-1,1.47,1.47,0,0,1,2.89-.08,4.86,4.86,0,0,1,0,1.08V83.07H65.06V42c0-1.36,0-1.37-1.36-1.37H37.19c-1.31,0-1.31,0-1.31,1.31v7.21c0,1.21-.58,1.93-1.51,1.91s-1.44-.7-1.44-1.87c0-2.63,0-5.26,0-7.9a3.42,3.42,0,0,1,3.21-3.61H64.4A3.44,3.44,0,0,1,68,40.94a4.56,4.56,0,0,1,0,.52V83.15c1,0,1.82,0,2.7,0a3.5,3.5,0,0,1,3.8,3.16,3.42,3.42,0,0,1,0,.64c0,1.28,0,2.57,0,4H83.9c1.32,0,1.34,0,1.34-1.3V76.51c0-.26,0-.53,0-.79a1.54,1.54,0,0,1,1.42-1.63h.07a1.48,1.48,0,0,1,1.46,1.5.76.76,0,0,1,0,.15c0,2.83,0,5.66,0,8.49v5.63c0,2.74-1.32,4-4.06,4q-22,0-44,0H17c-3.06,0-4.28-1.22-4.28-4.32V44.21c-.43.28-.69.44-1,.62A7.44,7.44,0,0,1,3.08,32.77h0c4.14-3.08,8.34-6.08,12.51-9.12l7.17-5.22c.22-.16.42-.32.64-.47a1.51,1.51,0,0,1,2.11.22l.07.08a1.47,1.47,0,0,1-.35,2l-.09.05c-1.65,1.25-3.33,2.45-5,3.67Q12.57,29.53,5,35a4.39,4.39,0,0,0-2,4.44,4.24,4.24,0,0,0,3.11,3.6,4.61,4.61,0,0,0,4.27-.87q8.91-6.51,17.85-13L49.13,14c1.2-.87,1.5-.86,2.71,0Q70.89,27.88,90,41.73a8,8,0,0,0,2.86,1.44,4.26,4.26,0,0,0,4.8-2.6,4.42,4.42,0,0,0-1.46-5.38c-1.48-1.14-3-2.22-4.53-3.32L53.76,4.31c-2.46-1.79-4.14-1.78-6.62,0Q39.06,10.25,31,16.12c-.16.12-.31.24-.48.35a1.5,1.5,0,0,1-2.12-.22l-.06-.07a1.44,1.44,0,0,1,.31-2l.11-.08c.75-.59,1.53-1.13,2.3-1.69L45.61,1.79c3.27-2.38,6.44-2.39,9.71,0Q76.2,17,97.09,32.16a9.22,9.22,0,0,1,3.84,5.51ZM29.37,90.87h42.2V87.65c0-1.54,0-1.54-1.49-1.54H30.18c-.58,0-.82.25-.81.84C29.39,88.23,29.37,89.51,29.37,90.87Z"/><path id="Tracé_29565" data-name="Tracé 29565" class="cls-1" d="M50.42,60c-2,0-4,0-6,0a3.39,3.39,0,0,1-3.6-3.18,2.67,2.67,0,0,1,0-.49q0-3.55,0-7.11A3.44,3.44,0,0,1,44,45.56a3.25,3.25,0,0,1,.54,0c4,0,8,0,11.92,0a3.44,3.44,0,0,1,3.7,3.16,4.51,4.51,0,0,1,0,.52c0,2.4,0,4.8,0,7.21A3.38,3.38,0,0,1,56.94,60h-.31C54.56,60.06,52.49,60,50.42,60Zm.07-3c1.94,0,3.87,0,5.81,0,.61,0,.9-.2.89-.86q0-3.39,0-6.8c0-.7-.27-.91-.94-.9H44.74c-.71,0-1,.21-1,.95,0,2.24,0,4.47,0,6.71,0,.7.28.91.93.9,1.94,0,3.88,0,5.81,0Z"/><path id="Tracé_29566" data-name="Tracé 29566" class="cls-1" d="M42.29,68.26a1.5,1.5,0,0,1-1.48-1.51h0a1.47,1.47,0,0,1,2.94,0A1.51,1.51,0,0,1,42.29,68.26Z"/></svg>